<svg width="18" height="40" viewBox="0 0 18 40" fill="none" xmlns="http://www.w3.org/2000/svg">
<path d="M5.94055 33.1416C5.90367 33.1321 5.91632 33.2683 5.88386 33.2894C5.74875 33.3783 5.72185 33.484 5.5975 33.5809C5.40536 33.7376 4.68991 33.725 4.83281 34.6083C4.83281 34.6083 4.83282 34.6084 4.83282 34.6084C4.83445 34.6171 4.83618 34.6258 4.838 34.6347C4.87214 34.803 4.97892 34.9734 5.02782 35.1615C5.07677 35.3497 5.30938 36.5824 5.44584 36.6261C5.6472 36.6811 5.9598 36.2701 6.05601 36.2553C6.12115 36.247 6.23059 36.3335 6.31654 36.3278C6.59746 36.3066 6.67865 36.1892 7.03841 36.3797C7.07335 36.1897 7.10086 36.0006 7.12083 35.8128C7.26694 35.8307 7.34053 35.5548 7.41454 35.5292C7.47458 35.5089 7.56814 35.6053 7.62952 35.5784C7.69906 35.5487 7.7275 35.3726 7.84863 35.3224C8.04987 35.2365 8.27426 35.4889 8.41486 35.4429C8.56277 35.3929 8.62534 35.1153 8.84504 35.0831C8.88704 35.096 8.92924 35.1086 8.97164 35.1207C9.01365 35.1952 9.05509 35.2701 9.09595 35.3453C9.1979 35.309 9.11608 35.152 9.17953 35.0897C9.25385 35.016 9.405 35.0959 9.45648 35.0443C9.49937 35.0009 9.46306 34.852 9.52099 34.8026C9.60512 34.7296 9.72681 34.8748 9.7945 34.853C9.82324 34.8473 10.1964 34.5651 10.212 34.5415C10.339 34.389 10.1404 34.2222 10.2082 34.0877C10.3938 33.7165 10.7798 33.4587 11.0168 33.1489C11.1224 33.0115 11.1807 32.844 11.2051 32.677C10.5028 32.6485 10.2288 31.9628 11.1119 32.5324C11.0412 32.3136 11.3459 32.2928 11.3568 32.1181C11.363 32.0055 11.2507 31.8906 11.2992 31.7481C11.3856 31.4987 11.8529 31.3198 11.1584 31.0656C11.3587 30.805 11.1491 30.5046 11.8069 30.5305C11.8623 30.4601 11.5201 30.1954 11.4834 30.1044C11.4521 30.0146 11.378 29.3976 11.3805 29.3025C11.3855 29.2052 11.3988 29.0383 11.4663 28.9666C11.5498 28.8774 12.2273 28.8944 11.4701 28.6136C11.56 28.4164 11.5467 28.3405 11.4794 28.14C11.4672 28.1037 11.3516 28.0856 11.3539 28.0656C11.359 28.0245 11.4533 27.965 11.4726 27.8931C11.5043 27.7749 11.2683 27.6772 11.6397 27.7356C11.7118 27.6641 11.7838 27.5929 11.8558 27.5221C11.7872 27.4858 11.7185 27.4497 11.6499 27.4134C11.7334 27.381 11.817 27.3487 11.9005 27.3166C11.3548 27.2994 11.7095 27.0451 12.0073 27.1788C11.9143 27.0148 11.8216 26.8518 11.7298 26.6878C11.1143 26.627 11.7035 26.351 12.0322 26.429C12.034 26.4122 12.0359 26.3955 12.0378 26.3789C11.8962 26.2088 12.0489 26.0944 11.968 25.9028C11.8876 25.7108 11.8263 25.7161 11.5553 25.6142C11.5786 25.5749 11.6019 25.5359 11.6254 25.4972C12.4313 25.4253 11.0968 25.2075 11.7609 24.9563C11.3072 24.7353 11.6291 24.4924 11.8235 24.351C11.8461 24.3342 11.9377 24.3593 11.9738 24.3393C12.0599 24.2915 11.9968 24.0804 12.2875 24.1791C12.221 24.0946 12.1557 24.009 12.0916 23.922C12.1607 23.892 12.2294 23.8645 12.2989 23.8367C12.3887 23.8696 12.4786 23.9025 12.5684 23.9355C12.2947 23.7325 12.4691 23.6324 12.4259 23.5356C12.4171 23.5158 12.2967 23.4612 12.2826 23.4033C12.2656 23.3349 12.3444 23.2564 12.3361 23.1795C12.4789 23.2202 12.6209 23.2628 12.7621 23.3075C12.8804 23.2494 12.5579 23.0354 12.5651 22.9605C12.5657 22.9462 12.7007 22.7731 12.7146 22.7691C12.8218 22.7248 13.0779 22.9238 13.1655 22.6844C13.1815 22.6418 13.1141 22.5433 13.1365 22.5081C13.1768 22.4418 13.5111 22.4563 13.6909 22.6154C13.5278 22.3512 13.7716 22.2906 13.7646 22.1864C13.7626 22.1537 13.6436 22.0048 13.6693 21.9323C13.6737 21.9197 13.6866 21.9113 13.7044 21.9056C14.4478 21.2117 14.3752 20.1821 13.3921 19.9218C13.3447 19.88 13.3052 19.7664 13.2583 19.7667C13.1941 19.7676 13.1031 19.9001 13.0722 19.897C13.043 19.8936 13.0835 19.7691 13.0526 19.7526C12.9576 19.704 12.756 19.8183 12.6748 19.7619C12.5562 19.6794 12.7187 19.3107 12.7734 19.125C12.7387 19.1252 12.6626 19.1643 12.6435 19.145C12.4055 18.9113 12.114 18.5888 11.8557 18.2304C11.7384 18.0849 11.0613 17.7648 11.9218 17.5931C12.0385 17.485 11.5414 17.0991 11.5088 16.9957C11.4743 16.8978 11.6009 16.7756 11.5813 16.6958C11.524 16.4596 11.3717 16.3135 11.4343 15.9822C11.4512 15.8974 11.6123 15.775 11.6004 15.7298C11.5855 15.6753 11.3989 15.6522 11.3726 15.581C11.3103 15.4092 11.3051 15.0755 11.2434 14.9078C11.2317 14.8775 11.0763 14.8946 11.0201 14.858C10.8008 14.7172 10.7828 14.5155 11.2794 14.4655C10.9617 14.2885 11.1806 14.0331 11.1617 13.8199C11.12 13.3675 10.8747 12.5541 11.0137 12.1141C11.1017 11.8381 11.3233 11.8053 11.0675 11.4574C11.0106 11.38 10.939 11.3063 10.8703 11.2123C10.7081 10.9892 10.2614 10.8484 10.7124 10.5679C10.532 10.3217 10.574 10.0817 10.1144 9.97584C10.2086 9.92999 10.3026 9.88385 10.3966 9.83742C10.3913 9.80297 10.3859 9.76838 10.3804 9.73389C10.2833 9.74544 10.1861 9.75712 10.089 9.76895C10.0076 9.53562 10.3187 9.13924 10.2554 8.92426C10.162 8.57592 9.71037 7.71915 9.4363 7.4373C9.29789 7.29179 9.48161 7.19499 9.04814 7.27683C9.05721 7.22565 9.06585 7.17425 9.07401 7.1226C9.14677 7.05765 9.21904 6.99198 9.2908 6.92556C9.18114 6.69389 8.90871 6.50261 8.77705 6.2919C8.55863 5.92244 8.29315 5.17519 7.7929 4.96372C7.67084 4.91072 7.43055 4.96195 7.33984 4.88946C7.20646 4.78461 7.35936 4.49706 7.16363 4.36195C6.82175 4.1174 6.0063 4.1663 5.68649 4.05704C5.58637 4.01961 5.57185 3.89286 5.50566 3.86322C5.23129 3.73977 4.96786 3.70651 4.70975 3.49469C4.37816 3.77298 4.38717 4.17614 4.28416 4.57084C4.20327 4.86896 4.02007 5.56645 4.00269 5.83176C3.98823 6.01768 4.04174 6.25706 4.02053 6.46169C4.24189 6.62805 4.31744 6.45457 4.5245 6.18823C4.85961 6.24171 5.14859 6.33445 5.4096 6.468C5.48122 6.37806 5.55572 6.28993 5.63306 6.20377C5.63317 6.20356 5.63328 6.20334 5.63339 6.20312C5.80937 6.14817 5.71592 6.42855 5.73263 6.51523C5.82568 6.93993 6.07146 7.19622 6.39261 7.56357C6.70997 7.92101 7.06778 8.37165 7.24825 8.75684C7.32893 8.91545 7.36662 9.53075 7.57283 9.60657C7.62742 9.62593 7.79589 9.58857 7.8129 9.62177C7.80074 9.96127 7.77774 10.302 7.74709 10.6402C8.15365 11.2436 8.05928 11.9874 8.13172 12.6857C8.33969 14.5778 8.4144 16.542 9.18021 18.5597C9.32895 18.9435 9.43545 19.5053 9.72961 19.8538C9.85098 19.9967 10.1237 19.917 10.0844 20.2333C10.1479 20.1942 10.2114 20.1551 10.2748 20.1158C10.3158 20.3377 10.2581 20.5492 10.4067 20.7592C10.5226 20.936 10.9251 21.3589 11.1026 21.458C11.1906 21.5121 11.2486 21.3798 11.3208 21.4376C11.4391 21.5362 11.6191 21.8936 11.8292 22.0066C12.011 22.1107 12.3924 22.1052 12.5303 22.1783C12.5417 22.1846 12.5532 22.1909 12.5647 22.1972L12.2179 19.9944C11.7623 20.2355 11.1868 20.4941 10.8984 20.9842C10.8166 21.1221 10.8556 21.3871 10.8265 21.4229C10.7674 21.4938 10.6047 21.4233 10.5518 21.4656C10.2781 21.6841 10.2373 22.2228 10.1317 22.4963C9.77176 23.3962 9.47933 24.3176 9.36187 25.1715C9.28446 25.7124 9.14164 26.5741 9.21716 27.0546C9.23318 27.1589 9.42726 27.1552 9.41706 27.2394C9.40575 27.3326 9.27078 27.3674 9.25511 27.4095C9.14608 27.7035 8.93574 28.3359 9.02829 28.624C9.04631 28.6792 9.19007 28.7379 9.18507 28.7689C9.1828 28.7847 9.07605 28.8051 9.05841 28.8528C8.90205 29.2715 8.90967 29.5858 8.85971 29.995C8.76195 30.787 8.322 31.539 8.05385 32.1809C7.99663 32.3216 8.18315 32.5753 8.16713 32.5937C8.13371 32.6316 7.95173 32.5433 7.85619 32.5891C7.54678 32.739 7.41887 33.1733 7.11406 33.2813C6.9712 33.3316 6.6641 33.2333 6.52641 33.2495C6.42015 33.2642 6.22869 33.4758 6.13919 33.3926C6.08409 33.344 5.9812 33.1529 5.94055 33.1416ZM11.1854 31.5474C10.8454 31.4785 11.2078 31.2561 11.3548 31.4196C11.388 31.4572 11.2739 31.5658 11.1854 31.5474ZM11.8492 19.1168C11.9323 19.0629 12.0153 19.009 12.0982 18.9549C12.0805 19.0021 12.0635 19.0496 12.0471 19.0975C11.9891 19.1187 11.9307 19.1391 11.8719 19.1588C11.8643 19.1448 11.8567 19.1308 11.8492 19.1168Z" fill="#0059FF"/>
</svg>
