<svg width="18" height="40" viewBox="0 0 18 40" fill="none" xmlns="http://www.w3.org/2000/svg">
<path d="M11.8898 33.0037C11.9289 33.0065 11.8772 33.1335 11.9019 33.1636C12.0021 33.2876 11.992 33.3942 12.0794 33.5243C12.2065 33.7268 12.8406 33.9069 12.4301 34.7012C12.4301 34.7012 12.4301 34.7013 12.4301 34.7013C12.4259 34.7091 12.4216 34.7169 12.4172 34.7248C12.3339 34.875 12.1858 35.0077 12.0824 35.1723C11.979 35.3369 11.3814 36.4399 11.2422 36.4421C11.0429 36.4383 10.8721 35.9495 10.7941 35.9111C10.7385 35.8853 10.6118 35.9364 10.536 35.9071C10.2916 35.8115 10.2381 35.6644 9.86124 35.7554C9.89303 35.5699 9.9287 35.3856 9.96945 35.2038C9.82997 35.1821 9.84735 34.9038 9.7905 34.8649C9.74303 34.8327 9.62826 34.9009 9.58083 34.8621C9.52689 34.8188 9.55383 34.6477 9.45592 34.5738C9.29653 34.4518 9.02132 34.6471 8.90644 34.5805C8.78686 34.5102 8.80176 34.2411 8.60911 34.1859C8.56728 34.1924 8.52537 34.1988 8.48337 34.2049C8.42603 34.2677 8.36894 34.3308 8.31211 34.3942C8.2288 34.3502 8.34326 34.217 8.29977 34.1536C8.24882 34.0789 8.09004 34.1369 8.05443 34.086C8.02536 34.0442 8.09282 33.9135 8.04959 33.8653C7.98707 33.7943 7.84311 33.9172 7.78496 33.8943C7.76116 33.8863 7.4662 33.6225 7.45495 33.6044C7.36259 33.4695 7.57625 33.3238 7.53122 33.204C7.40684 32.8727 7.05702 32.6589 6.84418 32.4058C6.74926 32.2934 6.69782 32.1508 6.67662 32.0065C7.36525 31.9238 7.63518 31.2817 6.76925 31.8706C6.83927 31.6699 6.54039 31.6829 6.52542 31.5288C6.51656 31.43 6.6232 31.3149 6.56908 31.1937C6.47244 30.9798 5.99983 30.8862 6.66281 30.5604C6.4442 30.3527 6.61713 30.0458 5.97308 30.1738C5.91178 30.1208 6.21685 29.8235 6.24166 29.7346C6.2632 29.649 6.25115 29.0689 6.2335 28.9818C6.21456 28.8935 6.17578 28.7409 6.09845 28.6872C6.00242 28.6196 5.34078 28.7625 6.03908 28.3618C5.9189 28.1957 5.91948 28.1232 5.95209 27.924C5.95799 27.888 6.06828 27.8491 6.06262 27.8309C6.05076 27.7936 5.94827 27.7563 5.9171 27.693C5.86593 27.5889 6.08062 27.4524 5.72644 27.5783C5.64358 27.5256 5.56075 27.473 5.47794 27.4206C5.53902 27.3735 5.60009 27.3264 5.66115 27.2792C5.57367 27.2651 5.48619 27.2509 5.39874 27.237C5.93085 27.1158 5.53922 26.9457 5.27026 27.1283C5.33309 26.9564 5.39565 26.7847 5.45763 26.6129C6.05112 26.4391 5.42596 26.2898 5.11641 26.4242C5.11171 26.4085 5.107 26.3929 5.10229 26.3773C5.21259 26.1897 5.04336 26.1088 5.09093 25.9097C5.13815 25.7101 5.20003 25.7056 5.45036 25.5609C5.42131 25.5276 5.39216 25.4943 5.363 25.4612C4.55777 25.5259 5.83864 25.0968 5.14866 24.9612C5.56472 24.6769 5.21764 24.4957 5.00784 24.3779C4.98345 24.364 4.89548 24.4 4.85721 24.3843C4.76506 24.3455 4.80602 24.1305 4.52692 24.258C4.58384 24.166 4.64002 24.0731 4.69559 23.9798C4.62381 23.9555 4.55206 23.9319 4.48036 23.909C4.39338 23.949 4.3064 23.9889 4.21942 24.0288C4.47463 23.8018 4.29258 23.7094 4.32882 23.6057C4.33625 23.5847 4.45367 23.5242 4.46446 23.4642C4.47764 23.3937 4.39505 23.3155 4.40078 23.2362C4.25845 23.279 4.11647 23.3227 3.97478 23.3671C3.85041 23.2997 4.17166 23.0823 4.16409 23.0051C4.16296 22.9909 4.02622 22.8017 4.01252 22.7954C3.90464 22.7396 3.63654 22.9276 3.55013 22.6493C3.53463 22.5997 3.60942 22.5047 3.58855 22.4631C3.55175 22.3878 3.20216 22.3282 2.99586 22.4501C3.18995 22.2034 2.94098 22.0665 2.96492 21.9568C2.97243 21.9228 3.12107 21.8039 3.10943 21.7225C3.10835 21.7149 3.10454 21.7078 3.0986 21.7011C2.80225 21.2176 2.74951 20.5466 3.19252 20.1925C3.21741 20.1619 3.18297 20.0261 3.22912 20.0042C3.28669 19.9769 3.42456 20.0586 3.45096 20.0421C3.47534 20.0267 3.38495 19.9317 3.40633 19.9022C3.47693 19.808 3.71018 19.824 3.76827 19.7307C3.85511 19.5907 3.57427 19.3014 3.47867 19.1112C3.51472 19.0937 3.60337 19.0983 3.61797 19.0691C3.80698 18.6984 4.05687 18.2517 4.29211 17.8341C4.39839 17.6522 5.06707 17.287 4.19978 17.154C4.07947 17.0393 4.58483 16.6124 4.62129 16.5127C4.6587 16.4122 4.5367 16.2837 4.56016 16.2015C4.62997 15.9568 4.78991 15.8185 4.75417 15.4772C4.74417 15.39 4.59428 15.253 4.61051 15.2077C4.63045 15.1533 4.81861 15.1459 4.85172 15.0769C4.93 14.9097 4.97193 14.5764 5.05367 14.4176C5.06888 14.3889 5.2211 14.4246 5.28122 14.3956C5.51562 14.2837 5.55903 14.0911 5.07373 13.9745C5.41163 13.8428 5.23032 13.5626 5.28049 13.3562C5.38712 12.9172 5.76108 12.1746 5.70126 11.7277C5.66292 11.4458 5.45082 11.373 5.76345 11.0886C5.83295 11.0257 5.91641 10.9686 6.00041 10.8929C6.19873 10.713 6.66087 10.6694 6.26985 10.3134C6.48972 10.1182 6.49093 9.88435 6.95878 9.87759C6.87481 9.81534 6.791 9.75285 6.70733 9.69009C6.7183 9.65931 6.72929 9.62865 6.74058 9.59747C6.83346 9.62808 6.92628 9.65882 7.01906 9.68968C7.13804 9.48948 6.90352 9.05125 6.99716 8.86922C7.14693 8.56387 7.70651 7.8639 7.99435 7.65802C8.14404 7.54797 7.97438 7.42762 8.38769 7.57567C8.38305 7.52771 8.37867 7.47963 8.37456 7.43145C8.3091 7.36023 8.24396 7.28863 8.17916 7.21664C8.30086 7.02505 8.5746 6.88845 8.70049 6.71774C8.92723 6.40284 9.12677 5.76578 9.54259 5.58956C9.64606 5.54511 9.87309 5.59332 9.94326 5.52424C10.0462 5.42384 9.85612 5.162 9.99725 5.03082C10.2459 4.79565 10.9612 4.7323 11.2058 4.55592C11.2793 4.50118 11.2559 4.37659 11.3056 4.33301C11.5148 4.14989 11.7176 4.05774 11.8887 3.77994C12.2762 3.94754 12.3952 4.33196 12.6128 4.67608C12.7803 4.93489 13.1627 5.54291 13.2607 5.78985C13.3319 5.96211 13.3618 6.20444 13.4448 6.39249C13.3072 6.6134 13.1795 6.47235 12.8972 6.28437C12.6053 6.4328 12.3298 6.61314 12.0685 6.82279C11.9772 6.75149 11.8845 6.6816 11.7905 6.61314C11.7903 6.61295 11.7902 6.61276 11.79 6.61256C11.6009 6.59641 11.7367 6.85867 11.7252 6.95396C11.6201 7.82214 10.443 8.55361 9.96361 9.28068C9.8585 9.42669 9.72021 10.0096 9.50435 10.0418C9.44764 10.0497 9.28923 9.98129 9.267 10.0094C9.22202 10.332 9.18405 10.6592 9.15506 10.9822C8.65318 11.4633 8.61521 12.1753 8.43467 12.8048C7.9412 14.5164 7.59399 16.2754 6.9735 18.024C6.85312 18.3609 6.82211 18.8427 6.61455 19.1547C6.52963 19.2809 6.24772 19.244 6.36433 19.507C6.29441 19.4811 6.2245 19.4551 6.15461 19.4291C6.17293 19.6231 6.28652 19.792 6.21822 19.9893C6.16666 20.1473 5.96743 20.5836 5.86494 20.7063C5.81222 20.7733 5.70463 20.6799 5.66649 20.7497C5.60237 20.8701 5.61928 21.2158 5.49088 21.3962C5.38761 21.5482 5.04452 21.7153 4.95212 21.84C4.9367 21.8616 4.92117 21.8834 4.90544 21.9054L5.01076 20.2139C5.34178 20.4896 5.78254 20.7525 5.96571 21.1677C6.01874 21.2881 5.94635 21.5217 5.97027 21.5532C6.01816 21.6149 6.18197 21.5482 6.2277 21.5831C6.46103 21.7618 6.46936 22.2284 6.57211 22.4607C6.9141 23.2225 7.30327 23.9988 7.53924 24.7589C7.69047 25.2388 7.97513 26.0086 7.98466 26.4744C7.98694 26.5751 7.79599 26.609 7.82056 26.686C7.84781 26.7713 7.9862 26.7781 8.00886 26.8147C8.16677 27.069 8.4829 27.6309 8.43916 27.9242C8.43058 27.9803 8.29893 28.0623 8.30893 28.0911C8.31374 28.1058 8.42226 28.107 8.44731 28.1496C8.66878 28.5246 8.71005 28.8328 8.81584 29.2299C9.01964 29.9919 9.53121 30.7299 9.80568 31.4459C9.86495 31.602 9.66533 31.8502 9.68038 31.8703C9.71231 31.9129 9.9018 31.8404 9.99757 31.9028C10.311 32.1089 10.3947 32.5998 10.6758 32.7827C10.8131 32.8737 11.141 32.8611 11.2783 32.9233C11.3872 32.9753 11.5103 33.2324 11.6234 33.1827C11.6913 33.1533 11.8464 33.0014 11.8898 33.0037ZM6.67064 31C7.00164 30.8953 6.62925 30.7385 6.4957 30.9059C6.4655 30.9436 6.58464 31.0274 6.67064 31ZM4.41004 18.771C4.31752 18.7358 4.22502 18.7005 4.13255 18.6652C4.15839 18.7109 4.18414 18.7565 4.20976 18.802C4.27164 18.8082 4.33361 18.814 4.39567 18.8195C4.40046 18.8034 4.40525 18.7872 4.41004 18.771Z" fill="#0059FF"/>
</svg>
