<svg width="431" height="190" viewBox="0 0 431 190" fill="none" xmlns="http://www.w3.org/2000/svg">
<path d="M268.619 149.909C269.243 149.581 270.092 149.29 270.971 148.971C271.533 148.787 272.193 148.52 272.769 148.199C278.311 144.986 280.645 143.597 285.897 140.274C293.594 135.162 316.752 119.782 318.229 122.218C318.229 122.218 318.229 122.218 318.229 122.218C318.243 122.241 318.254 122.265 318.264 122.291C318.441 122.784 316.735 124.486 316.746 125.165C316.755 125.846 318.94 128.909 316.248 130.832C312.32 133.573 302.156 139.031 300.051 140.504C298.601 141.501 297.006 142.976 295.18 144.276C289.259 148.478 286.081 150.409 280.947 154.802C279.029 155.568 277.07 156.348 274.918 157.003C274.28 157.186 273.664 157.353 273.02 157.525C271.965 158.101 270.687 158.665 269.208 159.137C268.464 159.363 267.7 159.592 266.634 159.695C266.09 159.719 265.434 159.822 264.333 159.374C263.795 159.147 263.194 158.657 262.865 158.128C262.528 157.602 262.412 157.139 262.347 156.79C262.146 155.403 262.458 154.693 262.608 154.107C262.785 153.536 262.95 153.105 263.069 152.757C263.685 151.016 263.748 149.953 264.474 148.292C265.29 146.437 266.982 143.846 268.507 140.564C268.778 139.982 268.992 139.495 269.205 138.995C271.206 134.633 271.258 133.306 272.956 130.496C274.946 127.287 278.789 122.913 281.318 118.92C281.581 118.379 281.847 117.835 282.113 117.293C281.658 117.483 281.201 117.676 280.746 117.867C282.076 115.883 283.1 115.376 284.416 113.639C285.966 111.595 286.364 110.256 287.398 108.886C288.249 107.758 289.712 106.463 290.777 104.998C292.347 102.84 291.534 102.983 292.304 101.767C292.656 101.28 298.463 92.6844 298.686 92.2093C299.832 90.4707 300.586 89.5642 301.2 88.8802C301.536 88.4825 301.793 88.2186 302.07 87.8343C302.198 87.663 302.309 87.5047 302.399 87.3533C302.483 87.2424 302.518 87.0654 302.472 87.4563C302.47 87.4945 302.466 87.5604 302.466 87.6677C302.467 87.7671 302.472 87.8987 302.495 88.0772C302.529 88.3281 302.597 88.6745 302.784 89.1074C302.883 89.331 302.983 89.5306 303.183 89.8222C303.391 90.1244 303.666 90.431 303.989 90.6935C304.642 91.2356 305.433 91.5078 305.948 91.5891C306.489 91.6834 306.945 91.643 307.176 91.6079C307.398 91.5744 307.557 91.531 307.671 91.4948C307.91 91.4153 307.927 91.3934 307.95 91.3827C307.963 91.3719 307.835 91.4416 307.678 91.5493C307.539 91.642 307.323 91.8017 307.149 91.9378C306.37 92.5474 305.487 93.3573 304.641 94.1778C302.939 95.8324 301.241 97.6591 299.584 99.4818C296.222 103.157 293.179 106.84 289.491 110.433C288.849 111.02 288.391 111.5 287.196 112.313C286.676 112.651 286.13 112.991 285.323 113.359C284.46 113.638 283.562 114.432 280.595 113.929C279.104 113.651 277.387 112.315 276.758 111.21C276.059 110.094 275.89 109.273 275.763 108.652C275.55 107.412 275.606 106.688 275.643 105.995C275.866 103.418 276.364 101.723 276.832 99.9247C277.164 107 282.247 92.9077 277.886 97.4977C278.142 96.7973 278.361 96.1322 278.557 95.4713C279.579 92.0393 279.797 89.0887 280.9 85.5704C281.749 82.8721 282.693 81.0903 283.777 77.2134C285.707 70.3005 286.72 62.4394 289.419 61.077C290.541 56.4381 291.998 52.1476 292.776 48.8737C292.786 48.8242 292.789 48.7919 292.779 48.8143C292.772 48.8609 292.734 48.8376 292.7 49.3726C292.701 49.545 292.68 49.6762 292.765 50.1645C292.816 50.4071 292.861 50.6332 293.064 51.0766C293.287 51.5527 293.731 52.1962 294.458 52.6652C295.168 53.137 296.05 53.3178 296.683 53.2908C296.839 53.2869 297.006 53.2703 297.116 53.2544C297.208 53.2415 297.295 53.226 297.376 53.2089C297.539 53.1745 297.681 53.1338 297.807 53.0917C298.057 53.0072 298.243 52.9179 298.388 52.8409C298.486 52.7888 298.567 52.7404 298.636 52.6963C298.923 52.5079 298.983 52.4445 299.055 52.3869C299.124 52.3277 299.143 52.3109 299.164 52.2942C299.256 52.2254 299.08 52.4751 298.984 52.6596C298.756 53.071 298.53 53.5371 298.348 53.9845C297.983 54.8837 297.781 55.7285 297.783 56.4922C296.903 58.0201 294.026 61.0932 292.282 63.2505C291.959 63.6448 291.669 64.0186 291.439 64.3439C290.11 66.1838 280.522 80.9725 279.009 83.4252C277.491 85.8765 274.853 90.1747 273.741 92.3407C272.342 95.0584 272.965 97.9328 268.127 101.349C265.012 106.842 263.78 108.737 260.469 113.605C259.863 114.494 259.516 114.39 259.18 114.934C258.785 115.574 258.297 116.534 257.737 117.588C257.323 118.362 256.885 119.163 256.391 119.978C254.434 123.206 252.641 124.621 253.821 124.872C252.629 127.083 251.435 129.268 250.134 131.491C249.446 132.105 248.749 132.716 248.029 133.327C247.384 134.591 246.714 135.874 245.698 137.255C245.753 136.309 244.87 136.994 243.597 137.952C242.58 138.713 241.347 139.644 240.251 140.292C239.721 140.616 239.197 140.866 239.12 141.022C239.029 141.176 239.52 141.263 240.385 141.108C239.761 141.295 239.101 141.512 237.892 141.52C237.286 141.506 236.459 141.445 235.436 140.93C234.404 140.441 233.428 139.293 233.092 138.345C231.538 132.135 232.747 128.673 233.143 124.352C234.898 125.135 234.24 113.784 233.162 114.647C233.213 114.098 233.264 113.557 233.314 113.011C234.218 108.29 234.235 103.903 234.674 98.2774C235.01 92.6864 235.059 93.2717 235.779 91.51C235.758 91.3737 235.737 91.2393 235.715 91.1066C235.636 90.6455 235.506 90.1722 235.373 89.8894C235.314 89.7544 235.23 89.6659 235.299 89.7766C235.339 89.8301 235.431 89.9524 235.673 90.0933C235.907 90.236 236.327 90.3383 236.643 90.3052C236.989 90.3227 237.192 90.2659 237.304 90.2559C236.12 92.1911 234.938 93.2765 233.23 94.3999C231.333 95.3797 229.935 97.8672 223.706 100.028C223.391 100.067 222.871 100.213 221.969 99.7673C221.542 99.5454 221.146 99.1287 220.947 98.7564C220.743 98.3868 220.672 98.0693 220.636 97.8446C220.537 96.9496 220.673 96.7034 220.725 96.3963C220.863 95.8424 221.002 95.4917 221.15 95.1208C221.353 94.9083 221.56 94.6992 221.777 94.4829C222.607 93.8884 223.333 92.138 226.113 91.6108C228.331 91.5249 231.228 90.9385 234.282 92.9873C235.339 93.836 236.81 94.9214 236.953 97.3148C236.945 99.7537 236.397 101.562 235.91 103.244C235.665 104.02 235.931 104.132 235.587 105.158C234.813 107.717 231.168 113.117 232.031 113.394C230.613 115.16 229.13 116.862 227.615 118.5C227.534 118.635 227.453 118.771 227.372 118.907C226.531 120.315 225.707 121.698 224.862 123.103C225.098 123.266 225.335 123.429 225.571 123.592C222.667 125.892 219.608 130.615 217.722 132.688C217.354 133.09 216.96 132.958 215.825 134.251C214.493 135.769 212.268 138.779 210.601 140.567C210.328 141.577 210.05 142.578 209.732 143.6C207.191 146.564 205.997 147.27 202.451 148.58C201.94 148.685 201.407 148.771 200.825 148.831C200.602 148.822 198.774 149.234 196.495 148.167C195.488 147.751 193.865 146.425 193.339 144.886C192.77 143.386 192.832 142.183 192.885 141.308C192.952 140.413 193.055 139.731 193.066 139.617C193.663 135.8 192.122 136.288 195.989 126.161C196.708 124.381 197.604 123.076 198.283 121.491C199.423 118.675 202.626 110.091 202.358 109.125C204.934 106.06 208.597 97.7762 212.124 94.4626C212.284 94.3218 212.45 94.1944 212.636 94.0719C212.777 93.9854 213.125 93.7436 213.597 93.5382C213.838 93.4338 214.123 93.3281 214.488 93.2459C214.671 93.2053 214.874 93.1712 215.101 93.1521C215.369 93.1255 215.824 93.1177 216.253 93.1956C217.138 93.3285 218.138 93.8938 218.699 94.5753C218.843 94.7425 218.966 94.9123 219.07 95.0781C219.158 95.2203 219.194 95.294 219.247 95.3993C219.344 95.5973 219.417 95.7867 219.474 95.9648C219.693 96.6492 219.688 97.304 219.656 97.5672C219.625 97.8441 219.575 98.1081 219.512 98.3872C219.443 98.6996 219.379 98.8821 219.308 99.1109C219.236 99.3387 219.156 99.5943 219.06 99.8979C218.954 100.23 218.793 100.692 218.658 101.045C217.793 103.446 215.837 108.639 214.458 111.125C213.033 113.707 212.082 114.409 211.42 115.534C210.782 116.608 210.55 117.795 209.671 119.265C206.917 123.84 203.672 127.485 200.892 130.794C198.857 133.178 197.042 135.531 194.496 137.636C193.188 138.672 191.656 139.707 189.467 140.16C187.261 140.674 184.376 139.943 182.641 138.555C180.94 136.984 180.339 135.408 179.604 133.915C179.517 133.732 179.433 133.546 179.35 133.357C177.777 128.529 178.651 126.242 178.792 123.23C179.088 120.375 179.475 117.626 179.775 114.904C180.073 112.19 180.306 109.505 180.229 107.038C180.223 104.614 179.463 102.302 179.052 102.137C179.787 102.672 180.182 102.558 180.188 102.567C180.216 102.554 180.035 102.575 179.837 102.651C179.349 102.84 179.178 102.919 178.951 103.052C178.736 103.181 178.501 103.359 178.244 103.599C177.725 104.081 177.165 104.774 176.631 105.543C175.458 107.237 174.328 108.945 173.242 110.644C169.172 116.656 159.496 132.343 164.04 129.153C163.756 130.105 162.162 133.166 160.309 136.741C159.378 138.53 158.371 140.47 157.39 142.345C156.896 143.285 156.416 144.198 155.917 145.117C155.676 145.559 155.429 146.01 155.132 146.516C155.067 146.625 154.982 146.769 154.888 146.92C154.842 146.994 154.795 147.068 154.746 147.142C154.702 147.209 154.636 147.309 154.546 147.437C154.459 147.561 154.361 147.693 154.225 147.857C154.185 147.904 154.172 147.919 154.095 148.005C154.013 148.097 153.915 148.199 153.787 148.318C153.519 148.548 153.181 148.891 152.292 149.225C152.179 149.265 152.058 149.302 151.926 149.336C151.859 149.353 151.791 149.368 151.72 149.382C151.684 149.39 151.648 149.396 151.611 149.403C151.552 149.413 151.485 149.423 151.419 149.431C150.895 149.5 150.228 149.467 149.587 149.251C148.25 148.814 147.47 147.771 147.179 147.16C147.018 146.837 146.933 146.572 146.873 146.351C146.822 146.148 146.826 146.15 146.807 146.059C146.779 145.912 146.763 145.787 146.751 145.676C146.71 145.236 146.731 144.988 146.747 144.764C146.959 142.875 147.136 141.288 147.214 140.489C147.557 136.827 147.504 133.843 147.982 130.965C149.499 122.32 151.345 116.476 154.188 106.328C154.6 104.882 154.919 103.326 155.225 101.957C155.454 100.908 155.677 99.9587 155.914 99.2998C156.564 97.4938 157.765 95.7321 158.649 93.4174C160.741 87.8885 164.495 77.5638 166.663 72.3377C167.06 71.3773 167.625 71.2201 168.307 69.8959C170.946 64.7704 173.376 58.7736 171.558 59.2655C173.096 56.4897 174.324 53.7477 175.53 50.9512C176.413 48.9756 176.999 47.2982 178.401 44.878C178.522 44.6871 178.624 44.5273 178.801 44.2868C178.892 44.1643 178.991 44.038 179.105 43.9036C179.252 43.7333 179.428 43.5416 179.668 43.327C179.818 43.1934 180.025 43.0236 180.282 42.8538C180.412 42.768 180.558 42.6795 180.727 42.591C180.947 42.4756 181.245 42.3412 181.591 42.236C181.939 42.1298 182.353 42.0445 182.825 42.0242C183.334 41.9963 184.059 42.0761 184.678 42.3035C186.025 42.8038 186.686 43.5888 187.102 44.1811C187.538 44.8522 187.609 45.1281 187.729 45.4536C187.83 45.7576 187.888 46.0313 187.916 46.1789C187.98 46.5158 188.003 46.8116 188.014 46.9816C188.052 47.7566 188.009 48.0985 187.981 48.4849C187.949 48.8562 187.909 49.1728 187.869 49.468C187.702 50.6599 187.494 51.6799 187.261 52.7015C187.196 52.9867 187.129 53.2724 187.059 53.5636C185.879 58.4076 184.238 64.6069 181.31 70.9687C175.926 82.9356 167.903 95.0186 163.132 101.892C159.07 107.744 159.055 108.674 153.543 114.675C152.785 115.485 151.911 116.401 150.91 117.424C149.085 119.289 147.226 121.106 144.986 123.34C139.727 128.581 134.178 132.643 131.223 137.722C128.473 140.235 125.999 142.57 123.501 144.648C120.527 147.106 117.722 149.261 114.558 150.892C114.166 151.596 113.762 152.299 113.325 153.009C112.459 153.666 111.567 154.312 110.579 154.95C110.114 154.9 109.646 154.844 109.186 154.774C107.512 155.717 105.39 156.836 102.644 157.135C96.6468 157.814 89.8878 159.234 83.548 156.882C81.615 156.144 77.5631 153.907 76.6808 149.1C73.4033 136.091 78.1349 114.827 81.9015 107.351C82.177 106.702 82.4161 106.126 82.6264 105.611C83.9255 102.438 83.8391 101.796 85.8377 99.849C86.1921 98.7502 86.5522 97.6503 86.9192 96.5488C86.9408 95.7731 86.9652 94.9967 86.9934 94.2175C89.5941 88.0898 93.3758 81.1011 96.3982 75.4876C97.05 74.269 97.7453 72.9771 98.4832 71.6345C103.852 61.8821 110.513 49.0125 116.458 40.5671C118.173 38.1521 120.646 35.431 122.717 33.005C123.258 32.3805 123.76 31.8035 124.345 31.2331C125.052 30.6835 125.389 29.8694 127.795 29.4426C129.642 29.0762 131.265 28.3554 135.412 28.7513C137.845 29.095 141.853 29.7825 144.778 33.7452C148.393 39.5931 147.863 45.4116 146.886 50.617C145.866 55.3812 144.846 59.9111 143.958 63.2854C143.271 65.8575 143.188 67.2023 142.416 69.0869C141.217 71.6674 139.488 75.694 134.212 76.5162C132.05 76.8901 129.102 75.4048 128.128 73.4341C127.098 71.5599 127.08 70.132 127.045 68.9137C127.011 66.3128 126.963 63.7325 126.881 60.939C128.22 53.3663 129.45 54.1299 130.839 51.9043C131.881 50.1523 134.666 45.3198 135.591 44.4147C135.912 43.8926 136.167 44.7465 136.44 45.0825C136.711 45.4932 136.994 45.8577 137.354 45.5113C136.63 54.2053 135.984 57.7763 134.817 64.939C134.774 66.3176 134.743 67.6716 134.72 69.0601C134.693 69.5557 134.851 69.9222 134.742 69.6669C134.684 69.549 134.455 69.2778 134.162 69.1366C133.865 68.991 133.646 68.9731 133.447 68.9899C133.563 68.9687 133.703 68.9487 134.084 68.5724C134.447 68.2066 134.875 67.5685 135.252 66.8223C136.017 65.3125 136.627 63.4366 137.144 61.5183C138.176 57.6457 138.895 53.5116 139.614 49.3508C139.898 47.6933 140.021 46.0362 139.948 44.431C140.238 43.3839 140.446 42.3065 140.541 41.215C140.542 41.2149 140.542 41.2147 140.543 41.2145C140.324 39.599 139.736 38.4132 139.193 37.852C138.272 36.955 137.189 36.9219 135.914 36.7087C133.917 36.3987 131.34 36.5862 128.283 36.9316C128.59 36.916 128.827 36.8536 128.966 36.8089C129.096 36.7675 129.177 36.731 129.223 36.7106C129.303 36.6751 129.279 36.6938 129.232 36.7415C129.123 36.8464 128.921 37.0545 128.712 37.2958C128.284 37.7883 127.806 38.4125 127.32 39.0871C126.37 40.4096 125.382 41.9224 124.395 43.4841C122.418 46.6207 120.41 49.9975 118.333 53.5236C114.198 60.5606 109.871 68.0755 105.507 75.611C99.1848 86.5092 94.0236 98.1036 89.7631 108.455C87.8262 113.114 86.3999 117.589 85.4652 121.652C83.9987 126.465 83.3586 140.472 84.9967 147.492C85.031 147.762 85.0786 147.902 85.167 148.078C85.2536 148.248 85.3968 148.431 85.5235 148.584C85.9135 149.022 85.9067 149.611 86.7732 149.955C91.1573 151.187 96.74 150.592 102.122 150.05C105.225 149.669 109.434 145.791 113.107 142.529C114.754 141.227 116.391 139.873 118.034 138.485C128.183 129.683 137.535 119.052 146.565 108.57C150.553 103.898 154.328 99.1116 157.866 94.2073C163.975 85.7589 169.234 76.8101 173.486 67.363C175.727 62.412 177.263 57.0132 178.592 51.4784C178.83 50.4882 179.052 49.5021 179.22 48.581C179.301 48.134 179.372 47.6625 179.388 47.412C179.391 47.3598 179.39 47.3165 179.39 47.3616C179.39 47.3921 179.388 47.4179 179.401 47.5463C179.422 47.6742 179.414 47.827 179.602 48.334C179.681 48.526 179.879 49.018 180.397 49.5435C180.81 50.0406 182.114 50.7099 183.075 50.6374C183.859 50.6254 184.415 50.3839 184.724 50.2225C184.966 50.094 185.126 49.9771 185.245 49.8832C185.627 49.5616 185.6 49.535 185.625 49.5174C185.603 49.5406 185.328 49.9899 185.135 50.3601C184.927 50.7491 184.703 51.1972 184.491 51.6342C184.061 52.5248 183.638 53.4549 183.215 54.4072C176.166 70.888 169.703 88.0053 163.761 104.93C159.198 118.201 155.719 131.551 154.992 145.375C154.996 145.302 155.01 145.178 154.987 144.885C154.981 144.811 154.971 144.725 154.956 144.622C154.948 144.571 154.938 144.515 154.926 144.455C154.92 144.424 154.913 144.393 154.905 144.36C154.898 144.327 154.893 144.301 154.863 144.189C154.752 143.82 154.583 143.247 153.943 142.526C153.341 141.8 151.987 141.141 150.904 141.184C150.641 141.183 150.376 141.212 150.18 141.247C150.049 141.271 149.927 141.299 149.813 141.33C149.586 141.392 149.393 141.466 149.228 141.539C148.898 141.688 148.676 141.834 148.505 141.957C148.169 142.205 148.022 142.371 147.915 142.487C147.785 142.635 147.758 142.676 147.723 142.723C147.632 142.856 147.719 142.73 147.784 142.609C147.841 142.507 147.92 142.36 148.005 142.197C148.077 142.059 148.157 141.902 148.245 141.727C148.564 141.092 148.917 140.357 149.244 139.674C149.918 138.263 150.594 136.829 151.281 135.386C152.642 132.525 154.037 129.644 155.472 126.786C159.466 118.811 164.429 109.182 169.919 101.041C170.677 99.9215 171.517 98.8037 172.667 97.7069C173.734 96.6257 175.625 95.5193 176.789 95.1302C177.48 94.8607 178.222 94.6428 179.093 94.5318C180.4 94.3864 182.242 94.4001 184.053 95.8359C188.503 100.614 187.428 103.665 188.16 109.287C187.935 109.352 187.71 109.415 187.485 109.479C187.567 115.133 187.431 118.684 186.923 124.432C186.853 125.276 186.768 126.37 186.746 127.509C186.736 128.07 186.743 128.649 186.788 129.161C186.821 129.653 186.951 130.121 186.931 130.031C187.371 131.047 187.903 131.763 188.197 131.978C188.335 132.083 188.346 132.07 188.367 132.079C188.385 132.084 188.49 132.1 188.712 132.052C189.743 131.862 191.525 130.513 192.385 129.742C193.844 128.416 193.629 129.218 194.952 127.785C197.27 125.324 201.128 118.748 203.57 114.471C205.852 110.669 209.756 104.079 210.937 100.964C211.321 99.9965 211.765 98.7594 211.861 98.2213C211.927 97.8978 211.951 97.69 211.95 97.6055C211.949 97.5951 211.944 97.6097 211.941 97.6609C211.939 97.6866 211.938 97.7215 211.939 97.7682C211.941 97.8435 211.948 97.9602 211.976 98.1245C212.004 98.2893 212.053 98.5074 212.167 98.7942C212.225 98.9372 212.3 99.0973 212.403 99.271C212.441 99.3366 212.543 99.4995 212.661 99.6504C212.78 99.8031 212.921 99.9598 213.087 100.111C213.736 100.741 214.842 101.12 215.616 101.093C216.06 101.085 216.192 101.048 216.393 101.01C216.578 100.97 216.733 100.921 216.865 100.873C217.378 100.679 217.599 100.487 217.65 100.456C217.724 100.402 217.756 100.374 217.766 100.368C217.78 100.362 217.728 100.422 217.673 100.495C217.538 100.669 217.387 100.882 217.21 101.144C216.517 102.178 215.806 103.418 215.106 104.695C213.732 107.217 212.398 109.924 211.114 112.64C208.555 118.078 206.124 123.685 203.923 129.213C202.551 132.578 200.728 136.789 200.524 137.823C200.06 139.889 200.495 140.563 200.423 141.769C200.42 141.833 200.418 141.896 200.416 141.958C200.404 142.298 200.519 142.477 200.421 142.132C200.371 141.972 200.209 141.695 200.033 141.522C199.861 141.344 199.725 141.289 199.845 141.347C199.641 141.257 199.77 141.374 200.106 141.278C199.596 141.47 199.768 141.452 199.889 141.357C200.034 141.262 200.265 141.085 200.49 140.897C200.962 140.502 201.491 140.002 202.024 139.47C203.076 138.421 204.166 137.229 205.193 136.068C207.261 133.724 209.182 131.385 210.734 129.387C214.403 124.65 218.031 119.735 221.674 114.742C225.753 109.177 230.093 101.914 230.633 97.2091C230.628 97.8844 230.875 98.1954 230.858 98.1789C230.86 98.178 230.7 97.9957 230.464 97.815C230.68 97.7868 228.858 97.3915 227.013 97.7472C227.342 97.7025 227.652 97.5688 227.814 97.4669C227.982 97.3634 228.028 97.3051 228.013 97.323C227.973 97.3587 227.753 97.6499 227.448 98.1338C227.335 98.3065 227.229 98.5111 227.225 98.5265C227.224 98.5041 227.262 98.5389 227.363 97.988C227.385 97.8304 227.414 97.6341 227.398 97.26C227.368 96.8938 227.351 96.3164 226.845 95.409C226.374 94.4819 225.065 93.589 224.217 93.4388C223.359 93.2433 222.908 93.3295 222.587 93.373C223.949 93.1603 225.399 92.2039 227.057 90.502C228.804 88.8434 230.146 86.5382 233.741 84.2132C234.454 83.7854 235.814 83.225 237.446 83.5395C239.072 83.8618 240.038 84.7987 240.549 85.4081C241.548 86.6843 241.723 87.4702 241.97 88.217C242.18 88.9432 242.299 89.5969 242.384 90.2676C244.031 104.009 239.352 124.793 240.842 135.172C240.587 134.341 239.345 133.314 238.634 133.197C237.911 133.012 237.655 133.102 237.529 133.113C237.305 133.165 237.504 133.135 237.688 133.049C238.095 132.876 238.653 132.538 239.139 132.182C239.74 131.757 240.371 131.103 241.02 130.348C242.812 128.175 242.832 129.075 244.284 126.999C245.883 124.653 246.403 123.11 247.108 121.965C248.395 119.862 250.054 117.101 251.918 113.975C257.099 105.279 263.737 94.0312 267.386 88.5765C268.33 87.1643 269.353 86.3474 269.879 85.4757C270.145 85.0362 270.483 83.8816 271.291 82.4856C276.401 73.6621 280.674 66.6498 285.455 59.0339C287.378 55.9919 289.334 52.8721 291.67 49.4543C292.021 48.9482 292.374 48.4435 292.8 47.8851C293.044 47.5779 293.187 47.3496 293.752 46.7818C293.85 46.6882 293.961 46.5863 294.109 46.4695C294.209 46.3897 294.332 46.2984 294.49 46.1988C294.576 46.1458 294.639 46.1069 294.78 46.0329C294.938 45.9511 295.127 45.864 295.372 45.7836C295.494 45.7435 295.63 45.7055 295.783 45.6734C295.859 45.6573 295.94 45.6428 296.025 45.6306C296.116 45.617 296.275 45.5997 296.415 45.5946C296.989 45.5649 297.766 45.6949 298.437 46.0791C299.123 46.4591 299.615 47.0394 299.879 47.5109C300.168 48.0424 300.202 48.2406 300.276 48.5052C300.336 48.749 300.361 48.9481 300.375 49.1116C300.386 49.238 300.39 49.3469 300.39 49.4439C300.39 49.6381 300.378 49.7856 300.369 49.8822C300.321 50.31 300.277 50.4499 300.239 50.6151C300.203 50.765 300.171 50.8775 300.143 50.9745C295.647 65.7668 291.225 81.7199 286.916 97.7578C286.275 100.157 285.629 102.596 285.215 104.81C285.115 105.356 285.034 105.883 284.994 106.326C284.973 106.551 284.965 106.742 284.967 106.867C284.964 106.98 284.996 107.051 284.939 106.815C284.905 106.696 284.849 106.481 284.625 106.129C284.422 105.798 283.95 105.304 283.383 105.04C282.167 104.516 281.653 104.803 281.543 104.801C281.335 104.879 281.785 104.692 282.139 104.45C285.683 101.539 290.451 96.182 294.678 92.0256C299.053 87.6199 303.024 85.3534 304.365 84.7268C304.512 84.6463 304.661 84.5694 304.814 84.496C304.965 84.4244 305.128 84.3493 305.371 84.2632C305.601 84.1822 305.855 84.1091 306.156 84.0613C306.537 84.0042 307.05 83.9832 307.63 84.1388C308.215 84.2764 309.003 84.7575 309.431 85.3396C309.847 85.89 309.989 86.302 310.107 86.7244C310.218 87.1864 310.231 87.3673 310.255 87.6265C310.274 87.8701 310.277 88.1007 310.269 88.3282C310.068 90.6354 309.515 91.8816 308.376 94.0624C301.648 105.657 290.398 118.381 283.653 128.368C280.966 132.315 277.546 137.992 275.758 142.192C275.289 143.296 274.847 144.319 274.414 145.288C273.737 146.801 272.657 149.026 271.596 151.316C271.07 152.455 270.543 153.621 270.137 154.644C269.936 155.15 269.768 155.624 269.687 155.921C269.647 156.062 269.635 156.155 269.647 156.087C269.655 156.033 269.693 155.725 269.605 155.286C269.542 154.965 269.31 154.107 268.501 153.314C267.688 152.521 266.804 152.292 266.41 152.224C265.984 152.155 265.826 152.176 265.745 152.174C265.664 152.176 265.666 152.173 265.69 152.162C265.815 152.115 266.181 151.967 266.35 151.856C267.172 151.349 267.414 150.542 268.619 149.909ZM285.435 73.214C286.206 74.2873 287.802 65.5979 286.356 68.6126C286.023 69.3106 285.24 72.912 285.435 73.214ZM181.839 110.784C181.539 110.846 181.238 110.907 180.938 110.968C181 112.068 181.031 113.194 181.045 114.328C181.284 113.716 181.518 113.097 181.744 112.485C181.783 111.911 181.815 111.353 181.839 110.784Z" fill="#0059FF"/>
<path d="M54.2616 155.094C54.5209 155.081 54.762 155.541 55.0455 155.637C56.2362 156.052 56.6074 156.441 57.7479 157.041C58.4498 157.417 60.2992 158.204 61.5661 159.559C61.6037 159.587 61.7042 159.686 61.7405 159.716C62.9921 161.188 63.3782 162.666 62.1969 163.532C62.1969 163.532 62.1968 163.532 62.1967 163.532C62.1759 163.548 62.1546 163.565 62.1328 163.581C61.7205 163.889 61.0569 163.956 60.5677 164.277C60.0826 164.605 57.1483 166.953 56.7312 166.779C56.4173 166.633 56.2648 166.152 56.0786 165.678L56.1956 165.784C56.077 165.428 55.9707 165.122 55.859 165.076C55.7042 165.014 55.3649 165.217 55.1407 165.176C54.4094 165.051 54.0112 164.658 52.984 165.326C52.8073 164.767 52.6002 164.208 52.3611 163.647C51.8701 163.761 51.2804 162.978 50.9929 162.958C50.7512 162.94 50.5321 163.292 50.2894 163.266C50.0066 163.236 49.6593 162.75 49.1248 162.726C48.2687 162.69 47.9724 163.67 47.4436 163.722C46.9124 163.779 46.1645 163.125 45.4366 163.394C45.34 163.494 45.243 163.594 45.1456 163.694C45.1755 163.951 45.2048 164.207 45.2333 164.464C44.8867 164.539 44.8011 164.011 44.482 163.964C44.1234 163.911 43.8807 164.375 43.6309 164.345C43.4213 164.32 43.1961 163.902 42.9298 163.898C42.5406 163.891 42.5657 164.462 42.3448 164.546C42.2616 164.577 40.6923 164.737 40.6154 164.736C39.9621 164.698 39.953 163.921 39.4454 163.808C39.1435 163.743 38.8311 163.713 38.5109 163.708C38.0692 163.64 36.9349 163.348 36.564 163.099C35.2165 162.36 34.3516 161.138 33.9289 160.251C33.5063 159.383 33.3248 158.681 33.1825 158.125C32.9126 156.998 32.8098 156.166 32.7613 155.448C32.7135 154.628 32.8558 153.861 33.0749 153.202C34.8858 154.519 36.7427 152.463 33.5547 152.845C34.1011 152.186 33.3639 151.536 33.6218 150.885C33.7882 150.475 34.266 150.245 34.3656 149.645C34.5413 148.572 33.5612 147.195 35.7861 147.304C35.638 145.997 36.6198 145.095 34.7838 144.305C34.726 143.962 36.0102 143.383 36.2291 143.05C36.4367 142.754 37.3912 140.274 37.4805 139.873C37.5775 139.458 37.7227 138.734 37.6068 138.357C37.4658 137.876 35.5117 137.289 37.9622 136.84C37.903 135.893 38.0124 135.586 38.3954 134.766C38.4643 134.62 38.8143 134.646 38.8261 134.556C38.8496 134.371 38.632 134.023 38.6411 133.684C38.6555 133.132 39.4231 132.91 38.2967 132.84C38.1501 132.462 38.0032 132.074 37.8534 131.701C38.083 131.6 38.3126 131.498 38.5421 131.395C38.3264 131.179 38.1103 130.963 37.8938 130.747C39.495 131.136 38.6692 129.687 37.6949 130.037C37.9523 129.618 38.2082 129.192 38.4624 128.76C38.6051 128.513 38.7474 128.268 38.8892 128.025C40.7287 128.282 39.2303 126.484 38.2132 126.549C38.2211 126.469 38.2286 126.392 38.2366 126.309C38.7839 125.634 38.4316 124.955 38.8227 124.123C39.2141 123.278 39.3871 123.379 40.2558 123.174C40.221 122.964 40.1858 122.756 40.1503 122.55C37.8844 121.342 41.9168 121.773 40.2265 119.842C41.7248 119.344 41.0227 117.848 40.6084 116.887C40.5604 116.776 40.2755 116.765 40.1924 116.617C39.9939 116.244 40.383 115.346 39.4622 115.356C39.7352 115.054 40.0072 114.736 40.2775 114.429C40.1137 114.174 39.9491 113.907 39.7832 113.656C39.4961 113.656 39.209 113.656 38.9219 113.655C39.9042 113.144 39.5233 112.35 39.7496 111.95C39.7956 111.871 40.1916 111.846 40.2944 111.604C40.4167 111.309 40.2831 110.782 40.3917 110.446C39.9476 110.332 39.5031 110.223 39.0585 110.121C38.7897 109.559 39.9284 109.278 39.9906 108.932C40.0057 108.858 39.8064 107.779 39.769 107.739C39.5106 107.343 38.5964 107.472 38.5471 106.572C38.5431 106.547 38.5394 106.522 38.5359 106.497C38.4994 106.227 38.7692 105.929 38.7168 105.703C38.6232 105.266 37.5391 104.503 36.8663 104.78C37.2276 104.473 37.2269 104.159 37.2302 104.07C37.2175 103.961 37.3318 104.164 37.5522 104.169C37.6846 104.167 38.0222 103.731 38.3205 103.743C38.417 103.746 38.5491 103.842 38.7037 103.93C38.4291 103.992 38.057 104.105 37.8395 104.035C37.4628 103.911 37.3564 103.421 37.1752 103.37C37.0023 103.323 36.8052 103.694 36.5577 103.67C36.1718 103.629 35.8027 103.437 35.4237 103.236C35.2344 103.136 35.044 103.034 34.8271 102.941C34.5897 102.838 34.4334 102.796 33.8848 102.621C33.7675 102.579 33.6754 102.55 33.4498 102.441C33.2613 102.322 32.9379 102.265 32.3465 101.511C32.0128 101.071 31.7043 100.237 31.8338 99.4223C31.8856 99.0345 32.0349 98.6644 32.1556 98.446C32.2625 98.2479 32.376 98.0897 32.483 97.9603C32.5903 97.8308 32.6916 97.7292 32.7844 97.6448C32.8514 97.5834 32.9117 97.533 32.9695 97.4874C33.0846 97.3967 33.1844 97.3291 33.2737 97.2725C34.3184 96.4637 34.5636 95.4347 34.8714 94.7974C35.0313 94.8092 35.251 94.9799 35.367 94.927C35.7653 94.7522 36.0105 94.5998 36.0515 94.6009C37.0755 93.7537 38.2159 92.5262 39.2568 91.3074C39.9301 90.548 42.644 89.0842 40.0588 88.3385C39.8589 87.8135 42.1244 86.0057 42.3867 85.5546C42.656 85.1077 42.4471 84.5256 42.6401 84.1614C43.2172 83.0696 43.9227 82.4683 44.2744 80.9362C44.3603 80.5467 44.0719 79.91 44.1838 79.7094C44.3181 79.4717 44.9284 79.4535 45.1272 79.1434C45.5923 78.4141 46.168 76.9029 46.6287 76.1946C46.7122 76.0693 47.1534 76.2336 47.3815 76.1063C48.2771 75.6001 48.6537 74.7348 47.2432 74.2159C48.4936 73.611 48.2444 72.3713 48.6437 71.4531C48.9665 70.7155 49.4429 69.8034 49.943 68.8075C50.772 67.1564 51.6419 65.3721 51.814 64.1443C51.9897 62.9018 51.3751 62.6315 52.6753 61.3251C52.9632 61.0365 53.2922 60.7664 53.6395 60.4161C54.4569 59.5912 56.0162 59.2493 55.0652 57.8261C55.9633 56.9089 56.1612 55.9152 57.7098 55.6866C57.4859 55.4522 57.2621 55.2178 57.0383 54.9834C57.0998 54.8464 57.1612 54.7096 57.2227 54.5728C57.5038 54.6638 57.7849 54.7548 58.066 54.846C58.6239 53.9272 58.1812 52.1649 58.6068 51.3593C59.3156 50.0094 61.546 46.736 62.5769 45.634C63.1217 45.0508 62.5889 44.7225 63.9307 44.9345C63.9336 44.7387 63.9357 44.5445 63.9371 44.3521C63.7386 44.1265 63.5418 43.8979 63.3456 43.6684C63.6462 43.0898 64.1662 42.5206 64.6082 41.9735C64.8411 41.6815 65.0441 41.4119 65.2009 41.1225C66.0512 39.5992 66.5162 36.9502 68.5245 35.254C69.0374 34.8307 70.079 34.5753 70.7642 34.0989C71.7453 33.4504 71.8881 32.3073 73.459 31.9809C73.8735 31.9075 74.2954 31.8942 74.6808 31.9193C76.0964 32.0768 78.0694 32.7595 79.1364 32.6481C79.5188 32.6086 79.6794 32.2445 79.9427 32.1968C81.0416 31.994 81.9428 31.997 82.9988 31.4202C84.1634 32.3189 84.0821 33.5134 84.4487 34.7091C84.7293 35.6113 85.5516 37.706 85.6497 38.5011C85.7245 39.0589 85.4452 39.7771 85.5547 40.391C84.2886 40.889 83.7201 40.3625 82.6366 39.5232C80.6613 39.6061 78.685 39.7163 76.7055 39.8476C76.5112 39.5216 76.3082 39.1961 76.1137 38.8704C76.1137 38.8696 76.1137 38.8689 76.1136 38.8682C75.6215 38.6503 75.3314 38.9158 75.08 39.1979C74.9726 39.3632 74.8991 39.5356 74.8337 39.6164C74.6973 39.778 74.6663 39.9252 74.7512 40.0102C74.8329 40.0988 74.9834 40.11 75.0119 40.1774C75.0777 40.2968 74.7746 40.7654 74.4221 41.3836C73.6945 42.6351 72.6761 44.2768 71.6631 45.8057C70.4487 47.6438 69.2223 49.4186 68.3931 50.8288C67.9154 51.6396 66.9062 54.5629 66.1272 54.8882C65.9247 54.9714 65.444 54.7757 65.3423 54.9239C64.8858 56.4797 64.4343 58.0348 63.9864 59.591C61.7864 62.1402 60.8547 65.4641 59.5052 68.4637C58.8879 69.8358 58.2776 71.2084 57.6786 72.5716C54.6472 79.4028 51.6423 86.1454 47.6472 92.6412C46.7068 94.1533 45.7765 96.311 44.4156 97.6705C43.839 98.2443 43.0115 97.964 42.766 99.1773C42.5918 99.0366 42.4178 98.8957 42.244 98.7545C41.9722 99.3173 41.8392 99.8494 41.5569 100.377C41.2821 100.779 40.9414 101.151 40.5123 101.464C39.4223 102.319 37.0626 103.217 36.8772 103.236C36.7479 103.254 36.6099 102.927 36.5726 102.883C36.6398 102.841 36.7218 102.788 36.8272 102.71C36.9452 102.618 37.018 102.578 37.2852 102.31C37.4436 102.145 37.6296 101.925 37.8131 101.605C38.0067 101.284 38.2848 100.589 38.2823 99.8723C38.3078 98.3372 37.3223 97.3447 37.0557 97.1296C36.6405 96.7814 36.474 96.7186 36.311 96.6286C36.1417 96.5449 36.0789 96.5201 36.0011 96.4873C35.7415 96.3832 35.7406 96.3736 35.7439 96.3432C35.7733 96.2935 35.9488 96.2455 36.1353 96.1926C36.5195 96.0891 37.0072 95.9857 37.3883 96.0197C38.0203 96.0749 39.09 96.5806 39.8109 96.7076C39.9587 96.7314 40.0957 96.7562 40.2207 96.7788C43.2782 97.4226 44.5608 99.6117 45.3179 100.76C46.09 102.05 46.5179 103.152 46.7185 104.191C46.7229 104.215 46.7266 104.24 46.7296 104.265C46.8756 105.109 46.5199 106.014 46.5675 106.216C46.6634 106.617 47.2008 106.674 47.3035 106.937C47.8319 108.315 47.3026 110.351 47.2979 111.564C47.2904 115.53 47.3126 119.573 46.9699 123.344C46.8187 125.004 46.6681 127.396 46.3825 129.439C46.2546 130.368 46.0989 131.193 45.9073 131.869C45.7727 132.338 45.2125 132.15 45.1701 132.547C45.1224 132.989 45.4816 133.277 45.4893 133.488C45.5536 134.945 45.5163 138.173 44.9102 139.457C44.7955 139.703 44.3205 139.818 44.2986 139.97C44.2866 140.047 44.5647 140.265 44.5566 140.518C44.4898 142.711 44.0368 144.243 43.5514 146.296C43.0901 148.252 42.7589 150.41 42.4683 152.503C42.3251 153.548 42.1938 154.577 42.1011 155.494C42.0548 155.953 42.0219 156.372 42.0071 156.694C41.9807 157.003 42.037 157.254 41.9097 156.96C41.8314 156.736 41.1926 156.145 40.6102 156.084L39.1845 155.638C39.5244 155.925 39.7312 156.224 39.8047 156.225C40.0953 156.232 40.307 155.647 40.915 155.552C42.8895 155.239 45.4231 156.151 47.3079 156.099C48.2456 156.071 49.6246 155.501 50.584 155.492C51.3387 155.474 53.0789 156.12 53.4881 155.876C53.7455 155.726 53.9893 155.114 54.2616 155.094ZM34.9781 149.096C35.9756 149.414 35.373 147.948 34.7331 148.331C34.588 148.422 34.7185 149.016 34.9781 149.096ZM37.9494 95.1657C37.7235 94.9728 37.4981 94.7794 37.273 94.5855C37.2664 94.7749 37.2586 94.9628 37.2455 95.153C37.429 95.2205 37.6182 95.2812 37.8044 95.344C37.8522 95.2859 37.9006 95.2265 37.9494 95.1657Z" fill="#0059FF"/>
<path d="M331.482 163.345C331.223 163.447 330.795 163.103 330.477 163.117C329.135 163.171 328.623 162.952 327.404 162.916C325.611 162.875 320.374 163.787 320.188 161.081C320.188 161.081 320.188 161.081 320.188 161.081C320.186 161.054 320.185 161.027 320.184 161C320.168 160.485 320.574 159.893 320.598 159.307C320.621 158.722 320.31 154.973 320.906 154.718C321.782 154.377 324.006 155.163 324.476 155.077C324.804 155.019 325.173 154.643 325.582 154.545C326.903 154.227 327.638 154.405 328.74 153.355C329.274 153.791 329.806 154.225 330.345 154.657C330.946 154.362 331.978 154.889 332.356 154.806C332.663 154.739 332.805 154.332 333.127 154.273C333.485 154.204 334.105 154.546 334.763 154.393C335.839 154.143 335.889 153.114 336.52 152.893C337.172 152.663 338.297 153.045 339.097 152.553C339.184 152.427 339.276 152.299 339.365 152.171C339.247 151.936 339.129 151.701 339.011 151.466C339.424 151.279 339.684 151.758 340.084 151.699C340.546 151.631 340.7 151.108 341.007 151.055C341.258 151.013 341.676 151.335 341.998 151.25C342.474 151.127 342.261 150.591 342.497 150.439C342.598 150.381 344.415 149.702 344.519 149.673C345.316 149.484 345.55 150.224 346.208 150.15C346.422 150.125 346.637 150.088 346.845 150.042L346.653 150.09C348.111 149.708 349.322 148.749 350.332 148.069C350.849 147.724 351.404 147.492 351.947 147.317C352.095 149.527 354.792 149.708 352.457 147.503C353.236 147.534 353.101 146.597 353.577 146.38C353.889 146.233 354.363 146.388 354.69 146.02C355.297 145.327 354.649 144.005 356.723 144.801C356.916 143.633 358.032 142.766 356.332 141.696C356.331 141.625 356.381 141.549 356.465 141.468C356.798 141.187 357.749 140.697 357.971 140.374C358.229 140.017 359.61 136.951 359.786 136.43C359.957 135.918 360.246 134.999 360.206 134.508C360.16 133.891 358.328 132.941 360.883 132.6C361.034 131.387 361.219 130.994 361.801 129.997C361.907 129.816 362.25 129.893 362.284 129.781C362.354 129.548 362.225 129.077 362.323 128.647C362.483 127.946 363.311 127.773 362.21 127.515C362.172 127.002 362.133 126.495 362.099 125.981C362.357 125.887 362.615 125.794 362.874 125.702C362.726 125.387 362.579 125.071 362.434 124.753C363.889 125.546 363.54 123.541 362.469 123.797C363.084 123.02 363.707 122.248 364.339 121.483C366.035 122.231 365.241 119.644 364.243 119.447C364.283 119.345 364.323 119.244 364.363 119.143C365.16 118.442 365.11 117.473 365.878 116.521C366.652 115.568 366.777 115.75 367.697 115.784C367.769 115.511 367.842 115.241 367.916 114.974C366.509 112.587 369.86 114.733 369.68 111.616C370.341 111.654 370.824 111.353 371.224 110.922C372.002 110.056 372.723 109.106 373.323 108.421C373.441 108.289 373.299 108.042 373.444 107.856C373.818 107.385 375.173 107.131 374.738 106.325C375.264 106.371 375.795 106.427 376.298 106.504C376.566 106.209 376.836 105.919 377.108 105.632C377.001 105.366 376.895 105.099 376.788 104.833C377.831 105.472 378.738 104.746 379.337 104.789C379.455 104.799 379.607 105.165 379.957 105.161C380.368 105.157 381.022 104.82 381.499 104.8C381.537 104.328 381.579 103.855 381.623 103.383C382.347 102.91 382.965 103.935 383.446 103.886C383.536 103.874 385.027 103.356 385.098 103.311C385.703 102.935 385.268 102.034 387.212 101.705C387.54 101.652 387.927 101.896 388.207 101.829C388.482 101.762 388.948 101.43 389.246 101.037C389.385 100.844 389.489 100.63 389.422 100.47C389.367 100.304 389.061 100.239 388.721 100.249C388.639 100.334 388.533 100.437 388.389 100.585C388.317 100.66 388.234 100.746 388.14 100.852C388.093 100.905 388.043 100.964 387.99 101.028C387.889 101.143 387.765 101.294 387.638 101.475C387.156 102.091 386.316 103.968 387.044 105.88C387.62 107.37 388.53 107.967 389.053 108.281C389.329 108.438 389.55 108.527 389.728 108.589C389.857 108.631 389.911 108.64 389.989 108.657C390.132 108.686 390.242 108.698 390.329 108.702C390.504 108.711 390.575 108.691 390.599 108.671C390.703 108.585 390.507 108.516 390.279 108.483C389.439 108.399 388.667 108.367 388.356 108.198C388.178 108.1 388.188 107.53 387.663 107.346C387.231 107.198 386.07 107.492 385.552 107.33C385.002 107.157 384.887 106.651 384.646 106.576C384.418 106.505 384.137 106.849 383.825 106.792C382.845 106.605 382.081 105.833 381.329 105.686C380.237 105.471 379.077 106.43 378.104 106.785C377.892 106.675 377.718 106.397 377.485 106.358C374.617 105.859 371.477 105.283 368.691 104.995C367.423 104.816 364.096 103.484 365.15 106.016C364.877 106.348 363.281 106.089 362.117 106.019C357.845 106.646 355.298 102.583 358.079 99.2799C358.541 98.8968 358.936 98.5688 359.071 98.4105C359.524 97.8748 359.515 97.1548 359.85 96.7397C360.879 95.4677 361.87 94.8157 362.84 93.0556C363.084 92.6069 363.026 91.829 363.224 91.6085C363.463 91.3435 364.125 91.3905 364.453 91.062C365.239 90.2664 366.46 88.5878 367.224 87.8464C367.365 87.7113 367.764 87.9649 368.055 87.852C369.194 87.4093 369.948 86.4629 368.679 85.6468C370.225 85.1571 370.475 83.6839 371.272 82.6863C372.963 80.5807 376.405 77.0699 377.383 74.8815C377.997 73.5066 377.464 73.1109 379.233 71.82C379.578 71.5697 379.966 71.3209 380.369 71.03C380.418 70.9932 380.467 70.9558 380.517 70.9174C381.637 70.0603 383.396 69.8019 382.835 68.0781C384.059 67.1091 384.56 65.9829 386.25 65.8417C386.083 65.5541 385.912 65.2701 385.743 64.983C385.848 64.8274 385.952 64.6738 386.053 64.5221C386.322 64.6482 386.591 64.7743 386.86 64.9004C387.702 63.8819 387.683 61.8307 388.279 60.9571C389.365 59.5137 391.959 55.758 392.103 55.5642C392.16 55.5108 392.162 55.481 392.154 55.4632C392.128 55.044 392.006 54.9381 392.969 54.539C392.875 54.3452 392.78 54.1548 392.682 53.9685C392.396 53.8615 392.109 53.7591 391.822 53.6619C391.757 52.6297 392.029 51.431 391.797 50.6332C391.579 49.8349 390.982 49.1117 390.484 48.7499C390.974 49.3172 391.05 49.2837 391.033 49.3118C391.01 49.3158 390.885 49.2679 390.733 49.211C390.431 49.0957 390.027 48.9332 389.666 48.7277C389.277 48.5015 388.791 47.8109 388.317 47.7329C387.612 47.6185 387.296 48.5411 386.398 48.4301C384.865 48.2307 381.953 46.8305 380.389 46.8147C379.926 46.807 379.692 47.1508 379.371 47.1688C378.033 47.2503 376.94 47.1687 375.655 47.6782C374.324 46.7136 374.468 45.5318 374.057 44.3211C373.762 43.4071 372.739 41.2971 372.593 40.5047C372.489 39.9467 372.879 39.2296 372.734 38.6152C374.535 38.135 375.253 38.7014 376.636 39.6161C379.24 39.6855 381.832 39.8205 384.453 40.0511C384.658 40.409 384.86 40.7674 385.058 41.1263C385.058 41.127 385.058 41.1278 385.058 41.1285C386.012 41.6235 386.533 40.8218 387.112 40.701C388.17 40.4806 389.414 40.4234 390.845 40.5764C391.563 40.6563 392.332 40.7853 393.209 41.0353C393.636 41.159 394.119 41.3182 394.679 41.5744C395.261 41.8769 395.882 42.0749 396.933 43.2152C400.417 47.4842 400.015 52.3131 399.854 55.4747C399.747 57.3837 399.164 58.6402 398.729 59.6392C398.16 61.0901 396.334 64.8741 395.392 65.2554C395.146 65.3678 394.69 65.121 394.54 65.3022C393.628 67.198 392.672 69.0361 391.694 70.8661C389.94 72.4733 388.514 74.3447 387.15 76.2914C386.051 77.8576 384.965 79.4505 383.817 80.926C377.475 89.0769 370.796 96.8872 364.645 104.463L360.644 97.7853C361.806 97.5801 362.968 97.4386 364.122 97.3516C366.497 97.1592 369.497 96.802 371.738 97.2203C372.673 97.3929 372.979 98.25 374.25 97.7623C374.239 97.986 374.227 98.2097 374.216 98.4334C375.292 98.2813 376.024 97.8613 377.2 97.977C378.193 98.0691 380.755 98.4634 381.572 98.6997C382 98.8191 381.763 99.2013 382.167 99.2714C382.86 99.3883 384.423 99.0868 385.34 99.2464C386.177 99.3951 387.468 100.09 388.081 100.097C388.908 100.114 389.748 100.038 390.426 99.8974C390.722 99.8718 390.927 99.8457 391.284 99.8412C391.476 99.8409 391.666 99.8444 391.901 99.8652C392.082 99.886 392.282 99.9146 392.544 99.9774C392.675 100.009 392.822 100.05 392.995 100.111C393.213 100.193 393.728 100.378 394.338 100.873C394.922 101.402 395.882 102.231 395.966 104.307C395.937 106.166 394.977 107.131 394.685 107.455C394.202 107.946 393.891 108.128 393.639 108.289C393.239 108.531 393.081 108.604 392.854 108.715C392.543 108.87 392.243 108.997 392.029 109.089C391.096 109.477 390.333 109.716 389.522 109.886C388.801 110.034 387.799 109.752 387.592 109.827C387.183 109.976 387.21 110.515 386.955 110.659C385.653 111.383 383.363 111.421 382.068 111.839C380.724 112.268 379.389 112.773 378.214 113.335C377.094 113.833 375.886 114.725 375.992 114.725C375.346 115.563 374.596 116.951 373.927 118.3C372.707 120.685 371.19 125.198 370.003 127.624C369.744 128.146 369.242 127.823 369.094 128.287C368.93 128.803 369.215 129.197 369.17 129.447C368.852 131.178 368.149 134.991 367.321 136.491C367.161 136.778 366.665 136.876 366.616 137.057C366.591 137.145 366.827 137.447 366.777 137.745C366.366 140.148 365.827 141.787 365.017 144.135C364.925 144.392 364.827 144.66 364.722 144.939C363.228 150.814 356.393 156.644 350.79 157.734C349.909 157.966 349.112 157.7 348.666 157.55C348.642 157.558 348.565 157.574 348.54 157.581C348.374 157.51 348.26 157.462 348.214 157.475C347.861 157.572 347.763 158.21 347.071 158.509C344.756 159.506 341.37 159.467 339.118 160.118C338.004 160.444 336.539 161.427 335.431 161.744C334.549 162.002 332.379 161.967 332.024 162.343C331.806 162.572 331.76 163.231 331.482 163.345ZM355.415 145.946C356.17 146.689 356.172 145.214 355.455 145.256C355.305 145.258 355.228 145.753 355.415 145.946ZM373.882 104.023C373.864 104.32 373.845 104.616 373.825 104.913C374.046 104.814 374.268 104.715 374.49 104.618C374.396 104.427 374.3 104.236 374.203 104.044C374.096 104.037 373.989 104.03 373.882 104.023Z" fill="#0059FF"/>
</svg>
