<svg width="495" height="239" viewBox="0 0 495 239" fill="none" xmlns="http://www.w3.org/2000/svg">
<path d="M14.987 184.702C14.9143 185.073 14.3564 185.413 14.172 185.813C13.3948 187.49 12.8854 188.029 12.1065 189.545C10.9474 191.8 8.66752 198.814 6.14432 197.845C6.14426 197.845 6.1442 197.845 6.14413 197.845C6.11956 197.835 6.09494 197.824 6.07034 197.813C5.60267 197.596 5.32086 196.791 4.81613 196.485C4.31112 196.18 0.796493 194.838 0.939392 193.918C1.17427 192.591 3.23208 190.072 3.44734 189.426C3.59658 188.978 3.49041 188.328 3.66377 187.738C4.22618 185.826 4.84307 184.969 4.64103 182.995C5.35791 182.529 6.0736 182.067 6.78811 181.608C6.91018 180.704 8.05131 179.61 8.22694 179.083C8.37347 178.645 8.11644 178.249 8.27996 177.799C8.46129 177.294 9.15789 176.69 9.46351 175.773C9.96739 174.267 9.1287 173.649 9.38071 172.692C9.63823 171.708 10.7335 170.477 10.8815 169.176C10.8385 168.987 10.7955 168.799 10.7524 168.611C10.477 168.621 10.2016 168.63 9.92623 168.64C10.0582 168.008 10.6377 167.951 10.8658 167.418C11.1357 166.788 10.8087 166.299 10.9927 165.855C11.1413 165.498 11.7015 165.163 11.8675 164.694C12.1112 164.01 11.5281 163.943 11.5779 163.542C11.6003 163.379 12.3925 160.628 12.4473 160.484C12.8864 159.357 13.6414 159.555 14.0816 158.663C15.3031 156.181 15.7465 153.47 16.5125 151.004C16.846 149.923 17.3341 148.864 17.8719 147.892C19.0332 150.256 21.93 147.301 18.5189 147.437C19.3991 146.468 18.9775 145.305 19.5605 144.275C19.9392 143.607 20.5384 143.286 20.9434 142.288C21.6516 140.535 21.3677 138.058 23.6112 138.415C24.1228 136.193 25.6264 134.691 24.1529 133.173C24.2724 132.585 25.9232 131.662 26.321 131.128C26.681 130.656 29.0557 126.416 29.3754 125.747C29.6981 125.066 30.2782 123.794 30.3786 123.127C30.5099 122.286 28.8828 120.955 31.6266 120.557C32.1177 118.937 32.4365 118.371 33.3156 117.034C33.4751 116.791 33.8096 116.901 33.8764 116.748C34.0133 116.433 34.0083 115.795 34.2223 115.224C34.5769 114.281 35.4921 114.03 34.4123 113.686C34.5088 112.993 34.6044 112.303 34.6991 111.616C34.9923 111.489 35.2853 111.362 35.5782 111.236C35.5039 110.816 35.4294 110.396 35.3547 109.977C36.6756 111.024 36.8144 108.321 35.6269 108.695C36.4634 107.634 37.296 106.586 38.1249 105.551C39.7385 106.483 39.4834 103.026 38.4579 102.852C38.5199 102.717 38.5818 102.582 38.6437 102.447C39.6249 101.46 39.7338 100.232 40.6951 98.9046C41.6497 97.5934 41.7519 97.8071 42.7265 97.7214C42.8349 97.3638 42.943 97.0071 43.051 96.6513C41.7322 93.9059 45.2786 95.8763 45.0324 92.1127C46.8148 91.7503 47.2185 89.0354 47.5498 87.2718C47.5893 87.0644 47.3324 86.9407 47.3678 86.6567C47.458 85.962 48.506 84.5897 47.6488 84.252C48.1382 83.8355 48.6235 83.429 49.1155 83.0096C49.1695 82.5028 49.2235 81.9971 49.2774 81.4924C49.0168 81.3717 48.7563 81.2511 48.4957 81.1304C49.7942 80.6739 50.0983 79.1591 50.6332 78.5827C50.7403 78.4684 51.1117 78.6096 51.4091 78.2382C51.7585 77.8047 52.088 76.8469 52.4775 76.3233C52.1903 75.9085 51.9032 75.4936 51.6162 75.0787C51.8993 73.9446 53.123 74.0754 53.4981 73.5084C53.5654 73.404 54.4604 71.3768 54.4904 71.2605C54.7433 70.2993 53.7369 70.104 55.1779 67.6588C55.4353 67.2239 55.921 67.0122 56.1358 66.6098C56.5162 65.8958 56.9065 63.3794 56.3528 62.889C57.5882 62.419 58.4413 59.9132 59.02 59.3458C59.1961 59.1746 59.728 59.3861 60.1595 58.8049C60.5099 58.3333 60.7805 56.7975 61.1835 56.179C61.6129 55.5235 62.1663 55.4952 62.3559 55.2004C62.5346 54.9217 62.3298 54.4745 62.5378 54.0761C63.1926 52.8358 64.3312 51.9932 64.8524 51.0173C65.607 49.6075 65.2523 47.8183 65.4275 46.3946C65.6482 46.1349 66.018 45.9605 66.1829 45.6529C67.9516 42.3685 70.0305 38.8254 72.043 35.5335L77.7158 40.225C77.2105 40.5963 76.7141 40.96 76.2286 41.3149C74.6271 42.4776 69.8125 44.4785 72.4969 45.6151C72.2728 46.3873 67.7499 48.8504 67.0303 49.4585C66.288 50.0769 66.0207 50.9239 65.4635 51.418C63.7931 52.9013 62.3562 53.7186 60.5875 55.855C60.1279 56.4116 59.9389 57.3276 59.6279 57.6026C59.2514 57.9337 58.5001 57.8988 57.9872 58.3253C56.7773 59.3314 54.7902 61.4399 53.6547 62.4076C53.4473 62.582 53.0543 62.3107 52.6748 62.4738C51.1764 63.1249 49.9994 64.3613 51.2655 65.2099C49.2963 65.9648 48.5787 67.7936 47.3709 69.1165C44.797 71.8846 39.9468 76.7951 38.3793 79.737C37.3845 81.5821 37.9318 81.9494 35.629 83.9688C35.1183 84.4215 34.5744 84.8501 33.9648 85.4096C32.5401 86.7127 30.4971 87.4433 30.8888 89.4943C29.3598 91.0197 28.6636 92.5755 26.7346 93.2211C26.8913 93.5436 27.049 93.8653 27.2076 94.1862C27.0743 94.4102 26.9416 94.6347 26.8094 94.8595C26.5191 94.7733 26.2285 94.6876 25.9377 94.6023C24.8677 96.1597 24.682 98.8193 23.8968 100.18C22.5356 102.452 18.9605 108.304 17.5292 110.455C16.761 111.575 17.2978 111.908 15.8048 112.067C15.757 112.381 15.7098 112.695 15.663 113.01C15.8388 113.301 16.0167 113.587 16.1942 113.875C15.4869 115.445 14.2542 117.156 13.6067 118.683C12.4225 121.452 11.4364 125.977 9.88955 128.613C9.65566 129.011 9.24826 129.418 8.90109 129.835L8.99647 129.548C8.7856 129.843 8.60667 130.133 8.53249 130.412C8.26391 131.438 9.12655 131.923 8.85004 133.175C8.32481 135.317 6.74651 139.055 7.22707 140.633C7.33919 141.104 7.74405 141.214 7.86498 141.479C8.39044 142.571 8.922 143.399 10.2474 143.96C10.6669 145.634 9.94542 146.513 9.635 147.809C9.40994 148.795 9.42512 151.368 9.19867 152.161C9.02486 152.716 8.12778 152.98 7.9732 153.616C5.45118 152.477 4.68712 151.18 3.68512 148.783C0.382537 145.341 -0.382645 139.817 0.158461 135.906C0.532694 135.582 0.91413 135.256 1.29773 134.955C1.29845 134.955 1.29918 134.955 1.2999 134.955C1.90957 133.538 1.19798 132.792 1.1775 131.95C1.14567 130.589 1.30899 129.052 1.6235 127.425C1.63883 127.363 1.70362 127.184 1.72393 127.123C3.74551 119.631 9.04012 109.904 12.2394 104.066C13.0399 102.518 15.3149 97.3283 16.4065 96.5578C16.6824 96.359 17.1738 96.5408 17.3557 96.2684C18.5435 93.5786 19.8111 90.9115 21.1604 88.2763C25.1275 83.6477 28.2968 78.2654 32.1116 73.4935C42.4093 60.6189 54.2387 49.4219 66.5388 39.2318C68.4242 37.6742 70.5205 35.6311 72.5956 33.9631C76.4258 30.7806 81.4928 34.9908 79.1546 39.3876C78.8168 39.9988 78.4754 40.5789 78.129 41.1098C77.4441 42.1615 76.4727 42.2141 76.2387 43.9601C76.0334 43.8697 75.8281 43.7794 75.6228 43.689C75.1828 45.0827 75.2049 46.122 74.4975 47.5644C73.8982 48.7808 72.2659 51.9514 71.6379 52.972C71.3135 53.5005 71.0497 53.1028 70.7848 53.6151C70.3346 54.492 69.8735 56.6344 69.2507 57.8444C68.6851 58.9407 67.3086 60.5732 66.94 61.452C65.6093 64.6096 64.5781 68.2541 62.7962 71.4315C62.3035 72.3066 61.2458 73.2317 61.1201 73.5228C60.876 74.0927 61.2699 74.4856 61.1498 74.8855C60.5374 76.9159 58.5525 79.5867 57.6403 81.4397C54.6694 87.4628 51.8885 93.9972 49.0418 100.043C47.2291 103.882 44.4765 110.291 42.5391 113.727C42.1249 114.457 41.6865 114.021 41.4034 114.667C41.0893 115.384 41.2751 115.932 41.1564 116.282C40.3379 118.699 38.4789 123.986 37.1726 126.024C36.9216 126.415 36.3748 126.543 36.2676 126.798C36.2125 126.926 36.3716 127.338 36.2272 127.755C34.9938 131.345 33.723 133.876 32.1651 137.291C29.183 143.834 26.507 151.746 23.3339 158.621C22.6464 160.109 21.385 160.826 21.3043 161.045C21.1267 161.524 21.5517 162.07 21.2988 163.075C20.4699 166.373 18.106 170.452 17.1641 173.557C16.6883 175.115 16.556 177.462 16.1243 178.97C15.7776 180.179 14.3667 182.856 14.4611 183.515C14.5168 183.916 15.0633 184.298 14.987 184.702ZM21.8473 141.428C22.7167 142.042 22.8491 139.491 21.9863 140.106C21.7926 140.243 21.62 141.272 21.8473 141.428ZM70.5014 41.4071C70.2294 41.2862 69.9574 41.1653 69.6853 41.0445C69.6468 41.3783 69.6086 41.7117 69.5708 42.045C69.8107 41.9745 70.0507 41.904 70.2908 41.8335C70.3609 41.6914 70.4311 41.5493 70.5014 41.4071ZM79.4737 146.945C79.4609 147.154 78.9933 147.253 78.8821 147.457C78.4081 148.319 78.0113 148.555 77.5181 149.306C76.7932 150.401 75.7003 154.212 73.2272 153.122C73.2271 153.122 73.227 153.122 73.227 153.122C73.2027 153.111 73.1782 153.1 73.1536 153.089C72.6861 152.872 72.3003 152.348 71.7851 152.072C71.2697 151.796 67.8022 150.337 67.7946 149.822C67.808 149.089 69.3516 147.953 69.4608 147.594C69.532 147.356 69.3396 146.941 69.4105 146.625C69.6396 145.607 70.0849 145.21 69.6083 143.978C70.2093 143.824 70.8007 143.693 71.3978 143.548C71.3819 143.017 72.2674 142.602 72.3532 142.317C72.4234 142.083 72.1257 141.797 72.2108 141.558C72.3036 141.29 72.8654 141.048 73.0093 140.562C73.2511 139.757 72.3866 139.214 72.4718 138.7C72.5601 138.167 73.3935 137.633 73.3384 136.875C73.27 136.755 73.2016 136.634 73.1332 136.513C72.8793 136.467 72.6254 136.42 72.3715 136.374C72.3983 136.022 72.9275 136.097 73.0596 135.819C73.2155 135.493 72.8432 135.127 72.9437 134.903C73.0265 134.721 73.4944 134.629 73.5771 134.38C73.6996 134.018 73.1488 133.866 73.1348 133.636C73.1309 133.542 73.455 132.032 73.4828 131.958C73.7212 131.362 74.4518 131.622 74.7213 131.179C75.4688 129.941 75.4902 128.346 75.8069 127.046C75.9491 126.463 76.2409 125.915 76.595 125.421C78.0272 127.076 80.2698 125.817 77.1272 125.263C77.7923 124.85 77.2148 124.089 77.5952 123.58C77.8421 123.251 78.3473 123.171 78.5708 122.64C78.968 121.689 78.2995 120.187 80.4344 120.817C80.5612 119.574 81.7161 118.948 80.113 117.758C80.1327 117.422 81.5102 117.181 81.7938 116.932C82.0596 116.7 83.5597 114.622 83.7571 114.252C83.9547 113.881 84.2693 113.254 84.2543 112.868C84.2372 112.388 82.5156 111.289 84.9876 111.547C85.18 110.648 85.3753 110.377 85.9678 109.724C86.0742 109.608 86.4012 109.736 86.4372 109.656C86.5108 109.492 86.3996 109.106 86.5026 108.798C86.6724 108.292 87.4704 108.315 86.4174 107.909C86.3885 107.511 86.3601 107.112 86.3321 106.713C86.5812 106.689 86.8305 106.664 87.0797 106.64C86.9408 106.37 86.8019 106.101 86.6632 105.831C88.0601 106.701 87.7288 105.087 86.6973 105.101C87.282 104.621 87.8667 104.142 88.4535 103.658C90.1052 104.505 89.2625 102.378 88.2884 102.087C88.3219 102.016 88.3554 101.945 88.3889 101.874C89.12 101.448 89.0129 100.703 89.6517 100.088C90.2928 99.4685 90.4259 99.6126 91.3071 99.7319C91.3427 99.5335 91.3785 99.3349 91.4144 99.136C89.7047 97.2385 93.3223 99.0611 92.4126 96.7131C93.9805 96.8086 93.8432 95.234 93.8163 94.2093C93.8132 94.0902 93.5539 93.9714 93.5325 93.8048C93.4832 93.3996 94.1855 92.7331 93.3345 92.3829C93.7053 92.2078 94.0741 92.0374 94.4417 91.8693C94.3918 91.5732 94.342 91.2768 94.2924 90.9799C94.0301 90.863 93.7679 90.7462 93.5056 90.6293C94.6047 90.5725 94.5887 89.6933 94.9639 89.4307C95.0393 89.3788 95.4072 89.5263 95.6059 89.3487C95.8398 89.142 95.9517 88.6092 96.2048 88.3492C95.8595 88.0479 95.5142 87.7465 95.169 87.4449C95.204 86.7891 96.3423 87.0819 96.5704 86.7955C96.6105 86.7447 97.0129 85.6517 97.0165 85.5837C97.0498 85.0339 96.0894 84.7634 96.8979 83.4876C97.0426 83.2603 97.4426 83.2041 97.5546 82.9896C97.7568 82.6023 97.5685 81.14 96.9591 80.7514C97.9849 80.656 98.2175 79.2541 98.6211 78.9899C98.7441 78.911 99.275 79.1211 99.5412 78.8274C99.7568 78.5912 99.6696 77.6765 99.8961 77.3616C100.139 77.0262 100.636 77.0914 100.742 76.9393C100.842 76.7954 100.555 76.491 100.654 76.2777C100.969 75.6142 101.812 75.2626 102.064 74.7347C102.428 73.974 101.7 72.8074 101.525 71.9618C101.664 71.8344 101.959 71.7804 102.036 71.6153C102.998 69.5805 104.265 67.3001 105.421 65.3487C105.958 64.4371 108.47 62.666 105.817 62.237C105.557 61.7108 107.606 59.7302 107.833 59.2689C108.058 58.8121 107.802 58.2514 107.962 57.8829C108.449 56.7633 109.098 56.1456 109.336 54.6445C109.397 54.2565 109.064 53.6586 109.163 53.4568C109.283 53.2142 109.889 53.1696 110.065 52.8636C110.483 52.1298 110.969 50.6391 111.382 49.9561C111.459 49.8312 111.906 49.9786 112.125 49.8497C112.981 49.3484 113.315 48.4957 111.889 48.0235C113.093 47.4264 112.797 46.2105 113.152 45.3169C113.9 43.4435 115.786 40.1499 115.941 38.2975C116.046 37.1139 115.424 36.8634 116.639 35.594C116.909 35.3118 117.219 35.0492 117.544 34.7044C118.309 33.8966 119.824 33.5571 118.799 32.2128C119.631 31.3217 119.766 30.3654 121.286 30.1087C121.05 29.8888 120.814 29.6688 120.578 29.4488C120.631 29.3156 120.684 29.1822 120.736 29.0487C121.02 29.1293 121.304 29.2099 121.588 29.2905C122.083 28.3967 121.523 26.7362 121.89 25.9549C122.503 24.6462 124.478 21.4468 125.402 20.3735C125.895 19.7995 125.343 19.5036 126.684 19.6586C126.671 19.4732 126.658 19.2876 126.644 19.102C126.431 18.8921 126.218 18.6821 126.004 18.4722C126.384 17.6146 127.246 16.7822 127.607 15.9815C128.268 14.5154 128.58 11.9742 129.724 10.6965C130.009 10.3822 130.747 10.1632 130.907 9.79914C131.14 9.26933 130.323 8.74078 130.613 8.06369C131.112 6.90342 133.13 5.18445 133.545 4.07305C133.67 3.74032 133.413 3.4405 133.481 3.20156C133.76 2.19777 134.14 1.43919 134.05 0.305525C135.334 -0.280598 136.378 0.298491 137.608 0.497722C138.537 0.647145 140.769 0.820762 141.536 1.05173C142.076 1.21413 142.608 1.77466 143.211 1.93237C143.122 3.30457 142.407 3.56806 141.19 4.15078C140.422 5.91008 139.673 7.62824 138.897 9.40329C138.52 9.42249 138.142 9.44158 137.765 9.46058C137.764 9.46028 137.764 9.45998 137.763 9.45967C137.105 9.96783 137.76 10.6099 137.774 11.0513C137.916 15.2466 133.458 21.4584 131.538 25.1486C131.132 25.9273 130.312 28.8078 129.564 29.1354C129.368 29.2216 128.88 29.0471 128.789 29.1921C128.438 30.6996 128.094 32.1915 127.736 33.7149C125.707 36.2226 124.968 39.4375 123.778 42.3432C120.551 50.2233 117.43 58.0558 113.858 65.6183C113.159 67.0962 112.662 69.1261 111.786 70.4515C111.423 71.001 110.547 70.9224 110.751 71.9705C110.543 71.8864 110.336 71.8024 110.128 71.7183C110.06 72.523 110.323 73.1749 110.02 73.9681C109.764 74.6359 109.019 76.3599 108.675 76.9114C108.5 77.194 108.17 76.9097 108.045 77.1902C107.834 77.6719 107.899 78.929 107.603 79.5829C107.334 80.1752 106.444 80.9737 106.297 81.4687C105.766 83.2404 105.622 85.2916 104.642 86.9937C104.372 87.4601 103.596 87.8626 103.541 88.0208C103.435 88.3309 103.875 88.6359 103.847 88.8629C103.703 90.0107 102.42 91.3343 101.946 92.3247C100.415 95.5207 99.0849 99.0324 97.5346 102.245C96.5721 104.237 95.1269 107.684 93.9231 109.403C93.6621 109.776 93.1846 109.432 93.0313 109.774C92.8615 110.153 93.1254 110.517 93.0751 110.707C92.7342 112.007 91.877 114.888 91.0022 115.871C90.8347 116.058 90.3514 116.033 90.2946 116.164C90.2651 116.23 90.4799 116.505 90.4163 116.725C89.8364 118.709 89.0828 119.958 88.1749 121.737C86.4515 125.117 85.1801 129.397 83.2933 132.902C82.8766 133.678 81.8185 133.863 81.7772 133.979C81.6854 134.231 82.1659 134.631 82.0836 135.186C81.8091 137.019 80.2356 139.004 79.8225 140.696C79.6145 141.54 79.8465 142.912 79.6709 143.734C79.5272 144.399 78.6171 145.735 78.8081 146.135C78.9219 146.381 79.4846 146.716 79.4737 146.945ZM79.2789 122.281C80.1806 122.811 79.9012 121.313 79.2008 121.515C79.0436 121.559 79.0446 122.144 79.2789 122.281ZM104.948 69.603C104.672 69.4908 104.397 69.3786 104.122 69.2664C104.167 69.4675 104.211 69.6686 104.256 69.8695C104.456 69.859 104.657 69.8485 104.858 69.8379C104.888 69.7596 104.918 69.6813 104.948 69.603ZM37.3284 126.928C37.0887 126.826 37.0592 126.302 36.8355 126.1C35.9226 125.268 35.7191 124.778 34.9072 124.008C33.6859 122.751 29.5169 121.06 30.5746 118.663C30.5747 118.663 30.5747 118.663 30.5747 118.663C30.5856 118.639 30.597 118.615 30.609 118.59C30.8329 118.126 31.4532 117.792 31.7649 117.296C32.0753 116.8 33.6326 113.369 34.3891 113.508C35.4931 113.724 37.1326 115.819 37.5799 116.074C37.9036 116.246 38.4756 116.212 38.8958 116.424C40.2666 117.126 40.7317 117.783 42.38 117.878C42.5036 118.593 42.6342 119.322 42.7286 120.028C43.4129 120.288 43.7952 121.451 44.1348 121.696C44.4179 121.899 44.8156 121.731 45.0967 121.951C45.4132 122.196 45.6 122.916 46.1755 123.348C47.13 124.071 47.9513 123.459 48.5716 123.858C49.2005 124.259 49.6627 125.449 50.5808 125.84C50.743 125.842 50.9055 125.844 51.0683 125.847C51.1814 125.607 51.2943 125.367 51.4071 125.127C51.8356 125.377 51.619 125.885 51.9233 126.194C52.2803 126.557 52.8129 126.396 53.0565 126.639C53.2537 126.836 53.2486 127.381 53.5254 127.621C53.9275 127.973 54.2462 127.494 54.5226 127.62C54.6276 127.664 56.3441 128.95 56.4238 129.027C57.0713 129.653 56.5833 130.26 57.029 130.813C58.2915 132.37 60.1419 133.394 61.5796 134.558C62.2196 135.075 62.7768 135.726 63.2448 136.399C60.9271 136.833 61.7641 139.953 63.2794 137.049C63.5854 138.012 64.6228 137.892 65.1163 138.619C65.4276 139.083 65.3745 139.652 65.9279 140.222C66.9033 141.222 68.8494 141.506 67.5139 143.306C68.9276 144.238 69.3121 145.811 71.1408 144.91C71.5186 145.136 71.4124 146.713 71.6277 147.17C71.7607 147.445 72.5653 148.643 73.2659 149.633C74.0715 150.576 74.4909 152.319 73.9403 153.43C73.5575 154.053 73.238 154.59 73.1439 154.78C72.8929 155.288 72.476 156.176 72.4486 156.672C72.4145 157.287 74.0964 158.49 71.5077 158.533C71.1949 159.748 70.9724 160.096 70.2636 161.057C70.1355 161.23 69.8037 161.114 69.7554 161.227C69.6564 161.459 69.727 161.954 69.5816 162.376C69.3424 163.07 68.5024 163.16 69.5711 163.527C69.5594 164.037 69.5436 164.558 69.5262 165.083C69.2591 165.156 68.9922 165.228 68.7254 165.3C68.8424 165.632 68.9599 165.962 69.0779 166.292C67.6925 165.38 67.8771 167.416 68.967 167.241C68.3029 167.946 67.6112 168.72 66.9424 169.441C65.2822 168.606 65.9575 171.238 66.9546 171.467C66.9114 171.566 66.8683 171.666 66.8253 171.765C66.0043 172.452 66.0549 173.379 65.3095 174.313C64.5616 175.254 64.4384 175.081 63.5172 175.077C63.4598 175.344 63.403 175.61 63.3468 175.874C64.9816 178.044 61.3106 176.326 62.0693 179.211C60.4107 179.387 60.4187 181.419 60.356 182.772C60.3488 182.929 60.6124 183.037 60.6208 183.252C60.6368 183.779 59.8509 184.76 60.7214 185.06C60.3187 185.352 59.9108 185.658 59.5082 185.952C59.5363 186.335 59.5659 186.715 59.5969 187.093C59.8646 187.197 60.1324 187.3 60.4001 187.404C59.2463 187.662 59.1819 188.858 58.7749 189.26C58.6924 189.341 58.3147 189.219 58.0953 189.486C57.8419 189.784 57.6794 190.529 57.3994 190.913C57.7442 191.239 58.0897 191.563 58.4357 191.886C58.3688 192.726 57.1796 192.597 56.9218 193.023C56.8718 193.109 56.3989 194.601 56.3891 194.701C56.3237 195.44 57.3146 195.593 56.422 197.415C56.2609 197.745 55.8405 197.903 55.7179 198.202C55.5067 198.709 55.6444 200.638 56.2838 200.981C55.2047 201.346 54.9574 203.202 54.5386 203.648C54.4118 203.778 53.8574 203.636 53.5875 204.068C53.3641 204.428 53.4735 205.578 53.2511 206.037C53.0045 206.547 52.4913 206.589 52.3879 206.813C52.291 207.023 52.6033 207.327 52.5082 207.64C52.217 208.576 51.379 209.267 51.1759 210C50.8744 211.085 51.7747 212.277 52.1119 213.21C52.0019 213.388 51.7193 213.566 51.6813 213.777C51.4697 214.816 51.3657 216.14 51.3641 216.289L43.4644 216.479C43.8649 214.547 44.2878 212.689 44.7062 210.894C45.0423 209.457 47.0974 206.164 44.393 206.726C44.023 206.138 45.5683 202.712 45.6776 202.011C45.7889 201.317 45.4021 200.708 45.4676 200.169C45.6626 198.556 46.148 197.429 45.9895 195.404C45.947 194.882 45.4648 194.277 45.5065 193.981C45.5595 193.612 46.1355 193.277 46.224 192.805C46.4331 191.675 46.4835 189.592 46.6853 188.501C46.7233 188.305 47.1958 188.283 47.3695 188.015C48.0481 186.974 48.1098 185.749 46.6028 185.825C47.5784 184.472 46.9132 183.135 46.9637 181.827C47.0882 179.08 47.6769 174.082 47.0704 171.73C46.6943 170.214 46.0322 170.27 46.5961 168.093C46.7191 167.605 46.8846 167.12 47.024 166.534C47.3534 165.189 48.5322 163.809 46.9839 162.869C47.2816 161.32 46.9103 160.164 48.0687 158.909C47.751 158.805 47.4332 158.703 47.1153 158.602C47.0886 158.418 47.0614 158.234 47.0336 158.051C47.3173 157.961 47.6009 157.872 47.8844 157.781C47.8175 156.45 46.3914 154.922 46.2193 153.85C45.9717 151.998 45.3632 147.26 45.1828 145.466C45.108 144.504 44.4964 144.656 45.5498 143.743C45.3986 143.57 45.2471 143.4 45.0938 143.228C44.7849 143.194 44.4761 143.161 44.1676 143.131C43.766 142.01 43.6608 140.532 43.2054 139.479C42.3898 137.546 40.3041 135.135 39.6803 133.104C39.5274 132.59 39.6767 131.72 39.3965 131.286C38.985 130.652 38.0799 131.021 37.539 130.242C36.6374 128.919 35.684 125.778 34.5974 124.61C34.2825 124.265 33.867 124.326 33.6304 124.104C32.6222 123.162 31.9264 122.334 30.6284 121.744C30.3603 120.104 31.294 119.369 31.854 118.215C32.2791 117.347 33.0269 115.109 33.474 114.435C33.7917 113.963 34.5913 113.75 34.9183 113.208C36.5758 114.19 36.6943 115.106 37.0751 116.8C38.9288 118.785 40.7352 120.906 42.3946 123.094C42.2748 123.496 42.1536 123.898 42.0279 124.296C42.0273 124.297 42.0267 124.297 42.0261 124.298C42.325 125.374 43.2785 125.242 43.7623 125.602C48.6264 129.012 52.0834 139.917 53.13 145.785C53.449 147.048 54.7521 151.091 54.3376 152.069C54.2366 152.321 53.7374 152.469 53.7549 152.713C54.406 154.781 54.9775 156.894 55.4786 159.037C55.0771 163.528 55.8369 168.033 55.8674 172.48C55.9274 184.446 54.8468 196.208 53.0704 207.649C52.7266 209.839 52.6742 212.763 52.0956 214.847C51.8524 215.732 50.9738 215.979 51.3946 217.275C51.1717 217.252 50.9489 217.23 50.726 217.207C50.7399 217.359 50.7594 217.503 50.7823 217.644C50.2036 221.518 44.9479 221.63 44.1104 217.804C43.5696 216.419 43.2442 215.542 43.3013 214.275C43.3471 212.988 43.8917 210.196 44.2141 209.306C44.368 208.859 44.7307 209.132 44.8383 208.7C45.0217 207.942 44.8863 206.267 45.1916 205.254C45.4527 204.369 46.3829 203.019 46.5389 202.318C47.0921 199.811 47.335 196.959 48.4382 194.494C48.7517 193.792 49.5792 193.118 49.6499 192.885C49.7795 192.445 49.3365 192.128 49.3808 191.816C49.5933 190.269 51.0478 188.216 51.6193 186.817C53.4757 182.262 55.2273 177.32 57.1777 172.848C58.415 170.002 60.3148 165.23 61.7861 162.775C62.1052 162.24 62.5719 162.617 62.7752 162.138C63.0019 161.603 62.764 161.167 62.8375 160.913C63.3501 159.14 64.5969 155.224 65.6583 153.767C65.8582 153.496 66.3679 153.454 66.4445 153.272C66.4841 153.18 66.2904 152.851 66.3865 152.548C66.6205 151.81 66.867 151.133 67.1269 150.486L67.8832 154.744C66.5983 153.46 65.5794 152.216 64.2739 150.722C60.8256 146.782 56.2635 142.754 52.7003 138.613C51.926 137.713 51.996 136.505 51.8727 136.391C51.6016 136.139 51.0181 136.401 50.3864 135.969C48.3148 134.55 46.4316 131.776 44.541 130.406C43.6024 129.719 41.9552 129.237 41.015 128.626C40.2756 128.138 38.9027 126.572 38.3964 126.596C38.0864 126.603 37.5911 127.037 37.3284 126.928ZM66.1407 141.178C65.2713 141.771 67.0806 142.43 67.043 141.577C67.0338 141.384 66.3654 141.023 66.1407 141.178ZM45.1564 216.625C44.8607 216.594 44.565 216.563 44.2693 216.532C44.2785 216.558 44.2878 216.585 44.2971 216.611L50.5387 216.462C50.4229 216.448 50.2989 216.372 50.1798 216.271C50.0076 216.352 49.8392 216.449 49.6728 216.539C49.682 216.576 49.6914 216.609 49.7007 216.637L45.1425 216.746C45.1471 216.705 45.1518 216.665 45.1564 216.625ZM76.6262 232.33C76.5712 232.55 76.0826 232.593 75.9346 232.787C75.2878 233.632 74.8572 233.803 74.1984 234.537C73.2863 235.565 71.1513 239.589 68.7812 238.059C68.7812 238.059 68.7811 238.059 68.7811 238.059C68.7612 238.042 68.7414 238.023 68.7218 238.005C68.3553 237.646 68.1902 236.965 67.7705 236.553C67.3539 236.138 64.3702 233.855 64.4329 233.417C64.5572 232.795 66.3344 231.886 66.484 231.579C66.5963 231.357 66.5184 230.855 66.6285 230.576C67.0464 229.58 67.5526 229.256 67.3091 227.915C67.9414 227.835 68.5402 227.807 69.167 227.734C69.2539 227.174 70.2139 226.864 70.3427 226.594C70.452 226.366 70.2041 226.033 70.3322 225.796C70.4752 225.527 71.0797 225.35 71.3023 224.877C71.6817 224.08 70.9156 223.4 71.0975 222.867C71.264 222.349 72.1782 221.919 72.2602 221.114C72.2138 220.978 72.1676 220.842 72.1216 220.705C71.8735 220.629 71.6255 220.552 71.3777 220.475C71.4764 220.094 71.9787 220.261 72.1575 219.99C72.3652 219.676 72.0531 219.253 72.191 219.035C72.3045 218.856 72.79 218.815 72.917 218.563C73.1031 218.197 72.581 217.967 72.5991 217.737C72.6039 217.651 73.1625 216.151 73.2101 216.065C73.5499 215.471 74.2572 215.797 74.5858 215.392C75.5126 214.238 75.8134 212.552 76.3266 211.261C76.5576 210.681 76.9633 210.104 77.3746 209.669C78.5642 211.518 80.9862 210.51 77.9281 209.573C78.6594 209.222 78.2015 208.367 78.6686 207.873C78.9708 207.555 79.4997 207.513 79.7945 207.008C80.3223 206.099 79.899 204.447 81.9483 205.324C82.2779 204.035 83.5103 203.549 82.0877 202.139C82.155 201.799 83.587 201.677 83.9152 201.44C84.2109 201.24 86.0262 199.26 86.2859 198.888C86.5454 198.517 86.9544 197.903 86.9957 197.506C87.0497 197.009 85.4858 195.692 87.9303 196.216C88.2577 195.307 88.5123 195.017 89.19 194.428C89.3138 194.319 89.623 194.486 89.6709 194.407C89.7689 194.245 89.7145 193.835 89.8642 193.527C90.1105 193.02 90.9096 193.125 89.9127 192.595C89.9442 192.178 89.9767 191.76 90.0104 191.339C90.265 191.338 90.5198 191.338 90.7747 191.337C90.6755 191.042 90.5828 190.738 90.4782 190.453C91.7544 191.494 91.6437 189.818 90.6115 189.716C91.2681 189.282 91.9286 188.842 92.5929 188.396C94.1252 189.444 93.6053 187.135 92.6694 186.735C92.7139 186.664 92.7601 186.59 92.8023 186.523C93.59 186.173 93.5838 185.404 94.3216 184.822C95.0603 184.239 95.173 184.401 96.0421 184.612C96.1083 184.408 96.1749 184.203 96.2417 183.998C94.816 181.837 98.1681 184.115 97.5901 181.603C99.1528 181.857 99.2532 180.198 99.3852 179.117C99.4011 178.99 99.1561 178.845 99.1576 178.672C99.1629 178.254 99.957 177.647 99.1534 177.199C99.5478 177.06 99.9429 176.92 100.339 176.78C100.333 176.466 100.327 176.151 100.322 175.836C100.075 175.689 99.8288 175.542 99.5822 175.395C100.698 175.44 100.816 174.516 101.235 174.275C101.318 174.229 101.67 174.411 101.892 174.252C102.154 174.066 102.338 173.534 102.627 173.294C102.323 172.95 102.018 172.605 101.714 172.26C101.838 171.593 102.946 171.998 103.217 171.723C103.265 171.674 103.835 170.567 103.849 170.496C103.961 169.931 103.057 169.52 104.033 168.31C104.208 168.093 104.617 168.077 104.758 167.869C105.007 167.503 105.04 165.948 104.483 165.486C105.529 165.486 105.983 164.024 106.419 163.801C106.552 163.733 107.056 164.003 107.362 163.731C107.61 163.51 107.643 162.571 107.918 162.262C108.212 161.935 108.703 162.049 108.832 161.9C108.954 161.759 108.71 161.414 108.841 161.2C109.257 160.536 110.16 160.244 110.493 159.713C110.96 158.972 110.382 157.713 110.33 156.814C110.489 156.694 110.793 156.665 110.895 156.5C112.177 154.44 113.736 152.259 115.196 150.31C115.882 149.389 118.635 147.83 116.033 147.123C115.839 146.564 118.19 144.686 118.486 144.225C118.779 143.768 118.603 143.159 118.818 142.788C119.451 141.697 120.194 141.112 120.648 139.573C120.764 139.175 120.514 138.521 120.643 138.32C120.799 138.078 121.415 138.087 121.637 137.784C121.811 137.544 122.005 137.218 122.206 136.862L129.995 141.679C129.562 142.403 129.104 143.225 128.743 143.67C128.643 143.791 128.221 143.583 127.978 143.689C127.043 144.084 126.524 144.965 127.874 145.63C126.541 146.117 126.644 147.362 126.084 148.284C124.961 150.146 122.349 153.295 121.743 155.189C121.331 156.431 121.896 156.8 120.358 157.898C120.01 158.15 119.629 158.369 119.214 158.662C118.256 159.328 116.61 159.427 117.254 161.015C116.155 161.776 115.729 162.728 114.134 162.646C114.296 162.929 114.457 163.213 114.617 163.497C114.521 163.623 114.424 163.748 114.328 163.873C114.075 163.721 113.821 163.568 113.568 163.415C112.799 164.197 112.742 166.065 112.044 166.799C110.964 167.997 107.495 170.703 105.834 171.387C104.984 171.762 105.258 172.322 104.121 171.539C104.013 171.719 103.859 171.923 103.725 172.11C103.756 172.421 103.781 172.734 103.8 173.048C102.644 173.716 100.913 174.121 98.8968 174.235C98.0339 174.283 96.7127 174.217 95.4194 173.591C94.1308 172.992 93.1012 171.901 92.5271 170.982C91.3553 169.065 91.1726 167.542 91.2964 166.364C91.3751 165.825 91.928 165.073 91.922 164.625C91.9155 164.184 91.5443 163.938 91.2695 163.574C91.2803 163.47 91.2966 163.159 91.3202 163.057C91.1846 162.815 91.0909 162.533 91.1566 162.172C91.444 160.447 93.4281 158.146 93.8177 156.929C93.9333 156.558 93.6645 156.261 93.7234 156.003C93.9597 154.937 94.3144 154.105 93.9865 153.264C95.0483 152.875 96.171 153.224 97.4014 153.1C97.8584 153.052 98.6362 152.906 99.3291 152.487C100.039 152.097 100.528 151.299 100.799 150.971C101.189 150.467 102.251 151.131 102.675 150.549C103.717 152.994 103.226 153.85 102.983 154.575C102.66 155.269 102.162 155.703 101.551 156.182C100.826 158.4 100.085 160.127 99.589 161.856C99.2207 161.91 98.8527 161.968 98.4844 162.034C98.4837 162.034 98.483 162.034 98.4823 162.034C97.9152 162.605 98.6879 163.105 98.8049 163.481C98.8882 163.751 98.9577 164.025 99.019 164.299L99.0626 163.855C99.3527 164.775 99.5526 165.777 99.7613 166.437C99.8503 166.744 99.9817 166.951 99.8727 166.797C99.8137 166.724 99.6649 166.565 99.4223 166.428C99.1846 166.291 98.882 166.217 98.7075 166.221C98.3363 166.237 98.5125 166.347 98.8138 166.284C99.1317 166.23 99.5722 166.076 100.017 165.87C100.902 165.467 101.855 164.848 102.545 164.309C103.23 163.812 104.976 161.435 105.761 161.365C105.974 161.345 106.383 161.665 106.518 161.552C107.347 160.206 108.115 158.851 108.886 157.439C111.543 155.49 113.053 152.398 114.857 149.676C117.586 145.556 120.167 141.293 122.713 137.052C125.318 132.952 132.103 137.148 129.599 141.311C127.638 144.762 125.689 148.094 123.637 151.399C122.757 152.812 121.931 154.935 120.864 156.224C120.417 156.766 119.556 156.586 119.619 157.681C119.423 157.574 119.226 157.466 119.03 157.359C118.853 158.176 119.012 158.899 118.591 159.697C118.233 160.375 117.233 162.101 116.82 162.62C116.607 162.891 116.315 162.566 116.152 162.84C115.876 163.312 115.746 164.648 115.352 165.301C114.993 165.898 113.981 166.645 113.77 167.131C113.016 168.862 112.507 171.088 111.311 172.703C110.979 173.148 110.14 173.492 110.058 173.656C109.905 173.972 110.302 174.333 110.239 174.568C109.916 175.766 108.437 177.007 107.832 177.962C105.793 181.187 103.95 184.686 101.93 187.842C100.654 189.838 98.686 193.273 97.238 194.9C96.916 195.267 96.489 194.859 96.2811 195.203C96.0511 195.583 96.2607 195.989 96.181 196.181C95.6408 197.5 94.3425 200.403 93.3164 201.326C93.1204 201.502 92.6399 201.423 92.5636 201.552C92.5234 201.618 92.7017 201.919 92.6008 202.146C91.696 204.175 90.7762 205.343 89.5684 207.126C87.3087 210.457 85.3746 214.731 82.8945 218.178C82.3462 218.943 81.2615 219.001 81.2023 219.114C81.0678 219.367 81.5032 219.807 81.3125 220.4C80.7058 222.317 78.8369 224.12 78.1044 225.867C77.769 226.688 77.7339 228.184 77.4187 229.004C77.1591 229.673 76.0084 230.936 76.1194 231.385C76.1835 231.662 76.6831 232.088 76.6262 232.33ZM80.5536 206.727C81.375 207.376 81.3243 205.799 80.5899 205.932C80.4242 205.963 80.3398 206.559 80.5536 206.727ZM114.124 154.665C113.864 154.522 113.603 154.38 113.343 154.237C113.36 154.447 113.373 154.665 113.389 154.879C113.593 154.886 113.797 154.893 114.001 154.9C114.043 154.821 114.084 154.742 114.124 154.665ZM136.336 171.403C136.391 171.465 136.004 171.393 135.969 171.432C135.819 171.594 135.54 171.577 135.336 171.7C135.034 171.882 135.255 172.806 132.701 171.919C132.701 171.919 132.701 171.919 132.701 171.919C132.676 171.911 132.651 171.902 132.625 171.893C132.139 171.721 131.63 171.473 131.083 171.273C130.536 171.073 126.98 169.847 126.811 169.69C126.592 169.47 127.61 169.476 127.593 169.393C127.582 169.337 127.278 169.167 127.241 169.088C127.123 168.83 127.394 168.809 126.575 168.335C127.062 168.424 127.549 168.512 128.036 168.6C127.852 168.436 128.511 168.505 128.496 168.438C128.484 168.383 128.126 168.232 128.125 168.179C128.122 168.118 128.545 168.171 128.518 168.054C128.476 167.863 127.529 167.512 127.439 167.376C127.346 167.235 127.918 167.257 127.623 167.018C127.523 166.967 127.423 166.916 127.323 166.865C127.081 166.797 126.839 166.728 126.597 166.66C126.507 166.56 127.004 166.696 127.033 166.641C127.066 166.577 126.615 166.387 126.632 166.342C126.647 166.305 127.035 166.378 127.028 166.321C127.02 166.24 126.478 166.077 126.391 166.005C126.357 165.977 126.154 165.598 126.155 165.581C126.173 165.454 126.911 165.686 127.007 165.61C127.271 165.4 126.767 164.932 126.623 164.611C126.558 164.468 126.638 164.367 126.791 164.296C128.618 165.08 130.209 165.168 127.215 164.359C127.674 164.373 126.906 164.028 127.078 163.956C127.19 163.909 127.616 163.988 127.639 163.877C127.679 163.68 126.582 163.102 128.702 163.715C128.403 163.373 129.228 163.419 127.395 162.753C127.299 162.66 128.453 162.86 128.624 162.842C128.785 162.825 129.432 162.51 129.484 162.44C129.536 162.371 129.608 162.245 129.465 162.13C129.289 161.985 127.375 161.335 129.677 161.883C129.547 161.658 129.63 161.617 129.94 161.539C129.996 161.525 130.333 161.624 130.338 161.607C130.349 161.573 130.119 161.439 130.107 161.368C130.088 161.252 130.812 161.408 129.73 161.093C129.569 160.972 129.408 160.851 129.247 160.73C129.462 160.77 129.678 160.809 129.893 160.848C129.677 160.744 129.46 160.641 129.244 160.537C130.794 161.047 129.947 160.52 129.026 160.334C129.387 160.302 129.749 160.27 130.111 160.237C131.882 160.782 130.4 160.013 129.425 159.754C129.431 159.74 129.437 159.726 129.443 159.711C129.953 159.722 129.601 159.49 129.964 159.425C130.328 159.36 130.497 159.425 131.33 159.615C131.294 159.564 131.257 159.513 131.221 159.462C129.032 158.618 132.911 159.775 131.284 158.943C132.727 159.24 132.061 158.762 131.682 158.465C131.638 158.431 131.364 158.353 131.287 158.302C131.102 158.178 131.502 158.108 130.615 157.866C130.888 157.879 131.16 157.893 131.433 157.906C131.285 157.813 131.137 157.72 130.989 157.628C130.713 157.551 130.436 157.475 130.159 157.398C131.129 157.564 130.808 157.312 131.054 157.3C131.104 157.298 131.487 157.4 131.604 157.382C131.742 157.362 131.657 157.23 131.794 157.199C131.378 157.058 130.961 156.917 130.545 156.777C130.346 156.6 131.475 156.864 131.58 156.819C131.598 156.811 131.578 156.567 131.557 156.549C131.394 156.4 130.434 156.172 130.714 155.945C130.764 155.905 131.105 155.952 131.13 155.91C131.175 155.836 130.49 155.397 129.803 155.197C130.694 155.329 130.408 154.976 130.678 154.965C130.761 154.962 131.315 155.099 131.451 155.059C131.562 155.025 131.157 154.763 131.25 154.709C131.351 154.652 131.822 154.743 131.864 154.716C131.903 154.691 131.536 154.565 131.549 154.521C131.598 154.384 132.233 154.41 132.272 154.301C132.33 154.144 131.254 153.725 130.794 153.471C130.874 153.456 131.12 153.482 131.131 153.448C131.272 153.028 131.593 152.593 131.933 152.216C132.089 152.044 133.72 151.886 131.16 151.443C130.733 151.275 131.867 151.001 131.903 150.907C131.94 150.814 131.503 150.638 131.512 150.561C131.542 150.33 131.905 150.239 131.567 149.879C131.479 149.785 130.956 149.595 130.971 149.554C130.991 149.506 131.523 149.56 131.57 149.501C131.678 149.36 131.566 149.032 131.687 148.899C131.71 148.876 132.171 148.958 132.322 148.948C132.913 148.906 132.899 148.721 131.428 148.463C132.299 148.43 131.575 148.099 131.563 147.91C131.553 147.728 131.645 147.499 131.695 147.262L140.251 151.319C140.024 151.573 139.835 151.868 139.948 152.261C140.076 152.714 140.579 153.158 139.892 153.057C139.739 153.034 139.554 152.981 139.372 152.953C138.941 152.891 137.894 152.198 138.852 153.355C138.387 153.283 138.433 153.63 137.386 152.876C137.588 153.107 137.79 153.338 137.991 153.569C137.974 153.598 137.956 153.626 137.938 153.655C137.724 153.457 137.51 153.259 137.296 153.06C137.081 153.165 137.714 154.225 137.563 154.359C137.314 154.585 136.376 154.822 135.89 154.728C135.632 154.679 136.042 155.151 135.117 154.255C135.15 154.345 135.184 154.435 135.217 154.525C135.388 154.749 135.558 154.974 135.729 155.199C135.581 155.345 135.113 155.175 134.972 155.303C134.716 155.537 134.817 156.468 134.226 156.299C134.076 156.258 133.624 155.879 133.564 155.938C133.476 156.023 134.067 156.783 133.959 156.895C133.767 157.092 132.683 156.535 132.542 156.759C132.501 156.824 132.7 157.124 132.685 157.186C132.621 157.449 132.469 157.534 132.654 158.095C131.905 157.514 131.177 156.571 130.373 155.676C129.766 155 128.332 153.457 127.819 152.85C127.459 152.424 127.055 151.828 126.655 151.361C126.548 150.819 126.961 151.18 127.664 151.723C127.934 151.461 128.206 151.197 128.471 150.935C128.71 151.173 128.949 151.41 129.188 151.648C129.188 151.648 129.189 151.649 129.189 151.65C129.545 151.858 129.045 151.151 128.979 150.952C128.354 149.039 130.35 149.266 131.061 148.892C131.216 148.812 131.289 148.122 131.746 148.436C131.866 148.518 132.231 148.883 132.269 148.878C132.258 148.461 132.237 148.048 132.207 147.638C133.178 147.793 133.1 146.897 133.385 146.384C133.498 146.182 133.607 145.98 133.717 145.773C135.959 142.381 140.376 144.754 140.124 148.811C140.139 150.358 140.108 151.899 139.673 153.334C139.574 153.656 139.854 154.161 139.534 154.426C139.402 154.537 138.581 154.398 139.141 154.718C138.923 154.667 138.705 154.617 138.487 154.566C138.713 154.781 139.184 154.999 139.192 155.183C139.199 155.338 139.137 155.727 139.022 155.834C138.964 155.89 138.565 155.764 138.551 155.826C138.532 155.932 139.036 156.298 138.998 156.444C138.965 156.576 138.442 156.678 138.484 156.795C138.63 157.219 139.216 157.797 138.928 158.136C138.847 158.23 138.287 158.226 138.292 158.264C138.305 158.337 138.808 158.493 138.862 158.555C139.132 158.867 138.433 159.051 138.35 159.261C138.076 159.949 138.085 160.76 137.789 161.435C137.602 161.862 137.473 162.624 136.972 162.916C136.864 162.979 136.319 162.79 136.297 162.863C136.272 162.945 136.632 163.101 136.65 163.149C136.783 163.475 136.981 164.174 136.523 164.304C136.436 164.329 135.994 164.23 135.986 164.259C135.982 164.273 136.267 164.397 136.283 164.451C136.426 164.931 136.164 165.166 135.941 165.523C135.516 166.204 135.786 167.238 135.236 167.919C135.116 168.067 134.229 167.903 134.23 167.929C134.23 167.987 134.79 168.208 134.896 168.361C135.244 168.864 134.478 169.135 134.652 169.562C134.738 169.774 135.384 170.245 135.49 170.46C135.574 170.633 135.186 170.843 135.484 171.008C135.664 171.109 136.273 171.334 136.336 171.403ZM128.154 163.916C129.137 164.255 128.389 163.757 127.829 163.675C127.703 163.657 127.899 163.828 128.154 163.916ZM133.04 153.3C132.751 153.233 132.462 153.165 132.173 153.098C132.286 153.158 132.398 153.218 132.511 153.279C132.688 153.303 132.866 153.327 133.044 153.351C133.043 153.334 133.042 153.317 133.04 153.3ZM114.778 228.265C114.821 228.358 114.42 228.325 114.371 228.399C114.165 228.71 113.865 228.747 113.612 229.004C113.234 229.384 113.237 230.914 110.687 230.02C110.687 230.02 110.686 230.02 110.686 230.02C110.661 230.011 110.636 230.002 110.611 229.993C110.126 229.817 109.637 229.514 109.094 229.304C108.55 229.093 104.997 227.859 104.856 227.621C104.679 227.285 105.794 227.025 105.799 226.882C105.803 226.784 105.519 226.561 105.502 226.428C105.446 225.999 105.749 225.893 104.992 225.252C105.5 225.286 106.008 225.319 106.515 225.353C106.363 225.106 107.063 225.065 107.067 224.95C107.07 224.855 106.723 224.674 106.738 224.58C106.753 224.473 107.201 224.462 107.207 224.26C107.219 223.929 106.288 223.534 106.232 223.312C106.174 223.082 106.794 222.982 106.545 222.625C106.452 222.558 106.358 222.49 106.264 222.423C106.02 222.358 105.777 222.294 105.533 222.229C105.466 222.07 105.968 222.195 106.017 222.09C106.074 221.965 105.639 221.733 105.673 221.648C105.701 221.578 106.103 221.616 106.114 221.516C106.131 221.37 105.589 221.206 105.516 221.097C105.488 221.055 105.39 220.416 105.397 220.384C105.459 220.149 106.193 220.395 106.323 220.237C106.68 219.799 106.284 219.066 106.235 218.519C106.213 218.274 106.336 218.073 106.529 217.909C108.264 218.923 109.975 218.742 106.971 217.931C107.47 217.855 106.746 217.401 106.961 217.231C107.1 217.122 107.539 217.175 107.603 216.969C107.715 216.604 106.718 215.785 108.823 216.458C108.615 215.904 109.501 215.823 107.735 214.985C107.664 214.835 108.854 214.968 109.047 214.903C109.23 214.84 110.05 214.151 110.132 214.018C110.214 213.885 110.339 213.645 110.225 213.463C110.085 213.237 108.238 212.412 110.548 212.983C110.488 212.601 110.594 212.514 110.962 212.321C111.028 212.286 111.358 212.405 111.37 212.374C111.394 212.311 111.194 212.11 111.208 211.985C111.231 211.78 111.96 211.937 110.9 211.555C110.77 211.365 110.641 211.174 110.512 210.984C110.731 211.018 110.951 211.053 111.171 211.088C110.974 210.937 110.778 210.787 110.582 210.636C112.075 211.297 111.354 210.491 110.423 210.306C110.829 210.189 111.235 210.072 111.642 209.955C113.359 210.654 112.043 209.509 111.085 209.193C111.096 209.166 111.108 209.14 111.12 209.113C111.672 209.052 111.38 208.688 111.801 208.517C112.221 208.347 112.379 208.439 113.208 208.658C113.189 208.572 113.17 208.486 113.151 208.4C111.11 207.198 114.859 208.723 113.425 207.462C114.871 207.798 114.337 207.039 114.047 206.556C114.014 206.5 113.748 206.396 113.686 206.314C113.536 206.116 113.998 205.94 113.137 205.617C113.426 205.606 113.716 205.596 114.006 205.585C113.884 205.437 113.762 205.289 113.64 205.141C113.373 205.037 113.105 204.933 112.837 204.829C113.818 205.009 113.575 204.597 113.846 204.545C113.901 204.535 114.272 204.673 114.406 204.627C114.564 204.575 114.527 204.348 114.688 204.276C114.297 204.07 113.906 203.865 113.516 203.66C113.376 203.362 114.484 203.71 114.616 203.62C114.639 203.603 114.72 203.168 114.705 203.138C114.593 202.888 113.654 202.579 114.054 202.138C114.126 202.059 114.473 202.109 114.518 202.031C114.599 201.893 114.052 201.168 113.399 200.872C114.303 201.02 114.149 200.411 114.445 200.364C114.536 200.351 115.07 200.55 115.235 200.464C115.368 200.394 115.05 199.955 115.174 199.849C115.307 199.737 115.773 199.862 115.83 199.811C115.883 199.762 115.544 199.565 115.579 199.484C115.692 199.233 116.362 199.231 116.452 199.032C116.584 198.745 115.621 198.068 115.244 197.637C115.337 197.603 115.589 197.634 115.616 197.571C115.958 196.801 116.506 195.984 117.043 195.288C117.293 194.961 119.098 194.62 116.589 193.913C116.216 193.62 117.553 193.079 117.637 192.908C117.721 192.737 117.343 192.428 117.391 192.287C117.536 191.862 117.962 191.694 117.785 191.036C117.738 190.866 117.28 190.524 117.317 190.449C117.362 190.359 117.897 190.452 117.976 190.344C118.161 190.083 118.207 189.483 118.402 189.238C118.439 189.194 118.881 189.347 119.046 189.328C119.688 189.253 119.766 188.92 118.352 188.432C119.283 188.38 118.692 187.767 118.779 187.414C118.965 186.671 119.79 185.51 119.442 184.668C119.222 184.138 118.593 183.908 119.353 183.544C119.522 183.463 119.732 183.399 119.934 183.3C120.408 183.069 121.69 183.183 120.403 182.373C120.918 182.11 120.784 181.693 122.089 181.851C121.817 181.707 121.544 181.563 121.272 181.419C121.283 181.367 121.295 181.315 121.306 181.264C121.585 181.352 121.863 181.441 122.142 181.529C122.348 181.208 121.399 180.331 121.519 180.037C121.721 179.545 122.642 178.421 123.186 178.086C123.476 177.908 122.895 177.677 124.153 177.981C124.09 177.893 124.028 177.805 123.965 177.717C123.715 177.584 123.464 177.45 123.214 177.317C123.324 176.99 123.875 176.759 123.984 176.45C124.183 175.886 123.766 174.776 124.447 174.39C124.619 174.292 125.229 174.312 125.273 174.171C125.338 173.966 124.451 173.59 124.526 173.328C124.656 172.882 126.004 172.434 126.071 171.988C126.092 171.856 125.775 171.679 125.769 171.581C125.74 171.171 125.873 170.881 125.47 170.355C126.47 170.292 127.583 170.715 128.757 170.996C129.644 171.208 131.722 171.628 132.486 171.85C133.022 172.006 133.665 172.342 134.258 172.505C134.564 173.12 133.987 173.134 133.043 173.216C132.835 173.911 132.63 174.594 132.418 175.286C132.081 175.235 131.743 175.183 131.405 175.132C131.405 175.132 131.404 175.131 131.403 175.131C130.947 175.259 131.719 175.66 131.853 175.866C133.135 177.85 130.785 179.98 130.037 181.365C129.877 181.666 129.913 182.851 129.322 182.874C129.168 182.88 128.679 182.712 128.635 182.763C128.721 183.404 128.806 184.045 128.891 184.685C127.723 185.492 127.909 186.854 127.601 187.995C126.765 191.083 125.993 194.164 124.736 197.021C124.493 197.572 124.572 198.429 124.124 198.884C123.938 199.075 123.128 198.867 123.585 199.395C123.375 199.316 123.166 199.237 122.957 199.159C123.104 199.52 123.511 199.877 123.444 200.188C123.386 200.451 123.159 201.119 122.993 201.307C122.909 201.405 122.537 201.21 122.497 201.317C122.432 201.501 122.817 202.099 122.719 202.349C122.63 202.575 122.032 202.781 122.028 202.981C122.011 203.702 122.409 204.641 121.968 205.241C121.846 205.406 121.248 205.447 121.239 205.51C121.225 205.634 121.702 205.859 121.735 205.96C121.903 206.469 121.086 206.841 120.915 207.211C120.359 208.411 120.067 209.797 119.502 210.988C119.146 211.739 118.736 213.062 118.093 213.633C117.954 213.756 117.432 213.509 117.382 213.638C117.327 213.782 117.661 213.999 117.665 214.077C117.692 214.623 117.67 215.785 117.131 216.083C117.028 216.14 116.582 216.04 116.565 216.091C116.555 216.116 116.821 216.283 116.821 216.374C116.815 217.176 116.454 217.621 116.095 218.274C115.412 219.522 115.379 221.25 114.576 222.531C114.402 222.809 113.487 222.708 113.48 222.754C113.462 222.854 114.005 223.121 114.075 223.361C114.302 224.157 113.391 224.784 113.457 225.485C113.49 225.831 114.06 226.497 114.115 226.845C114.158 227.122 113.68 227.568 113.958 227.784C114.126 227.915 114.728 228.163 114.778 228.265ZM108.153 216.931C109.111 217.336 108.466 216.595 107.882 216.564C107.751 216.557 107.905 216.825 108.153 216.931ZM117.724 197.184C117.446 197.08 117.168 196.975 116.891 196.87C116.983 196.972 117.076 197.075 117.168 197.177C117.347 197.21 117.526 197.243 117.704 197.277C117.711 197.246 117.717 197.215 117.724 197.184ZM137.417 174.9C137.303 175.031 136.948 174.763 136.772 174.815C136.034 175.03 135.67 174.881 134.981 174.968C133.955 175.135 131.327 176.336 130.749 173.678C130.749 173.677 130.749 173.677 130.749 173.677C130.743 173.652 130.737 173.625 130.731 173.599C130.624 173.095 130.707 172.498 130.6 171.924C130.493 171.351 129.597 167.698 129.802 167.43C130.103 167.072 131.224 167.758 131.41 167.652C131.533 167.583 131.588 167.206 131.729 167.095C132.179 166.737 132.546 166.865 132.633 165.826C132.992 166.207 133.365 166.58 133.751 166.943C133.895 166.631 134.54 167.038 134.675 166.931C134.786 166.843 134.681 166.463 134.798 166.383C134.928 166.291 135.339 166.548 135.569 166.351C135.947 166.028 135.522 165.106 135.704 164.853C135.892 164.592 136.573 164.825 136.722 164.316C136.705 164.196 136.688 164.076 136.671 163.956C136.509 163.761 136.348 163.565 136.187 163.369C136.289 163.169 136.632 163.562 136.788 163.475C136.975 163.372 136.803 162.902 136.925 162.828C137.025 162.767 137.369 163.011 137.485 162.908C137.656 162.757 137.308 162.309 137.35 162.156C137.363 162.11 137.703 161.659 137.882 161.434L137.031 162.128C137.073 162.049 137.103 161.994 137.111 161.985C137.383 161.682 137.954 162.205 138.229 162.025C138.988 161.529 139.191 160.444 139.608 159.695C139.793 159.361 140.091 159.127 140.437 158.956C141.424 160.768 143.422 160.952 140.894 159.098C141.496 159.12 141.11 158.324 141.481 158.153C141.722 158.044 142.146 158.227 142.387 157.971C142.824 157.503 142.447 156.154 144.134 157.588C144.372 156.8 145.405 156.898 144.211 155.337C144.262 155.118 145.425 155.594 145.685 155.557C145.934 155.518 147.404 154.783 147.595 154.63C147.793 154.472 148.134 154.173 148.161 153.902C148.199 153.562 146.891 152.012 148.904 153.334C149.154 152.808 149.347 152.707 149.901 152.533C150.002 152.502 150.26 152.739 150.298 152.701C150.376 152.621 150.323 152.305 150.437 152.141C150.628 151.872 151.293 152.246 150.458 151.488C150.475 151.199 150.491 150.912 150.504 150.626C150.713 150.723 150.922 150.82 151.131 150.917C151.04 150.67 150.949 150.423 150.857 150.177C151.936 151.408 151.809 150.151 150.95 149.695C151.486 149.623 152.019 149.555 152.547 149.489C153.846 150.813 153.338 148.966 152.545 148.336C152.579 148.303 152.613 148.269 152.647 148.235C153.294 148.266 153.245 147.729 153.842 147.572C154.431 147.423 154.53 147.582 155.262 148.046C155.306 147.925 155.35 147.805 155.394 147.685C154.083 145.654 157.022 148.44 156.396 146.453C157.723 147.172 157.711 146.02 157.732 145.31C157.736 145.226 157.52 145.04 157.51 144.917C157.489 144.618 158.109 144.451 157.392 143.874C157.709 143.911 158.032 143.938 158.357 143.963C158.325 143.739 158.29 143.518 158.253 143.298C158.03 143.117 157.807 142.937 157.584 142.756C158.526 143.149 158.527 142.545 158.851 142.509C158.917 142.502 159.235 142.738 159.408 142.692C159.612 142.638 159.698 142.333 159.921 142.241C159.617 141.915 159.311 141.592 159.003 141.271C159.012 140.858 160.012 141.45 160.205 141.335C160.244 141.309 160.551 140.719 160.545 140.681C160.528 140.349 159.692 139.843 160.255 139.331C160.355 139.239 160.708 139.313 160.779 139.215C160.915 139.036 160.497 138.152 159.85 137.836C160.293 137.948 160.494 137.827 160.596 137.708C160.699 137.591 160.711 137.465 160.848 137.458C160.932 137.453 161.484 137.603 161.626 137.533C161.749 137.453 161.317 137.242 161.389 137.258C161.473 137.258 161.952 137.243 161.985 137.23C162.016 137.219 161.631 137.273 161.64 137.306C161.656 137.354 161.832 137.377 161.994 137.346C162.157 137.32 162.3 137.245 162.305 137.242C162.287 137.197 161.52 138.054 161.271 138.502C161.287 138.461 161.328 138.367 161.351 138.292L161.757 138.474C161.816 138.437 161.867 138.41 161.907 138.421C162.205 138.509 162.498 138.486 162.606 138.441C162.725 138.394 162.688 138.35 162.576 138.351C162.34 138.352 161.849 138.516 161.363 138.741C160.929 138.908 158.81 138.763 160.869 140.391C161.052 140.827 159.31 141.106 159.096 141.328C158.886 141.532 159.08 142.011 158.936 142.182C158.495 142.709 157.921 142.862 157.684 143.78C157.625 144.017 157.899 144.551 157.811 144.649C157.702 144.768 157.184 144.561 157.028 144.701C156.658 145.037 156.224 145.869 155.854 146.197C155.785 146.256 155.398 145.993 155.205 146.003C154.454 146.039 154.153 146.517 155.401 147.344C154.347 147.328 154.605 148.27 154.294 148.766C153.626 149.817 151.989 151.46 151.841 152.725C151.747 153.523 152.3 153.903 151.222 154.396C150.983 154.506 150.708 154.588 150.419 154.722C149.74 155.039 148.39 154.783 149.287 156.077C148.538 156.436 148.405 157.072 147.057 156.741C147.262 156.976 147.468 157.212 147.673 157.448C147.624 157.524 147.576 157.6 147.527 157.677C147.277 157.524 147.028 157.37 146.778 157.216C146.322 157.687 146.765 159.075 146.409 159.513C146.058 159.948 145.231 160.715 144.423 161.334C143.897 161.73 143.42 162.037 143.077 162.203C142.637 162.407 143.107 162.82 141.949 162.205C141.954 162.34 141.96 162.473 141.968 162.605C142.147 162.831 142.326 163.055 142.506 163.279C142.151 163.731 141.396 163.97 141.067 164.391C140.457 165.169 140.212 166.756 139.222 167.242C138.968 167.369 138.318 167.272 138.171 167.482C137.958 167.783 138.675 168.435 138.372 168.86C137.833 169.637 135.821 170.21 135.348 170.807C135.197 170.998 135.384 171.319 135.292 171.467C134.931 172.068 134.522 172.431 134.451 173.275C133.329 173.081 132.531 172.195 131.549 171.474C130.813 170.925 129.009 169.745 128.407 169.222C127.985 168.854 127.619 168.211 127.144 167.815C127.37 166.917 127.961 167.095 129.022 167.265C129.812 166.439 130.592 165.607 131.223 164.83C131.537 164.98 131.849 165.131 132.168 165.272C132.169 165.273 132.169 165.273 132.17 165.274C132.728 165.211 132.163 164.531 132.139 164.244C131.875 161.416 136.165 158.287 137.977 156.505C138.052 156.428 138.145 156.303 138.252 156.149C138.652 155.565 139.239 154.489 139.772 154.523C139.942 154.537 140.365 154.836 140.446 154.769C140.774 153.854 141.09 152.932 141.399 152.011C143.189 150.966 143.834 148.958 144.89 147.306C147.797 142.836 150.437 138.263 154.757 134.169C155.604 133.393 156.554 132.052 157.969 131.492C158.575 131.261 159.135 131.877 159.727 130.966C159.818 131.17 159.907 131.375 159.997 131.581C160.655 131.059 161.1 130.35 162.453 130.265C162.938 130.244 163.855 130.298 164.783 130.656C164.868 130.678 165.098 130.804 165.18 130.834C165.924 131.193 166.727 131.814 167.053 132.207C167.352 132.561 166.938 132.733 167.221 133.048C167.701 133.502 169.098 134.892 169.225 136.024C169.422 137.062 168.794 138.373 168.751 138.853C168.609 140.767 168.454 142.545 167.533 143.725C167.283 144.035 166.551 144.17 166.496 144.28C166.392 144.496 166.796 144.838 166.763 145.007C166.592 145.878 165.354 146.498 164.898 147.04C163.357 148.887 161.915 150.863 160.312 152.468C159.286 153.499 157.752 155.25 156.553 155.918C156.299 156.059 155.936 155.605 155.773 155.773C155.592 155.96 155.773 156.333 155.71 156.443C155.279 157.205 154.257 158.808 153.42 159.088C153.259 159.142 152.861 158.903 152.798 158.968C152.765 159.001 152.911 159.292 152.831 159.418C152.147 160.506 151.356 161.045 150.413 161.839C148.597 163.375 147.06 165.714 145.082 167.249C144.655 167.579 143.761 167.209 143.714 167.269C143.608 167.4 143.957 167.9 143.822 168.245C143.76 168.401 143.678 168.547 143.582 168.685C143.485 168.807 143.11 169.067 142.991 169.167C142.189 169.926 140.845 170.259 140.127 170.991C139.72 171.41 139.401 172.473 138.948 172.908C138.595 173.258 137.422 173.506 137.36 173.899C137.323 174.14 137.536 174.757 137.417 174.9ZM143.012 158.056C143.695 158.843 143.636 157.681 143.035 157.493C142.9 157.451 142.836 157.851 143.012 158.056ZM162.086 136.769C162.189 137.048 162.29 137.327 162.391 137.606C162.38 137.479 162.371 137.353 162.365 137.226C162.303 137.058 162.232 136.893 162.153 136.73C162.132 136.743 162.109 136.755 162.086 136.769ZM199.046 139.084C199.085 139.235 198.663 139.331 198.605 139.481C198.359 140.105 198.035 140.271 197.732 140.793C197.302 141.564 196.964 144.167 194.391 143.275C194.391 143.275 194.391 143.275 194.391 143.275C194.366 143.266 194.341 143.256 194.316 143.246C193.845 143.036 193.388 142.65 192.85 142.425C192.312 142.197 188.769 140.935 188.649 140.642C188.503 140.224 189.691 139.682 189.707 139.475C189.719 139.336 189.439 139.078 189.428 138.899C189.393 138.318 189.711 138.098 188.93 137.403C189.451 137.336 189.973 137.263 190.494 137.181C190.332 136.881 191.044 136.636 191.04 136.472C191.037 136.339 190.672 136.191 190.679 136.059C190.684 135.911 191.136 135.76 191.117 135.484C191.106 135.327 190.979 135.199 190.814 135.089C190.497 134.92 190.045 134.822 189.968 134.733C189.848 134.613 190.384 134.419 190.03 134.472C189.921 134.493 189.813 134.521 189.707 134.556C189.46 134.601 189.212 134.64 188.962 134.672C188.865 134.782 189.375 134.704 189.418 134.8C189.472 134.92 189.084 135.245 189.187 135.416C189.276 135.56 189.724 135.517 189.865 135.695C190.087 135.96 189.677 136.341 189.806 136.575C189.828 136.62 190.194 136.987 190.607 137.217C191.019 137.456 191.384 137.562 191.417 137.569C191.986 137.626 191.932 136.821 192.101 136.732C192.317 136.593 192.396 136.664 192.522 136.787L192.628 136.723C192.431 137.035 192.28 137.387 192.103 137.649C191.942 137.888 191.696 138.01 191.408 138.071C190.585 136.213 188.836 135.604 191.022 137.833C190.513 137.669 190.862 138.461 190.56 138.529C190.363 138.575 189.983 138.333 189.787 138.522C189.435 138.865 189.93 140.089 188.271 138.628C188.131 139.315 187.178 139.174 188.49 140.629C188.485 140.811 187.348 140.348 187.116 140.379C186.897 140.396 185.668 141.088 185.508 141.26C185.356 141.412 185.101 141.702 185.128 141.955C185.153 142.281 186.721 143.558 184.551 142.539C184.424 143.055 184.279 143.149 183.795 143.379C183.708 143.42 183.41 143.235 183.383 143.276C183.328 143.359 183.444 143.654 183.377 143.815C183.264 144.085 182.551 143.832 183.519 144.41C183.574 144.675 183.63 144.94 183.686 145.207C183.464 145.152 183.246 145.091 183.025 145.034C183.173 145.246 183.321 145.457 183.47 145.668C182.143 144.71 182.581 145.843 183.506 146.122C183.019 146.275 182.542 146.417 182.058 146.577C180.486 145.592 181.443 147.213 182.363 147.637C182.341 147.673 182.318 147.709 182.296 147.746C181.682 147.827 181.86 148.333 181.341 148.588C180.83 148.83 180.692 148.709 179.875 148.425C179.865 148.546 179.854 148.668 179.844 148.79C181.622 150.418 178.103 148.412 179.219 150.141C177.765 149.749 178.082 150.814 178.242 151.484C178.26 151.562 178.513 151.693 178.555 151.806C178.653 152.079 178.09 152.381 178.923 152.772C178.608 152.806 178.293 152.842 177.977 152.88C178.062 153.083 178.148 153.286 178.234 153.49C178.492 153.617 178.749 153.743 179.007 153.87C178.002 153.694 178.13 154.286 177.827 154.374C177.765 154.393 177.405 154.228 177.248 154.304C177.062 154.393 177.035 154.716 176.839 154.839C177.201 155.098 177.563 155.357 177.925 155.616C177.989 156.032 176.886 155.654 176.721 155.791C176.692 155.816 176.482 156.451 176.489 156.495C176.539 156.848 177.469 157.186 176.908 157.885C176.81 158.004 176.45 157.968 176.38 158.086C176.257 158.291 176.651 159.282 177.276 159.635C176.337 159.534 176.342 160.401 176.012 160.501C175.911 160.532 175.386 160.309 175.186 160.455C175.023 160.573 175.252 161.176 175.089 161.351C174.915 161.535 174.441 161.421 174.368 161.499C174.299 161.576 174.615 161.817 174.558 161.938C174.374 162.315 173.648 162.413 173.499 162.72C173.282 163.165 174.153 164.025 174.458 164.594C174.35 164.656 174.085 164.646 174.041 164.742C173.473 165.941 172.702 167.186 171.945 168.325C171.607 168.824 169.575 169.627 172.121 170.269C172.45 170.652 170.889 171.653 170.76 171.919C170.631 172.184 170.968 172.581 170.883 172.799C170.624 173.467 170.132 173.772 170.178 174.711C170.191 174.954 170.608 175.385 170.552 175.503C170.482 175.645 169.925 175.597 169.815 175.774C169.746 175.885 169.683 176.031 169.621 176.193L161.286 172.431C161.486 171.988 161.666 171.441 161.879 171.159C161.933 171.09 162.366 171.267 162.551 171.221C163.273 171.044 163.457 170.551 162.074 169.981C163.104 169.8 162.649 168.966 162.852 168.437C163.282 167.329 164.524 165.543 164.391 164.35C164.305 163.604 163.695 163.33 164.615 162.723C164.82 162.586 165.064 162.471 165.308 162.308C165.885 161.916 167.237 161.933 166.063 160.908C166.685 160.469 166.643 159.887 168.006 159.952C167.749 159.777 167.491 159.603 167.233 159.429C167.258 159.353 167.283 159.277 167.308 159.2C167.585 159.293 167.863 159.386 168.141 159.479C168.443 158.979 167.618 157.85 167.807 157.412C168.132 156.679 169.301 154.954 169.917 154.377C170.249 154.07 169.663 153.849 170.952 154.053C170.897 153.938 170.842 153.824 170.786 153.711C170.538 153.567 170.29 153.424 170.041 153.282C170.191 152.802 170.791 152.365 170.926 151.904C171.179 151.055 170.77 149.611 171.458 148.891C171.633 148.71 172.26 148.571 172.3 148.357C172.358 148.046 171.433 147.773 171.493 147.387C171.499 147.348 171.51 147.307 171.524 147.266C171.529 147.25 171.536 147.199 171.541 147.183C171.773 146.606 172.783 146.174 172.667 146.009C172.634 145.956 172.278 146.01 172.235 145.995C172.053 145.937 172.01 145.749 171.382 145.758C172.015 145.008 173.001 144.351 173.927 143.568C174.624 142.974 176.09 141.398 176.686 140.868C177.11 140.501 177.811 140.249 178.27 139.834C179.199 140.312 179.016 141.029 178.647 142.184C179.454 143.516 179.925 145.853 179.696 147.422C179.346 147.527 178.996 147.616 178.645 147.692C178.644 147.692 178.643 147.692 178.643 147.691C178.179 148.149 178.98 148.506 179.114 148.821C179.118 148.829 179.121 148.837 179.124 148.845L179.137 148.784C180.534 151.515 177.775 155.73 176.663 157.958C176.434 158.457 176.198 160.278 175.55 160.412C175.382 160.447 174.894 160.275 174.834 160.361C174.772 161.315 174.694 162.278 174.612 163.228C173.128 164.607 172.931 166.609 172.251 168.338C171.201 171.003 170.159 173.631 169.043 176.211C166.917 180.582 159.789 177.364 161.655 172.876C162.396 170.85 163.166 168.904 164.043 166.981C164.444 166.103 164.551 164.874 165.159 164.098C165.409 163.782 166.234 163.964 165.867 163.256C166.075 163.341 166.282 163.425 166.489 163.51C166.413 163.008 166.068 162.527 166.222 162.047C166.356 161.634 166.762 160.631 166.997 160.311C167.116 160.149 167.468 160.386 167.54 160.218C167.661 159.93 167.402 159.093 167.573 158.712C167.723 158.377 168.443 157.954 168.5 157.66C168.708 156.601 168.562 155.21 169.209 154.279C169.396 154.008 170.061 153.868 170.089 153.772C170.144 153.583 169.693 153.306 169.687 153.16C169.653 152.431 170.678 151.743 170.979 151.183C171.981 149.31 172.797 147.194 173.907 145.353C174.6 144.194 175.647 142.181 176.669 141.291C176.885 141.105 177.333 141.476 177.456 141.278C177.594 141.058 177.339 140.733 177.377 140.614C177.614 139.816 178.355 138.016 179.157 137.608C179.31 137.527 179.74 137.706 179.793 137.632C179.82 137.595 179.635 137.327 179.697 137.192C180.26 135.986 181.004 135.356 181.961 134.455C183.714 132.791 185.627 130.438 188.031 129.283C188.046 129.271 188.1 129.244 188.115 129.232C188.213 129.183 188.312 129.136 188.412 129.092C189.329 128.683 190.284 129.38 190.392 129.343C190.68 129.264 190.738 128.607 191.516 128.415C192.74 128.049 195.103 128.771 196.192 130.411C197.291 131.991 197.287 133.316 197.5 134.195C197.628 134.79 197.959 135.493 198.157 136.138C198.264 136.382 198.349 136.617 198.372 136.815C198.432 137.306 197.925 138.297 198.207 138.56C198.378 138.722 199 138.92 199.046 139.084ZM189.235 138.345C188.575 137.537 188.705 138.599 189.261 138.843C189.384 138.899 189.405 138.554 189.235 138.345ZM171.665 165.63C171.94 165.742 172.215 165.855 172.489 165.968C172.413 165.832 172.337 165.699 172.262 165.562C172.076 165.541 171.892 165.516 171.708 165.493C171.693 165.539 171.679 165.584 171.665 165.63ZM205.23 157.389C205.289 157.437 204.915 157.327 204.885 157.345C204.76 157.419 204.493 157.361 204.312 157.403C204.045 157.464 204.351 158.083 201.835 157.094C201.835 157.094 201.835 157.094 201.835 157.094C201.81 157.085 201.785 157.075 201.76 157.065C201.281 156.875 200.772 156.633 200.232 156.414C199.692 156.196 196.19 154.824 196.013 154.696C195.782 154.521 196.749 154.696 196.725 154.641C196.708 154.604 196.403 154.446 196.359 154.39C196.22 154.208 196.476 154.242 195.649 153.806C196.12 153.944 196.591 154.083 197.063 154.221C196.871 154.087 197.504 154.242 197.483 154.197C197.466 154.16 197.111 154.005 197.105 153.971C197.096 153.933 197.504 154.037 197.467 153.959C197.407 153.832 196.472 153.451 196.373 153.351C196.271 153.247 196.817 153.358 196.513 153.159C196.412 153.11 196.312 153.061 196.212 153.013C195.975 152.928 195.738 152.844 195.502 152.76C195.406 152.682 195.892 152.853 195.914 152.823C195.939 152.789 195.491 152.594 195.503 152.568C195.514 152.548 195.89 152.659 195.878 152.622C195.862 152.57 195.332 152.375 195.241 152.316C195.206 152.292 194.977 152.02 194.976 152.009C194.982 151.932 195.706 152.204 195.79 152.173C196.021 152.087 195.496 151.711 195.329 151.486C195.254 151.385 195.321 151.335 195.46 151.317C197.273 152.12 198.797 152.447 195.87 151.429C196.308 151.516 195.545 151.169 195.702 151.154C195.805 151.144 196.217 151.267 196.23 151.202C196.249 151.086 195.15 150.541 197.228 151.286C196.912 151.021 197.703 151.191 195.896 150.461C195.797 150.387 196.915 150.71 197.076 150.729C197.228 150.746 197.818 150.664 197.862 150.63C197.906 150.596 197.964 150.53 197.818 150.433C197.637 150.313 195.753 149.581 198 150.317C197.856 150.155 197.932 150.144 198.222 150.15C198.274 150.151 198.604 150.27 198.608 150.261C198.615 150.242 198.384 150.119 198.367 150.074C198.339 150 199.044 150.221 197.983 149.84C197.819 149.738 197.656 149.635 197.492 149.532C197.701 149.594 197.91 149.655 198.119 149.716C197.904 149.615 197.689 149.513 197.473 149.412C198.997 149.994 198.145 149.523 197.249 149.249C197.592 149.291 197.936 149.334 198.279 149.376C200.018 150.018 198.538 149.289 197.585 148.962C197.589 148.954 197.593 148.946 197.598 148.939C198.087 149.034 197.731 148.832 198.075 148.854C198.418 148.876 198.585 148.945 199.398 149.205C199.359 149.168 199.321 149.13 199.283 149.092C197.12 148.197 200.926 149.574 199.303 148.785C200.71 149.215 200.034 148.811 199.649 148.562C199.605 148.533 199.336 148.438 199.258 148.394C199.072 148.286 199.452 148.311 198.582 148.011C198.845 148.066 199.108 148.121 199.37 148.175C199.222 148.093 199.073 148.011 198.925 147.93C198.654 147.835 198.382 147.741 198.111 147.647C199.054 147.915 198.728 147.707 198.964 147.742C199.011 147.75 199.386 147.877 199.497 147.887C199.629 147.898 199.537 147.806 199.667 147.808C199.257 147.651 198.847 147.494 198.437 147.337C198.234 147.195 199.337 147.549 199.435 147.539C199.453 147.537 199.417 147.385 199.396 147.371C199.229 147.253 198.29 146.95 198.543 146.862C198.588 146.846 198.919 146.933 198.941 146.912C198.979 146.876 198.291 146.494 197.616 146.256C198.484 146.486 198.185 146.225 198.444 146.264C198.524 146.276 199.066 146.453 199.195 146.452C199.299 146.451 198.893 146.225 198.979 146.209C199.072 146.192 199.532 146.326 199.571 146.317C199.607 146.309 199.244 146.172 199.255 146.148C199.293 146.073 199.909 146.194 199.94 146.135C199.986 146.05 198.922 145.619 198.461 145.392C198.538 145.396 198.777 145.453 198.786 145.435C198.895 145.213 199.182 145.001 199.488 144.839C199.63 144.763 201.202 144.93 198.696 144.258C198.273 144.089 199.355 144.119 199.386 144.067C199.417 144.018 198.982 143.846 198.988 143.803C199.004 143.674 199.351 143.679 199.003 143.422C198.911 143.356 198.393 143.165 198.405 143.145C198.421 143.12 198.943 143.233 198.985 143.206C199.083 143.141 198.956 142.94 199.066 142.885C199.087 142.876 199.54 142.991 199.687 143.008C200.262 143.071 200.239 142.962 198.789 142.602C199.637 142.711 198.913 142.421 198.89 142.318C198.847 142.094 199.27 141.819 198.695 141.513C198.331 141.323 197.675 141.186 198.271 141.164C198.403 141.158 198.58 141.159 198.738 141.15C199.109 141.131 200.342 141.273 198.891 140.924C199.29 140.896 199.034 140.766 200.304 140.908C200.004 140.846 199.704 140.785 199.404 140.725C199.399 140.712 199.394 140.698 199.388 140.685C199.676 140.73 199.965 140.774 200.253 140.818C200.346 140.739 199.18 140.437 199.198 140.374C199.229 140.263 199.725 140.04 200.125 139.972C200.338 139.934 199.715 139.884 200.999 139.952C200.91 139.932 200.822 139.912 200.734 139.893C200.454 139.865 200.174 139.838 199.894 139.812C199.887 139.753 200.327 139.698 200.325 139.641C200.32 139.526 199.544 139.428 200.049 139.361C200.176 139.342 200.754 139.281 200.746 139.265C200.735 139.243 199.776 139.332 199.758 139.333C199.731 139.347 200.831 139.152 200.75 139.177C200.728 139.189 200.386 139.296 200.353 139.318C200.212 139.418 200.253 139.453 199.802 139.796C200.696 139.528 201.734 138.934 202.783 138.351C203.584 137.924 205.31 136.715 205.941 136.232C206.393 135.903 207.047 135.592 207.543 135.228C208.23 135.396 207.876 135.911 207.203 136.524C207.461 137.039 207.607 137.483 207.719 137.9C207.397 137.999 207.073 138.093 206.748 138.181C206.747 138.181 206.746 138.181 206.746 138.181C206.385 138.371 207.245 138.3 207.45 138.357C209.438 138.989 207.918 140.422 207.634 140.919C207.577 141.041 207.97 141.528 207.418 141.532C207.274 141.534 206.762 141.466 206.736 141.485C207.01 141.735 207.281 141.985 207.548 142.243C206.683 142.52 207.252 143.048 207.282 143.48C207.364 144.641 207.473 145.774 207.056 146.738C206.974 146.923 207.269 147.283 206.973 147.394C206.85 147.441 206.048 147.225 206.606 147.512C206.393 147.446 206.179 147.38 205.965 147.314C206.195 147.483 206.662 147.695 206.68 147.81C206.695 147.905 206.656 148.135 206.551 148.182C206.498 148.207 206.105 148.064 206.095 148.101C206.082 148.163 206.589 148.473 206.561 148.558C206.536 148.632 206.038 148.608 206.085 148.687C206.252 148.97 206.849 149.434 206.595 149.59C206.523 149.633 205.983 149.537 205.991 149.561C206.008 149.609 206.502 149.79 206.558 149.837C206.838 150.074 206.176 150.077 206.111 150.188C205.895 150.564 205.961 151.07 205.727 151.437C205.577 151.674 205.516 152.115 205.058 152.214C204.96 152.235 204.423 152.024 204.408 152.066C204.391 152.113 204.747 152.272 204.769 152.304C204.922 152.527 205.17 152.994 204.744 152.998C204.662 152.999 204.231 152.861 204.227 152.878C204.224 152.886 204.506 153.012 204.526 153.049C204.704 153.371 204.475 153.47 204.293 153.654C203.946 154.008 204.3 154.695 203.841 155.025C203.741 155.096 202.882 154.842 202.885 154.858C202.891 154.894 203.445 155.128 203.56 155.241C203.939 155.616 203.237 155.655 203.446 155.95C203.548 156.096 204.21 156.501 204.331 156.654C204.429 156.777 204.082 156.843 204.381 156.997C204.562 157.091 205.164 157.336 205.23 157.389ZM196.724 151.315C197.691 151.695 196.933 151.258 196.392 151.11C196.271 151.077 196.472 151.217 196.724 151.315ZM200.623 145.663C200.339 145.575 200.055 145.487 199.772 145.399C199.884 145.454 199.997 145.509 200.109 145.563C200.282 145.607 200.455 145.651 200.629 145.694C200.627 145.684 200.625 145.673 200.623 145.663ZM196.067 179.949C196.122 180.003 195.746 179.895 195.714 179.919C195.577 180.018 195.307 179.967 195.116 180.03C194.834 180.123 195.094 180.845 192.586 179.834C192.586 179.834 192.586 179.834 192.586 179.834C192.562 179.824 192.537 179.814 192.512 179.804C192.035 179.609 191.532 179.354 190.994 179.129C190.457 178.904 186.967 177.502 186.797 177.358C186.576 177.159 187.561 177.295 187.542 177.23C187.528 177.184 187.228 177.014 187.19 176.948C187.065 176.734 187.326 176.754 186.517 176.279C186.991 176.411 187.466 176.544 187.94 176.677C187.756 176.526 188.395 176.668 188.379 176.614C188.365 176.57 188.014 176.406 188.011 176.365C188.006 176.318 188.417 176.416 188.387 176.322C188.34 176.169 187.413 175.769 187.322 175.652C187.228 175.53 187.782 175.625 187.489 175.4C187.391 175.347 187.293 175.294 187.194 175.241C186.958 175.154 186.722 175.068 186.486 174.982C186.396 174.892 186.882 175.066 186.907 175.027C186.938 174.981 186.496 174.772 186.512 174.74C186.525 174.713 186.903 174.824 186.894 174.779C186.884 174.714 186.356 174.513 186.269 174.445C186.236 174.419 186.031 174.095 186.031 174.082C186.046 173.985 186.766 174.269 186.857 174.224C187.108 174.098 186.61 173.663 186.465 173.393C186.4 173.272 186.476 173.205 186.623 173.171C188.405 174.044 189.946 174.346 187.034 173.282C187.479 173.359 186.73 172.98 186.896 172.949C187.003 172.929 187.417 173.053 187.438 172.97C187.474 172.823 186.406 172.209 188.465 173.004C188.171 172.694 188.969 172.856 187.19 172.06C187.097 171.973 188.215 172.304 188.381 172.317C188.536 172.328 189.161 172.185 189.211 172.141C189.26 172.096 189.33 172.01 189.191 171.898C189.02 171.759 187.167 170.953 189.396 171.742C189.269 171.547 189.35 171.529 189.65 171.52C189.704 171.518 190.03 171.648 190.035 171.637C190.045 171.612 189.822 171.472 189.811 171.416C189.793 171.323 190.493 171.561 189.447 171.142C189.292 171.022 189.136 170.903 188.981 170.783C189.189 170.849 189.398 170.914 189.606 170.98C189.397 170.864 189.188 170.749 188.979 170.633C190.476 171.282 189.659 170.737 188.769 170.44C189.12 170.475 189.47 170.511 189.82 170.546C191.53 171.262 190.102 170.423 189.162 170.059C189.168 170.048 189.173 170.038 189.179 170.028C189.673 170.122 189.335 169.883 189.688 169.896C190.04 169.908 190.203 169.987 191.006 170.276C190.971 170.231 190.937 170.186 190.903 170.141C188.798 169.114 192.532 170.674 190.972 169.754C192.362 170.235 191.726 169.753 191.365 169.459C191.323 169.425 191.059 169.317 190.986 169.264C190.81 169.136 191.198 169.154 190.346 168.809C190.609 168.868 190.873 168.927 191.136 168.986C190.995 168.888 190.855 168.791 190.714 168.693C190.449 168.584 190.183 168.475 189.917 168.366C190.851 168.669 190.547 168.418 190.786 168.454C190.834 168.461 191.201 168.609 191.315 168.617C191.449 168.627 191.37 168.511 191.504 168.512C191.105 168.327 190.707 168.143 190.308 167.958C190.122 167.785 191.205 168.196 191.308 168.182C191.326 168.179 191.314 167.989 191.295 167.971C191.142 167.826 190.222 167.471 190.5 167.35C190.55 167.328 190.878 167.429 190.904 167.401C190.951 167.353 190.306 166.885 189.65 166.599C190.507 166.87 190.245 166.544 190.507 166.588C190.587 166.601 191.116 166.814 191.249 166.81C191.358 166.806 190.979 166.525 191.072 166.502C191.172 166.478 191.623 166.64 191.665 166.628C191.703 166.616 191.355 166.447 191.37 166.416C191.423 166.321 192.037 166.467 192.08 166.392C192.143 166.285 191.126 165.748 190.695 165.459C190.773 165.463 191.01 165.533 191.023 165.509C191.182 165.215 191.521 164.946 191.874 164.73C192.037 164.63 193.622 164.861 191.184 163.973C190.784 163.75 191.9 163.785 191.943 163.722C191.986 163.659 191.578 163.427 191.594 163.37C191.642 163.199 191.999 163.211 191.706 162.859C191.629 162.768 191.142 162.503 191.16 162.475C191.183 162.442 191.693 162.604 191.744 162.57C191.861 162.485 191.785 162.208 191.914 162.135C191.939 162.122 192.375 162.292 192.522 162.319C193.096 162.424 193.101 162.281 191.709 161.738C192.552 161.917 191.89 161.494 191.899 161.345C191.923 161.03 192.451 160.659 191.968 160.18C191.664 159.878 191.041 159.63 191.668 159.625C191.807 159.623 191.987 159.638 192.153 159.636C192.544 159.63 193.744 159.965 192.405 159.297C192.827 159.287 192.624 159.057 193.853 159.42C193.575 159.291 193.298 159.163 193.02 159.034C193.02 159.012 193.021 158.99 193.022 158.968C193.295 159.071 193.568 159.175 193.84 159.278C193.969 159.17 192.928 158.546 192.983 158.432C193.075 158.241 193.71 157.912 194.15 157.874C194.383 157.853 193.806 157.615 195.02 158.038C194.946 157.983 194.872 157.928 194.798 157.872C194.543 157.753 194.287 157.635 194.032 157.516C194.072 157.385 194.538 157.397 194.582 157.276C194.661 157.055 194.075 156.435 194.634 156.406C194.775 156.398 195.342 156.543 195.357 156.486C195.38 156.404 194.494 156.029 194.517 155.923C194.557 155.741 195.724 155.832 195.709 155.638C195.705 155.58 195.381 155.426 195.359 155.379C195.261 155.18 195.334 155.074 194.872 154.737C195.787 154.932 196.89 155.38 198.025 155.775C198.882 156.073 200.879 156.738 201.624 157.013C202.147 157.207 202.799 157.509 203.377 157.719C203.764 158.074 203.232 157.951 202.372 157.777C202.299 158.056 202.229 158.328 202.155 158.607C201.834 158.507 201.513 158.407 201.192 158.307C201.191 158.307 201.191 158.307 201.19 158.306C200.79 158.264 201.576 158.625 201.736 158.752C203.272 159.969 201.496 160.454 201.07 160.944C200.978 161.052 201.236 161.62 200.696 161.502C200.556 161.47 200.074 161.283 200.044 161.298C200.244 161.622 200.446 161.943 200.647 162.267C199.729 162.393 200.164 163.084 200.104 163.56C199.94 164.851 199.847 166.154 199.265 167.248C199.151 167.46 199.395 167.885 199.075 168.007C198.943 168.058 198.159 167.78 198.683 168.134C198.475 168.05 198.268 167.966 198.061 167.883C198.268 168.088 198.712 168.347 198.712 168.482C198.712 168.596 198.637 168.866 198.522 168.92C198.464 168.949 198.085 168.773 198.069 168.816C198.047 168.889 198.519 169.26 198.478 169.359C198.442 169.448 197.935 169.415 197.971 169.511C198.099 169.85 198.649 170.39 198.364 170.581C198.284 170.632 197.744 170.519 197.749 170.548C197.76 170.604 198.241 170.817 198.292 170.873C198.546 171.154 197.87 171.153 197.786 171.292C197.513 171.743 197.516 172.342 197.229 172.787C197.048 173.067 196.927 173.608 196.446 173.738C196.342 173.766 195.815 173.531 195.794 173.582C195.771 173.639 196.119 173.817 196.137 173.855C196.266 174.122 196.467 174.671 196.028 174.693C195.943 174.697 195.515 174.55 195.509 174.57C195.505 174.58 195.781 174.719 195.797 174.763C195.943 175.142 195.695 175.275 195.487 175.505C195.091 175.945 195.378 176.76 194.87 177.186C194.759 177.278 193.898 177.023 193.9 177.043C193.902 177.086 194.449 177.336 194.557 177.465C194.909 177.895 194.18 177.984 194.365 178.331C194.456 178.502 195.098 178.948 195.209 179.125C195.297 179.266 194.933 179.367 195.227 179.533C195.405 179.634 196.003 179.889 196.067 179.949ZM187.937 173.076C188.893 173.485 188.162 172.988 187.62 172.841C187.498 172.808 187.689 172.97 187.937 173.076ZM192.876 165.788C192.6 165.677 192.325 165.566 192.05 165.454C192.155 165.523 192.26 165.593 192.365 165.662C192.535 165.717 192.706 165.772 192.876 165.828C192.876 165.814 192.876 165.801 192.876 165.788ZM293.934 179.343C294.428 179.266 295.163 179.623 295.802 179.591C298.448 179.433 299.541 179.498 302.091 179.12C305.913 178.714 316.984 174.312 317.943 176.755C317.943 176.755 317.943 176.755 317.943 176.755C317.952 176.78 317.96 176.806 317.968 176.832C318.107 177.33 317.328 178.221 317.386 178.819C317.438 179.42 318.869 182.907 317.494 183.626C315.521 184.658 310.162 185.351 309.035 185.684C308.265 185.934 307.393 186.527 306.393 186.841C303.149 187.838 301.395 187.944 298.371 189.271C297.047 188.937 295.734 188.552 294.447 188.095C292.776 188.395 290.219 187.533 289.194 187.336C288.333 187.194 287.731 187.447 286.799 187.155C286.113 186.934 285.254 186.408 284.299 185.7C283.888 185.384 283.443 185.061 282.942 184.757C280.574 183.282 279.556 183.725 278.088 182.638C276.572 181.472 274.801 178.924 273.345 176.332C273.098 176.034 272.859 175.71 272.636 175.37C272.48 175.712 272.341 176.072 272.213 176.435C271.527 174.911 271.863 174.026 271.767 172.49C271.72 170.665 271.466 169.637 271.793 168.451C272.003 167.739 272.534 166.968 273.017 166.241C273.146 166.064 273.262 165.881 273.352 165.69C273.868 164.596 273.242 164.583 273.449 163.946C273.504 163.708 275.543 159.207 275.732 158.932C276.822 157.013 277.597 157.239 278.645 155.782C281.111 152.341 284.019 148.849 286.875 146.199C287.389 145.713 287.903 145.237 288.426 144.775C289.887 143.484 291.624 142.237 293.464 141.21C291.854 144.582 298.598 142.183 294.768 140.9C296.977 140.102 298.089 138.629 300.138 137.9C301.456 137.445 302.493 137.496 304.288 136.847C304.826 136.653 305.361 136.43 305.896 136.2C307.433 135.583 309.012 134.922 311.187 135.033C312.244 135.121 313.705 135.375 315.137 136.691C316.671 138.056 316.849 140.256 316.375 140.928C316.429 143.202 315.685 144.017 315.238 144.807C314.736 145.555 314.241 146.085 313.766 146.558C312.827 147.48 311.955 148.143 311.264 148.776C310.491 149.508 310.007 150.262 310.005 151.202C309.273 151.86 306.556 152.33 305.566 152.816C304.639 153.296 297.735 157.278 296.609 157.935C295.499 158.618 293.553 159.807 292.71 160.529C291.655 161.432 291.873 163.673 288.553 162.914C286.208 164.54 285.299 164.994 282.879 166.084C282.443 166.28 282.219 166.004 281.977 166.144C281.48 166.432 280.765 167.144 279.891 167.682C279.355 168.012 278.858 168.192 278.469 168.342C278.464 168.345 278.447 168.355 278.441 168.358C277.794 168.597 277.499 168.732 277.945 169.293C277.079 169.995 276.233 170.693 275.377 171.403C274.942 171.403 274.494 171.411 274.058 171.413C273.67 171.913 273.292 172.41 272.911 172.912C272.666 171.153 269.64 174.093 271.266 174.207C269.291 175.007 267.329 175.837 265.366 176.7C264.607 174.973 261.345 179.074 262.261 179.685C262.058 179.818 261.854 179.952 261.651 180.086C259.61 180.857 258.207 182.295 255.861 183.492C253.514 184.69 253.615 184.404 252.476 184.148C252.087 184.459 251.716 184.759 251.325 185.072C251.215 185.159 251.108 185.243 251.003 185.325C250.179 187.252 249.207 187.366 247.61 187.398C247.185 187.396 246.715 187.41 245.962 187.298C245.255 187.229 243.936 186.659 243.395 185.7C242.439 183.903 242.616 182.809 242.211 181.196C242.52 180.824 242.761 180.397 242.959 179.879C242.962 179.863 242.968 179.814 242.971 179.798C243.874 177.805 243.84 174.456 243.861 172.09C243.862 171.947 243.814 171.855 243.756 171.763L243.752 171.785C243.672 171.652 243.572 171.511 243.586 171.162C243.679 169.536 245.032 167.127 244.137 166.859C244.728 166.028 245.335 165.191 245.934 164.384C246.063 163.591 246.208 162.766 246.339 161.982C246.07 161.88 245.802 161.778 245.534 161.676C247.028 160.558 247.634 158.045 248.303 157.017C248.437 156.812 248.842 156.866 249.217 156.231C249.664 155.468 250.186 153.876 250.707 152.927C250.465 152.36 250.211 151.82 249.958 151.281C250.459 149.427 251.783 149.252 252.29 148.253C252.396 148.035 253.69 144.671 253.763 144.431C254.178 142.909 253.122 142.878 255.085 138.682C255.445 137.911 256.024 137.405 256.315 136.738C256.843 135.526 257.663 131.526 257.126 130.954C258.588 129.765 259.911 125.625 260.618 124.597C260.838 124.276 261.395 124.422 261.962 123.373C262.435 122.495 262.943 120.083 263.482 118.988C264.056 117.825 264.683 117.564 264.941 117.034C265.173 116.558 265.005 115.956 265.289 115.278C265.778 114.123 266.42 113.073 267.027 112.065L266.948 112.275C267.457 111.259 267.913 110.327 268.806 109.136C269.267 108.607 269.871 107.694 271.59 107.345C273.412 107.073 274.634 108.053 275.202 108.529C276.766 109.614 278.637 110.913 279.859 112.637C280.112 113.324 280.15 114.053 280.388 114.703C280.874 116.045 281.214 117.331 281.515 118.601C281.536 118.697 281.594 118.982 281.603 119.08C281.78 120.783 281.982 122.483 281.819 124.719C281.696 125.835 281.574 127.272 280.43 129.001C279.235 130.796 277.194 131.59 276.042 131.832L276.17 131.797C273.168 132.576 270.187 133.297 267.312 133.922C264.003 134.707 255.449 134.859 258.155 136.949C257.073 137.683 248.4 138.065 246.808 138.22C245.201 138.427 243.985 139.052 242.723 139.216C240.626 139.487 238.87 139.592 236.948 139.785L239.82 138.219C238.872 139.359 237.945 140.599 237.113 142.223C236.633 143.159 236.588 144.377 236.312 144.9C235.976 145.53 235.155 146.011 234.745 146.897C233.734 148.964 232.629 153.405 232.008 155.751C231.89 156.172 231.4 156.212 231.115 156.808C230.009 159.092 229.529 161.898 231.089 161.689C230.835 162.218 230.638 162.729 230.474 163.274L230.544 162.697C230.111 165.058 230.722 167.383 231.137 168.806C231.252 169.283 231.538 169.71 231.341 169.429C231.24 169.302 230.839 168.94 230.26 168.788C229.683 168.628 229.23 168.737 229.147 168.77C233.449 167.714 235.927 163.038 235.736 159.848C235.718 158.804 235.533 158.167 235.389 157.559L235.391 157.729C235.122 156.491 234.989 155.299 235.193 152.233C235.264 151.1 235.374 149.991 235.423 148.661C235.567 145.641 236.306 142.328 234.367 141.516C234.325 141.239 234.273 141.076 234.32 141.083C234.361 141.081 234.558 141.291 234.931 141.461C235.3 141.637 235.726 141.668 235.869 141.623C236.025 141.582 235.966 141.52 235.803 141.5C236.508 141.234 236.479 141.103 236.448 141.078C236.386 141.055 236.258 141.074 236.085 141.13C235.755 141.225 235.309 141.404 234.848 141.541C234.874 141.956 234.913 142.366 234.957 142.774C234.695 143.076 234.439 143.382 234.18 143.699C233.874 143.608 233.565 143.521 233.254 143.438C231.255 145.696 229.827 149.651 228.283 151.784C225.638 155.363 218.774 164.722 216.134 168.124C214.725 169.915 215.184 170.362 213.408 170.755C213.21 171.231 213.005 171.721 212.818 172.183C212.886 172.602 212.948 173.031 213.02 173.444C212.369 174.489 211.62 175.548 210.867 176.619C208.297 180.836 201.913 178.128 203.188 173.358C203.783 171.576 204.43 169.809 204.882 168.236C206.296 163.266 207.9 155.712 209.839 151.03C210.33 149.845 211.325 148.516 211.652 147.319C212.116 145.596 211.314 144.929 211.785 142.825C211.984 141.905 212.285 140.794 212.506 139.746C212.617 139.239 212.691 138.723 212.732 138.519C212.762 138.423 212.756 138.423 212.922 138.728C213.045 139 213.729 139.844 214.608 140.065C214.959 140.167 215.582 140.138 215.852 140.016C216.139 139.901 216.15 139.822 216.081 139.839C215.919 139.873 215.518 140.161 215.157 140.487C214.416 141.151 213.703 141.976 213.192 142.67C212.555 143.54 212.552 144.15 212.129 144.788C210.392 147.442 208.839 149.617 207.504 152.474C204.825 154.683 204.023 153.753 202.433 153.924C201.249 154.033 198.142 154.793 197.288 154.625C196.692 154.502 196.631 153.344 195.932 153.269C197.84 149.715 199.241 148.652 201.825 146.482C203.462 144.133 205.072 141.807 206.82 139.435C207.7 138.251 208.586 137.071 209.691 135.835C210.259 135.215 210.853 134.572 211.806 133.875C212.298 133.528 212.907 133.138 213.825 132.863C214.725 132.576 216.031 132.572 216.991 132.916C218.253 133.297 219.308 134.415 219.707 135.215C220.129 136.802 219.753 137.686 219.476 138.416C219.475 138.416 219.474 138.416 219.473 138.416C219.07 141.299 219.58 142.273 219.537 143.667C218.983 152.229 214.292 164.413 211.03 175.43L203.93 172.415C207.192 167.42 210.413 162.889 212.909 159.248C214.497 156.891 219.377 148.978 220.991 147.709C221.404 147.375 221.907 147.561 222.238 147.139C224.942 143.01 227.05 139.121 231.206 134.865C231.717 134.537 232.142 134.084 233.591 133.638C234.964 133.305 237.194 133.114 239.124 134.352C240.985 135.582 241.647 137.132 242.144 138.35C243.048 140.817 243.305 142.938 243.599 145.076C244.121 149.308 244.389 153.389 244.614 157.459C244.615 157.479 244.615 157.539 244.616 157.559C244.651 159.236 244.525 160.932 244.193 162.619C243.178 168.876 238.177 175.155 231.752 177.017C230.718 177.356 229.312 177.546 227.867 177.129C226.415 176.724 225.266 175.77 224.57 174.895C223.181 173.097 222.818 171.536 222.484 170.102C221.907 167.241 221.926 164.707 222.031 162.2C222.034 162.101 222.074 161.811 222.09 161.714C223.767 152.192 226.07 140.977 233.258 132.875C233.753 132.238 235.212 131.482 236.012 131.374C242.695 130.601 249.267 129.763 255.717 128.542C260.598 127.642 266.622 125.736 271.424 124.643C272.434 124.415 273.199 124.444 274.036 124.353C274.061 124.345 274.136 124.327 274.161 124.32C274.357 124.346 274.48 124.329 274.377 124.375C274.28 124.4 273.942 124.681 273.786 124.713C273.991 124.803 274.198 124.887 274.407 124.966C274.364 124.755 274.254 123.912 274.054 123.129C273.863 122.312 273.641 121.385 273.461 120.144C273.459 120.128 273.457 120.113 273.455 120.097L273.543 120.575C273.266 119.545 272.773 117.73 272.154 116.477C271.578 115.245 270.635 114.189 270.043 113.511C270.039 113.506 270.035 113.502 270.032 113.498C270.286 113.752 270.954 113.987 271.396 113.964C271.636 113.964 271.901 113.956 272.282 113.895C272.653 113.84 273.17 113.663 273.504 113.442C274.054 113.058 273.95 113.041 273.896 113.295C273.82 113.542 273.704 113.993 273.61 114.503C273.594 114.557 273.532 114.714 273.511 114.767C273.094 116.155 272.659 117.593 272.219 118.649C271.448 120.501 269.647 123.575 269.114 125.041C267.165 130.371 265.436 136.396 262.935 141.945C262.248 143.465 260.92 145.262 260.736 145.75C260.378 146.701 260.76 147.154 260.548 147.846C259.539 151.192 256.875 156.04 255.587 159.157C253.778 163.641 251.275 169.43 250.489 172.822C250.488 172.83 250.484 172.853 250.482 172.861C250.065 175.518 249.649 178.177 249.228 180.819L249.254 180.638C249.169 181.363 249.115 182.061 249.124 182.533C249.124 182.753 249.162 182.929 249.13 182.774C249.106 182.691 249.072 182.508 248.853 182.134C248.651 181.777 248.131 181.183 247.439 180.862C246.75 180.532 246.175 180.522 245.891 180.537C245.592 180.557 245.496 180.597 245.463 180.604C245.413 180.624 245.608 180.552 245.824 180.438C246.278 180.203 246.878 179.827 247.483 179.422C247.662 179.303 247.842 179.183 248.02 179.064C253.807 175.168 263.625 168.417 269.586 165.485C270.863 164.837 270.82 165.53 271.851 164.935C272.998 164.276 273.425 163.589 273.949 163.257C274.32 163.023 274.719 162.772 275.174 162.49L275.137 162.511C279.039 160.043 285.618 155.844 288.788 154.271C289.463 153.942 290.163 154.036 290.542 153.796C290.735 153.675 291.004 153.141 291.588 152.732C296.734 149.115 300.618 146.672 305.773 143.2C306.123 142.964 306.478 142.722 306.84 142.474C307.508 142.021 308.128 141.531 308.589 141.072C308.814 140.849 309.003 140.622 309.082 140.501C309.123 140.442 309.132 140.411 309.104 140.475C309.081 140.54 308.991 140.707 308.977 141.161C308.946 141.591 309.172 142.462 309.657 142.982C310.129 143.509 310.526 143.639 310.697 143.702C311.046 143.797 310.858 143.73 310.636 143.763C310.148 143.806 309.357 144.001 308.569 144.276C302.442 146.268 297.642 149.119 292.659 153.301C291.343 154.356 290.116 155.417 289 156.511C287.278 158.196 285.609 159.059 285.397 159.359C284.962 160.009 285.172 160.744 284.47 162.168C283.351 164.451 281.912 167.188 280.438 169.984C279.405 171.896 279.741 173.318 281.165 174.984C282.451 176.483 285.475 177.864 287.566 178.965C287.753 179.066 287.969 179.19 288.208 179.33C288.988 179.935 292.018 180.592 292.727 180.259C293.182 180.075 293.403 179.429 293.934 179.343ZM306.404 136.661C306.359 137.223 307.334 136.941 308.254 136.584C309.16 136.225 310.081 135.778 308.955 135.647C308.402 135.571 306.384 136.36 306.404 136.661ZM279.909 126.033C280.21 126.049 280.511 126.059 280.814 126.063C280.852 125.249 280.77 124.577 280.664 123.945C280.478 124.288 280.279 124.643 280.063 124.987C280.032 125.324 279.987 125.661 279.909 126.033ZM430.93 71.6656C430.199 71.7917 429.116 71.4886 428.225 71.5446C426.09 71.6767 424.706 71.697 423.257 71.7187C422.232 71.7315 421.174 71.7549 419.76 71.8554C414.846 72.1062 400.161 75.1399 399.646 72.4623C399.646 72.4623 399.646 72.4622 399.646 72.4621C399.642 72.4359 399.639 72.4092 399.638 72.382C399.607 71.8667 400.797 71.1043 400.891 70.4977C400.982 69.8918 400.227 66.2053 401.986 65.6973C404.542 64.9766 411.013 64.9207 412.414 64.689C413.372 64.5194 414.512 64.0128 415.744 63.7885C418.474 63.2934 420.343 63.1598 422.405 62.72C423.341 62.5213 424.286 62.2566 425.381 61.8658C426.853 62.2241 428.348 62.5859 429.829 62.9632C431.697 62.5847 434.63 63.0705 435.789 63.0089C436.741 62.9519 437.298 62.5546 438.304 62.5341C439.432 62.5099 441.158 62.9538 443.184 63.0107C446.504 63.1231 447.183 62.2032 449.168 62.2692C451.23 62.3466 454.314 63.2649 456.916 63.2307C457.247 63.1598 457.583 63.0897 457.925 63.0203C457.721 62.7417 457.52 62.4635 457.321 62.1857C457.665 62.1973 457.958 62.2472 458.224 62.3172C459.202 62.5555 459.866 62.9296 461.203 63.3966C463.257 64.1628 465.774 65.219 466.587 68.4208C467.173 71.119 465.711 73.2686 464.944 74.5151C463.727 76.3461 464.428 76.2364 463.792 77.1441C463.694 77.2814 462.8 78.3255 461.742 79.3118C460.359 80.6376 458.657 82.0935 458.485 82.2273C456.403 83.8423 455.768 83.3323 454.05 84.4749C449.293 87.603 444.743 91.1657 440.41 94.0215C438.478 95.2946 436.373 96.4653 434.318 97.4955C436.462 93.9931 428.784 96.5919 432.897 97.8173C430.464 98.6883 429.297 100.295 427.115 101.336C425.701 102.008 424.55 102.149 422.602 103.217C419.147 105.114 415.909 108.209 413.878 106.786C412.862 107.438 411.844 107.997 410.885 108.511C409.743 109.119 408.856 109.751 408.545 110.301C408.209 110.855 408.6 111.208 409.42 110.892C409.498 110.698 409.505 110.247 409.301 109.787C409.105 109.323 408.719 109.018 408.498 109.009C408.019 108.997 408.277 109.593 408.502 109.7C408.56 109.735 408.681 109.792 408.863 109.844C411.623 110.335 418.891 111.395 420.235 111.52C421.796 111.681 424.531 111.921 425.846 111.833C427.516 111.725 428.751 109.801 431.499 112.239C431.861 112.226 432.191 112.212 432.486 112.197C432.516 112.198 432.607 112.199 432.637 112.201C435.356 112.206 436.654 112.354 439.52 112.77C440.104 112.856 440.148 113.21 440.49 113.232C441.193 113.276 442.411 113.095 443.668 113.152C445.742 113.245 446.86 114.075 446.717 112.933C448.096 112.849 449.478 112.771 450.853 112.699C451.316 112.957 451.776 113.216 452.234 113.475C452.977 113.303 453.737 113.134 454.485 112.966C453.477 114.504 458.683 114.047 457.118 112.953C459.731 113.553 462.336 114.178 464.932 114.832C464.343 116.616 470.684 115.783 470.314 114.728C470.616 114.771 470.91 114.814 471.22 114.859C473.803 115.726 476.287 115.693 479.478 116.611C482.662 117.549 482.318 117.693 483.122 118.734C483.891 118.854 484.663 118.984 485.442 119.133C487.301 118.644 488.204 119.027 489.046 119.692C489.61 120.171 490.136 120.769 491.092 121.418C491.587 121.779 492.127 122.007 493.123 122.789C493.384 123.029 493.714 123.276 494.05 123.989C494.454 124.679 494.25 126.179 493.758 126.746C492.858 127.908 492.293 128.086 491.701 128.51C490.684 128.404 489.593 128.446 488.365 128.622C485.935 128.949 482.856 130.152 480.616 131.033C480.227 131.185 480.291 131.463 479.776 131.685C478.547 132.212 475.169 132.732 475.512 133.595C474.281 133.651 473.118 133.694 471.902 133.757C471.022 134.177 470.112 134.608 469.244 135.03C469.328 135.305 469.412 135.579 469.495 135.854C467.395 135.435 464.518 136.676 463.042 136.878C462.743 136.919 462.568 136.557 461.644 136.724C460.563 136.918 458.644 137.631 457.38 137.897C457.03 138.466 456.681 139.036 456.331 139.606C454.179 140.536 453.064 139.68 451.738 140.013C451.503 140.069 447.256 141.548 447.045 141.649C445.241 142.459 446.055 143.21 440.601 144.849C439.627 145.143 438.735 145.09 437.859 145.38C436.324 145.882 431.952 148.251 431.84 149.054C429.687 148.868 424.853 151.016 423.31 151.314C422.843 151.402 422.546 150.903 421.152 151.292C420.02 151.606 417.362 153.091 415.953 153.545C414.45 154.026 413.754 153.78 413.083 154.001C412.449 154.21 412.015 154.791 411.169 155.115C408.517 156.123 405.905 156.478 403.814 157.293C400.786 158.472 398.56 160.602 396.245 162.093C395.596 162.277 394.9 162.296 394.244 162.562C386.151 165.837 377.038 169.506 368.983 172.887C365.251 174.42 355.44 177.366 359 178.548C357.949 179.519 348.357 183.111 346.645 184.047C344.936 184.931 343.821 186.065 342.506 186.806C340.75 187.796 339.181 188.639 337.721 189.492C333.291 192.21 328.693 185.369 332.884 182.295C334.76 180.973 336.757 179.519 339.159 177.495C340.292 176.54 341.22 175.187 341.939 174.674C342.781 174.076 344.011 173.843 345.126 173.079C347.787 171.25 352.554 167.603 355.119 165.875C355.588 165.56 356.022 165.825 356.763 165.473C359.648 164.105 362.482 162.014 361.105 161.162C364.874 159.504 367.442 156.714 370.453 154.5C376.799 149.83 388.742 141.732 393.767 137.195C394.341 136.674 394.814 136.209 395.156 135.837C395.361 135.624 395.461 135.492 395.603 135.325C395.666 135.247 395.704 135.189 395.705 135.162C395.706 135.149 395.704 135.136 395.635 135.189C395.562 135.251 395.454 135.321 395.138 135.706C395.474 135.07 395.856 134.409 396.134 133.933C396.193 133.832 396.238 133.74 396.2 133.831C396.182 133.881 396.137 133.98 396.065 134.242C396.004 134.517 395.861 134.951 395.94 135.914C395.982 136.848 396.644 138.363 397.457 139.084C398.258 139.84 398.791 139.995 399.062 140.094C399.595 140.24 399.433 140.114 399.187 140.055C398.446 139.863 397.132 139.695 395.652 139.552C395.547 139.539 395.432 139.527 395.309 139.516C391.723 139.237 387.841 138.396 385.027 140.181C380.613 140.258 377.15 140.977 373.727 140.148C373.381 140.503 373.038 140.859 372.698 141.214C372.165 141.295 371.617 141.378 371.088 141.46C370.881 141.195 370.672 140.93 370.463 140.665C366.588 141.13 361.894 143.074 358.651 143.61C356.179 144.014 351.924 144.648 347.552 145.351C347.515 145.357 347.402 145.378 347.364 145.383C345.664 145.583 343.853 145.698 341.645 145.185C339.573 144.797 336.309 142.829 335.529 139.72C334.495 133.786 337.278 131.886 338.283 130.358C338.482 130.132 338.663 129.931 338.837 129.741C340.356 128.101 340.175 127.655 342.044 127.298C342.392 126.76 342.738 126.227 343.082 125.696C343.126 125.217 343.174 124.735 343.224 124.249C345.595 121.518 348.774 118.598 351.087 116.037C355.286 111.357 361.196 103.934 366 99.7796C367.201 98.7359 369.005 97.7368 370.095 96.6356C371.682 95.0351 371.392 93.9639 373.422 91.9392C376.913 88.4442 384.336 82.9097 387.669 79.6894C388.666 78.7236 388.888 78.0271 389.56 77.3493C392.375 74.5058 394.807 72.3049 397.26 69.3059C400.918 67.2062 401.45 68.3372 403.203 68.3623C404.545 68.3654 408.116 67.955 408.976 68.2468C409.571 68.4594 409.233 69.7374 409.955 69.9113C406.658 73.5748 404.766 74.5733 401.248 76.6291C395.855 81.6297 390.502 86.6554 385.228 91.7558C384.512 91.9777 383.797 92.199 383.085 92.4201C383.084 92.4196 383.084 92.4191 383.083 92.4185C380.783 94.0994 380.531 95.5546 379.584 96.7557C371.726 106.548 355.581 122.496 344.665 134.747C343.966 135.502 343.456 136.302 343.245 136.872C343.137 137.152 343.111 137.359 343.106 137.407C343.104 137.464 343.075 137.333 342.997 137.246C342.956 137.193 342.898 137.151 342.934 137.172C342.968 137.189 343.116 137.257 343.396 137.307C343.958 137.417 344.976 137.401 346.117 137.198L345.977 137.222C350.129 136.345 354.683 135.529 356.146 135.613C356.781 135.649 357.036 136.131 357.69 136.045C363.451 134.777 369.227 133.609 375.045 132.545C381.805 132.158 388.429 131.267 395.652 130.98C396.595 130.965 397.553 130.948 398.559 130.964C399.644 131.032 400.462 130.86 402.459 131.532C402.984 131.756 403.795 132.112 404.525 133.157C405.27 134.225 405.296 135.551 405.175 136.217C404.909 137.608 404.522 138.116 404.22 138.693C403.596 139.755 403.02 140.527 402.437 141.323C402.238 141.579 402.127 141.683 402.022 141.789C401.925 141.886 401.808 141.991 401.755 142.039C401.657 142.128 401.557 142.216 401.449 142.307C401.201 142.517 401.073 142.622 400.88 142.78C400.457 143.121 400.193 143.332 399.792 143.644C399.114 144.175 398.403 144.718 397.691 145.255C377.639 160.185 357.623 174.588 337.905 189.136L333.283 182.259C340.182 178.04 347.296 174.485 354.378 171.094C360.058 168.382 367.158 164.727 372.894 162.49C375.289 161.554 376.596 161.889 379.445 159.995C379.565 160.187 379.686 160.379 379.807 160.57C382.421 159.16 383.925 157.973 386.957 156.653C389.485 155.546 396.293 152.739 398.59 151.923C399.785 151.492 399.5 152.056 400.601 151.616C402.494 150.855 406.305 148.741 408.921 147.736C411.285 146.823 415.456 145.758 417.257 145.013C423.743 142.323 430.706 139.054 437.86 136.802C439.833 136.181 442.53 135.845 443.142 135.624C444.333 135.193 444.524 134.575 445.308 134.244C449.321 132.549 455.908 131.11 460.001 129.905C468.716 127.325 477.895 124.689 487.034 122.622C487.745 122.462 488.43 122.286 488.926 122.117C489.157 122.042 489.365 121.937 489.251 121.995C489.182 122.048 489.029 122.078 488.575 122.58C488.353 122.841 488.041 123.275 487.843 123.95C487.63 124.637 487.661 125.503 487.835 126.068C488.212 127.226 488.591 127.424 488.709 127.575C488.845 127.7 488.859 127.698 488.83 127.68C488.764 127.636 488.537 127.508 488.283 127.386C487.769 127.138 487.105 126.867 486.431 126.61C485.383 126.212 483.964 125.828 482.601 125.497C474.664 123.548 460.427 122 452.629 120.915C450.942 120.677 451.447 120.143 450.017 120.02C448.44 119.886 447.547 120.207 446.808 120.181C443.437 120.057 437.408 119.874 432.299 119.671L432.486 119.675C429.551 119.669 427.101 119.448 425.399 119.206C424.462 119.067 423.811 118.567 423.251 118.527C422.965 118.506 422.303 118.766 421.408 118.727C416.433 118.508 412.344 118.11 408.081 117.629C406.13 117.376 404.134 116.798 402.245 114.84C401.328 113.867 400.499 112.283 400.469 110.57C400.422 108.852 401.064 107.426 401.746 106.414C403.548 103.904 405.49 102.883 407.383 101.838C419.157 95.6792 431.925 88.3756 443.263 81.4366C446.064 79.717 448.417 79.1655 448.791 78.8962C449.617 78.2967 449.806 77.4421 451.353 76.1195C452.737 74.9313 454.268 73.6807 455.779 72.3729C456.439 71.8011 457.051 71.2139 457.514 70.6677C457.98 70.1612 458.224 69.5423 458.155 69.8084C458.127 69.9336 458.176 70.4617 458.401 70.7892C458.617 71.1217 458.768 71.1535 458.696 71.111C458.558 71.0037 457.882 70.7883 457.176 70.7087C455.557 70.5048 454.026 70.338 452.624 70.2369C449.37 69.9966 444.906 70.2878 441.884 70.3267C439.474 70.2775 433.762 70.1676 432.645 70.6112C431.996 70.8555 431.727 71.5252 430.93 71.6656ZM420.281 103.899C420.196 102.767 416.335 105.811 418.199 105.447C418.619 105.366 420.304 104.193 420.281 103.899ZM382.766 165.387C382.923 165.643 383.081 165.898 383.238 166.154C383.78 165.789 384.301 165.433 384.832 165.075C384.437 165.048 384.044 165.021 383.65 164.994C383.362 165.122 383.06 165.256 382.766 165.387Z" fill="#0059FF"/>
</svg>
