<svg width="201" height="57" viewBox="0 0 201 57" fill="none" xmlns="http://www.w3.org/2000/svg">
<path d="M79.4776 4.20797C80.0921 4.14278 80.9732 4.17301 81.7086 4.12217C84.7517 3.91326 85.8912 3.89531 88.655 3.72426C92.7652 3.4772 104.838 2.39956 104.929 3.06183C104.929 3.06184 104.929 3.06186 104.929 3.06188C104.929 3.06848 104.928 3.07526 104.927 3.08221C104.894 3.21415 103.864 3.4388 103.723 3.59627C103.581 3.75374 103.769 4.68244 102.305 4.85291C100.204 5.09257 95.0496 5.2508 93.9433 5.34538C93.1766 5.41157 92.2073 5.57137 91.2184 5.66183C88.0451 5.95217 86.3335 6.01816 83.4947 6.46641C82.3605 6.42973 81.1577 6.39853 80.0041 6.36417C78.5113 6.53517 76.2277 6.5505 75.3059 6.63208C74.5562 6.69834 74.1261 6.82939 73.3521 6.89554C72.4981 6.96923 71.1173 6.97511 69.5307 7.12202C66.9467 7.36203 66.4841 7.65653 64.9221 7.8246C63.3203 7.99757 60.7596 8.092 58.7209 8.37995C58.467 8.43249 58.2138 8.48514 57.9615 8.53789C58.1504 8.5824 58.3396 8.62697 58.5292 8.67161C57.5179 8.79983 57.0231 8.71991 56.0694 8.81483C54.942 8.92764 54.3882 9.1094 53.6432 9.18896C53.0374 9.25364 52.1591 9.2518 51.3609 9.34891C50.1935 9.49109 50.4668 9.60246 49.8469 9.7018C49.6321 9.72879 44.9583 10.3979 44.7347 10.4394C42.7267 10.7216 42.5334 10.5565 40.9758 10.7735C36.5848 11.3941 32.1553 12.3777 28.2325 13.4065C26.51 13.8565 24.653 14.3548 22.9449 14.8626C25.5332 13.5237 19.3784 15.0987 21.8676 15.1008C19.9738 15.6215 18.6957 16.3285 16.957 17.0546C15.8466 17.5299 15.0246 17.789 13.5252 18.6247C10.8061 20.1056 8.5429 22.4955 7.57634 22.7335C5.10397 25.284 3.61057 28.0694 3.6359 29.4034C3.30785 30.2311 2.43042 32.4084 2.26982 33.4109C2.18644 33.8279 1.92986 35.3796 1.90382 37.2395C1.75498 39.4364 3.71579 41.5292 4.18639 41.9343C4.9468 42.7166 6.88776 44.0049 7.74366 44.3958C8.90224 44.9612 10.0356 44.9725 11.889 46.3439C14.5602 47.3065 15.3914 47.5672 17.8748 48.3531C18.3302 48.4925 18.3612 48.5911 18.6336 48.6647C19.2109 48.8203 20.1566 48.9981 21.0896 49.2137C22.6543 49.5752 23.569 49.953 23.4429 49.639C24.5079 49.8232 25.7166 50.0198 26.7068 50.1606C27.0595 50.2834 27.4157 50.4054 27.7754 50.5266C28.3492 50.5716 28.9293 50.6144 29.5157 50.655C28.7503 50.946 32.9263 51.3844 31.6174 50.9347C33.7436 51.3572 35.6944 51.7172 37.8397 52.0747C37.5086 52.5114 42.4637 52.6782 42.0644 52.3711C42.3019 52.3973 42.5402 52.4232 42.7791 52.4489C44.8307 52.7895 46.9343 52.8887 49.4086 53.1755C51.9511 53.4632 51.7201 53.4838 52.4884 53.7553C53.0991 53.7872 53.7131 53.8177 54.3299 53.8467C57.6257 53.4686 56.884 54.4585 62.419 54.2753C64.2111 54.7277 68.4354 54.6893 71.3333 54.6409C71.6684 54.6357 71.6758 54.5647 72.1229 54.5525C73.2358 54.5263 75.9587 54.6597 75.8734 54.4272C76.824 54.5066 77.7782 54.583 78.7356 54.6566C79.5189 54.6206 80.3038 54.5826 81.0902 54.5427C81.0864 54.4709 81.0826 54.3991 81.0788 54.3274C82.676 54.5774 85.1191 54.474 86.3434 54.5211C86.586 54.5308 86.6391 54.6298 87.3943 54.6492C88.2768 54.6727 89.9239 54.6211 90.9801 54.6329C91.3879 54.5161 91.7991 54.3987 92.2031 54.281C94.0763 54.1833 94.7437 54.4547 95.8477 54.4481C96.046 54.4498 99.672 54.3169 99.8673 54.3007C101.465 54.1915 101.005 53.9764 105.629 53.8246C106.452 53.7962 107.121 53.8492 107.864 53.8152C109.172 53.76 113.127 53.3381 113.427 53.1369C115.043 53.2667 119.266 52.8818 120.532 52.8454C120.914 52.8359 121.012 52.9724 122.183 52.9101C123.134 52.8608 125.551 52.5431 126.738 52.4542C128.001 52.3615 128.455 52.4382 129.023 52.3933C129.566 52.3496 130.057 52.2053 130.794 52.1331C133.092 51.9093 135.165 51.8421 136.943 51.6425C139.542 51.3512 141.855 50.7744 143.979 50.3637C144.516 50.3111 145.046 50.3013 145.602 50.2254C152.696 49.2595 160.334 48.0266 167.363 46.503C170.56 45.8801 178.474 44.0539 176.214 44.0095C177.382 43.6399 185.283 41.2279 186.546 40.5527C188.022 39.9176 189.121 39.2478 190.13 38.7039C191.639 37.8926 193.144 36.9527 194.266 36.0506C195.608 34.9456 196.788 33.8196 197.508 31.987C197.861 31.0735 197.783 30.0212 197.71 29.4641C197.708 29.439 197.705 29.4138 197.703 29.3884C197.638 28.7373 197.562 27.9302 197.192 27.0916C196.397 24.8816 192.88 21.6368 190.941 20.3355C190.579 20.0735 190.519 19.8865 189.986 19.4871C188.09 18.0388 185.486 16.7111 185.784 17.2884C183.066 15.611 180.234 14.5954 177.484 13.5403C171.666 11.1876 160.515 8.10932 155.089 7.20844C151.604 6.59717 151.771 6.77404 146.695 5.74424C145.578 5.52381 144.496 5.30472 143.136 5.05876C139.919 4.47844 137.071 3.80145 134.549 3.88561C130.995 3.37987 128.137 3.18825 125.506 2.6584C125.189 2.70996 124.872 2.76207 124.554 2.81473C124.117 2.78353 123.679 2.75338 123.239 2.72427C123.108 2.64184 122.976 2.55952 122.843 2.47728C119.666 2.23347 115.696 2.3434 113.002 2.26001C108.553 2.0475 96.9896 2.01214 92.7564 2.17368C90.4974 2.22779 90.3855 2.39591 89.0799 2.14968C88.5782 2.20212 88.0764 2.25607 87.5747 2.31156C87.2644 2.40249 86.9543 2.49401 86.6445 2.58611C83.7577 2.78757 80.3333 2.98263 77.5931 3.28146C72.5952 3.7977 65.1639 5.07608 60.2023 5.91197C58.9531 6.11497 57.3748 6.28253 56.1653 6.53954C54.4058 6.91666 54.0334 7.24072 51.8055 7.76338C47.9712 8.6351 40.8449 10.3354 37.3144 11.5558C36.2653 11.9073 35.8069 12.1585 35.0905 12.4148C32.1081 13.4898 29.6101 14.4275 26.8555 15.7128C23.7319 16.7719 23.8784 16.4128 22.8198 16.5496C22.0177 16.6541 19.6399 17.1872 19.2502 17.1602C18.975 17.1374 19.699 16.5915 19.3319 16.5971C22.8733 14.7874 24.5277 14.2388 27.5863 13.2312C33.152 10.9944 38.8288 9.11151 44.5906 7.51542C45.1386 7.45144 45.687 7.38995 46.2358 7.33093C46.2358 7.33111 46.2359 7.33129 46.2359 7.33146C48.4696 6.84186 49.3617 6.40663 50.5542 6.06795C61.9419 2.55384 85.2538 0.0872965 98.2742 0.0905787C101.09 -0.0100253 110.234 -0.0724 112.137 0.157757C112.63 0.207359 112.771 0.340865 113.303 0.363667C118.052 0.442096 122.795 0.646319 127.508 0.976655C137.204 2.01602 147.236 3.26941 156.853 5.33424C172.458 9.66319 192.589 11.7633 200.001 29.1157C200.457 35.1317 195.117 38.3454 191.061 40.6402C186.617 42.9858 182.231 44.4912 177.589 45.8785C172.759 47.3182 166.512 48.8489 161.573 49.733C159.575 50.0904 158.705 50.0445 156.014 50.6673C155.976 50.6171 155.938 50.5669 155.9 50.5167C153.523 50.9886 152.156 51.3373 149.5 51.7488C147.212 52.1137 141.474 52.8823 139.452 53.0912C138.423 53.203 138.788 53.0548 137.834 53.1663C136.241 53.3554 132.8 53.8731 130.53 54.0916C128.46 54.2973 125.084 54.4754 123.504 54.6201C117.848 55.1482 111.725 55.7204 105.711 55.9484C104.048 56.0126 101.901 55.9616 101.381 55.9843C100.363 56.0302 100.065 56.1719 99.3813 56.2122C95.9102 56.4207 90.4959 56.382 87.085 56.403C75.9854 56.4927 64.2217 56.2844 53.1871 55.4868C46.3083 55.0405 34.647 53.7938 28.2826 52.4916C26.928 52.226 27.315 52.1499 26.1981 51.9378C24.9929 51.7055 24.1696 51.6322 23.5825 51.5154C19.5625 50.8155 10.3673 48.2931 6.88038 46.0283C6.21616 45.6402 5.83503 45.2712 5.46315 45.0329C5.24631 44.8923 4.7106 44.6382 4.09701 44.177C1.94975 42.6153 -0.0596281 40.0621 0.00134796 37.2395C0.0179603 34.0505 0.47132 30.8832 1.9848 27.5345C7.575 15.5651 22.9949 11.9066 34.8536 9.63831C37.5829 9.15142 39.3986 9.10384 39.8011 9.03615C40.6582 8.89853 41.1203 8.67252 42.8054 8.39291C48.3806 7.46099 55.9736 6.81963 61.2924 6.25993C63.92 5.97835 67.5442 5.47606 70.1224 5.22338C72.2311 5.01439 77.1011 4.70811 78.0163 4.55458C78.5666 4.46135 78.8111 4.27953 79.4776 4.20797ZM11.8817 19.4643C12.017 19.0124 9.07576 21.3872 10.3038 20.6683C10.5751 20.4899 11.8324 19.5644 11.8817 19.4643ZM154.995 49.2524C154.946 49.1853 154.898 49.1182 154.85 49.051C154.326 49.1704 153.867 49.2776 153.371 49.3897C153.656 49.3885 153.94 49.387 154.224 49.3852C154.469 49.3433 154.733 49.2978 154.995 49.2524Z" fill="#0059FF"/>
</svg>
