<svg width="205" height="43" viewBox="0 0 205 43" fill="none" xmlns="http://www.w3.org/2000/svg">
<path d="M188.323 34.7163C188.716 34.4267 189.3 34.0581 189.77 33.725C191.739 32.3301 192.482 31.8322 194.267 30.5754C196.914 28.7112 204.704 23.0878 204.851 23.2927C204.851 23.2927 204.851 23.2927 204.851 23.2927C204.851 23.2927 204.851 23.2927 204.851 23.2927C204.851 23.2927 204.851 23.2927 204.851 23.2927C204.853 23.2947 204.853 23.2973 204.853 23.3004C204.854 23.3592 204.221 23.878 204.154 23.9932C204.088 24.1084 204.368 24.3429 203.437 25.0371C202.087 26.0417 198.756 28.3239 198.029 28.851C197.533 29.2115 196.939 29.6796 196.306 30.1427C194.263 31.6357 193.174 32.3881 191.378 33.7951C190.61 34.2879 189.841 34.7802 189.072 35.2721C188.119 35.9853 186.617 36.9842 186.032 37.4088C185.553 37.7572 185.294 37.9925 184.793 38.3547C184.232 38.7612 183.343 39.3472 182.323 40.0883C182.264 40.1308 182.208 40.1722 182.152 40.2125C181.921 40.3785 181.652 40.1692 181.757 39.9041C182.43 38.1459 182.478 37.7517 182.902 36.6329C183.359 35.4307 184.144 33.5907 184.707 32.0494C184.771 31.8535 184.835 31.6575 184.899 31.4615C184.82 31.5888 184.741 31.7162 184.662 31.8435C184.952 31.0695 185.134 30.759 185.412 30.0524C185.739 29.2211 185.856 28.7772 186.075 28.2175C186.255 27.759 186.539 27.153 186.769 26.5575C187.106 25.6893 186.973 25.856 187.145 25.3852C187.182 25.2849 187.575 24.2513 187.944 23.2811L188.807 24.0122C188.038 24.4861 187.311 24.9329 187.228 24.9832C185.872 25.8041 185.709 25.8007 184.622 26.4466C181.607 28.2381 178.56 30.1573 175.796 31.856C174.562 32.6144 173.265 33.3902 172.02 34.1232C173.848 32.7485 169.44 35.1871 171.243 34.5327C169.84 35.3168 168.915 35.9907 167.602 36.7626C167.142 37.0326 166.753 37.2465 166.301 37.5012C165.769 37.8193 165.227 37.3578 165.457 36.7829C165.632 36.3792 165.824 35.9251 166.062 35.325C166.983 33.0046 167.851 30.4108 168.371 29.8455C168.786 28.7537 169.198 27.7285 169.556 26.8223L170.237 27.4154C168.964 28.1514 167.958 28.7534 167.481 29.1987C166.833 29.5882 165.08 30.4239 164.335 30.8278C163.63 31.2104 158.26 34.2102 157.385 34.7069C156.511 35.2039 154.98 36.0759 154.256 36.517C153.742 36.83 153.354 37.1589 152.79 37.507C152.351 37.7563 151.915 37.5043 151.916 37C151.899 36.4904 151.924 35.8842 152.061 35.0605C152.032 32.8566 152.04 32.0714 152.075 30.0217C152.081 29.6506 152.129 29.6087 152.129 29.3919C152.128 28.9453 152.092 28.1855 152.087 27.3883C152.078 26.0774 152.179 25.3292 152.024 25.4753C152.003 24.8169 151.982 24.1584 151.962 23.5L152.881 23.8807C152.74 24.0309 152.599 24.181 152.458 24.3312C152.223 24.5246 151.987 24.718 151.752 24.9113C151.449 25.2617 151.146 25.6123 150.843 25.9629C151.065 25.4179 148.863 27.8153 149.702 27.1604C148.486 28.3136 147.269 29.4664 146.052 30.6188C146.031 30.2672 143.432 33.2011 143.767 33.0705C143.632 33.2061 143.496 33.3417 143.361 33.4774C142.126 34.6159 141.079 35.7484 139.6 37.1631C139.521 37.2387 139.447 37.3098 139.377 37.3767C138.999 37.753 138.467 37.5329 138.467 37C138.509 35.2817 138.539 35.4223 138.656 34.8335C138.649 34.3521 138.641 33.8708 138.633 33.3894C138.286 30.8636 138.885 31.31 138.615 26.9847C138.732 26.243 138.753 24.9178 138.736 23.5L139.148 23.7189C138.142 24.4154 137.094 25.174 136.245 25.7862C136.032 25.9399 136.053 25.9784 135.77 26.1856C135.079 26.6919 133.239 27.869 133.38 27.9441C132.731 28.3341 132.082 28.7238 131.433 29.1133C130.936 29.4809 130.439 29.8486 129.942 30.2164C129.969 30.2515 129.997 30.2866 130.024 30.3218C128.909 30.8936 127.323 32.0376 126.503 32.548C126.34 32.6493 126.271 32.6212 125.768 32.9414C125.179 33.3154 124.113 34.0586 123.414 34.5079C123.185 34.7463 122.957 34.9849 122.728 35.2235C121.519 36.088 120.984 36.2282 120.253 36.7051C120.199 36.7407 119.761 37.0388 119.258 37.3822C118.844 37.6613 118.384 37.2885 118.573 36.826C118.894 36.0261 119.273 35.0776 119.305 34.9929C119.751 33.8098 119.469 34.0817 120.875 30.7066C121.126 30.1056 121.375 29.6387 121.599 29.0943C121.993 28.1326 123.054 25.1822 123.037 24.9093C123.245 24.5283 123.525 23.9088 123.819 23.2224L124.934 24.0944C123.76 24.9195 122.412 25.9272 121.868 26.2904C121.619 26.4568 121.508 26.4199 120.752 26.9478C120.139 27.3756 118.631 28.5742 117.859 29.1236C117.039 29.7065 116.701 29.8531 116.334 30.1146C115.987 30.3617 115.709 30.6466 115.24 30.989C113.777 32.0571 112.39 32.9397 111.233 33.7833C109.56 35.003 108.2 36.243 106.855 37.3383C106.719 37.4313 106.582 37.5201 106.444 37.6091C105.827 38.0587 105.118 37.6139 105.259 36.8627C105.322 36.6042 105.386 36.3436 105.437 36.0694C106.183 32.0314 107.015 27.6156 107.823 23.3747L108.825 24.1064C107.459 24.8307 106.111 25.5434 104.806 26.2325C102.511 27.4466 96.6882 30.2545 98.4317 29.8582C97.6769 30.3604 91.8083 33.3025 90.7075 33.8911C89.81 34.3716 89.0925 34.8236 88.3902 35.2271C87.7723 35.557 87.1734 35.2004 87.1748 34.5C87.1695 34.3172 87.1661 34.1363 87.1655 33.9557C87.1581 31.4908 87.1987 29.6331 87.1645 27L88.281 27.7868C87.7853 27.9712 87.2611 28.1689 86.6983 28.3848C85.8293 28.7184 84.9266 29.1553 84.4075 29.3406C83.7823 29.5635 83.0754 29.7081 82.2639 29.9925C80.3297 30.6713 76.7461 31.9946 74.8892 32.6423C74.5501 32.7603 74.4005 32.7163 73.9074 32.8626C71.9873 33.4319 69.8805 34.1974 70.3536 34.3428C69.2935 34.6469 68.2866 34.9945 67.306 35.3568C66.4706 35.6537 65.8209 34.9756 66.1579 34.1555C66.6699 32.8641 67.1314 31.59 67.6372 30.3325C68.4187 28.3904 69.4848 25.7902 70.5734 23.1209L71.8901 24.422C68.1771 25.9975 64.3375 27.6376 62.0192 28.7068C59.5127 29.8628 59.6326 29.9652 55.848 31.4442C55.0078 31.7724 54.1676 32.0903 53.1487 32.4886C50.7604 33.4224 48.4927 34.0976 46.8193 35.1568C46.5145 35.2761 46.2175 35.3941 45.9275 35.5104C44.7953 35.9884 43.872 34.7559 44.6509 33.8053C46.2105 31.9714 47.4537 30.416 48.8253 29.1225C48.9312 28.8874 49.0371 28.6523 49.1429 28.4171C49.3622 28.1455 49.5814 27.8739 49.8007 27.6024C49.9187 27.5582 50.0368 27.5142 50.1549 27.4701C51.3073 26.0771 52.5683 24.3193 53.6838 22.8322L54.8917 24.4792C54.2421 24.7713 53.6304 25.0388 53.0863 25.2571C49.7929 26.5789 41.2741 29.8925 38.1183 31.0636C36.443 31.6854 36.4068 31.8538 35.3488 31.9627C34.9855 32.1305 34.6223 32.2983 34.2591 32.4662C34.051 32.6191 33.8428 32.7722 33.6347 32.9252C31.6525 33.7247 29.2927 34.5789 27.3405 35.3512C26.3922 35.7297 25.6433 34.7092 26.2905 33.9195C26.3871 33.8023 26.482 33.6865 26.5751 33.5724C29.0503 30.5355 32.6123 25.8875 35.2202 22.862L36.3275 24.4528C36.2683 24.4714 36.2095 24.4899 36.1511 24.5081C35.1943 24.8067 33.9658 25.085 33.0389 25.4065C31.6899 25.8745 31.4367 26.2053 29.7256 26.8015C26.7767 27.8291 21.1916 29.472 18.408 30.4543C17.5813 30.7461 17.2232 30.9625 16.654 31.1691C14.2679 32.036 12.2957 32.7094 10.0398 33.6342C7.49541 34.2719 7.6124 33.9177 6.74946 33.8988C6.09585 33.8856 4.14526 34.001 3.82785 33.8996C3.60494 33.8284 4.20961 33.4319 3.9109 33.3719C6.83393 32.2433 8.12272 31.9459 10.5977 31.3245C15.0373 29.7959 19.477 28.2676 23.9168 26.7394C24.3473 26.6777 24.7778 26.6159 25.2082 26.5539C25.2082 26.5541 25.2083 26.5543 25.2084 26.5544C26.9445 26.058 27.5999 25.6137 28.5047 25.2544C30.4996 24.4617 32.9612 23.5555 35.6871 22.5897C36.6851 22.2457 37.4127 23.2919 36.745 24.1095C34.0136 27.5125 30.842 31.3476 27.7225 35.0911L26.6533 33.6333C32.1694 31.4845 37.5527 29.4166 41.5798 27.8334C43.6352 27.0248 50.2724 24.2725 51.7251 23.8235C52.1012 23.7074 52.2451 23.7731 52.6347 23.6231C53.181 23.3936 53.7274 23.164 54.2738 22.9346C54.9034 22.6822 55.4004 23.3604 54.9713 23.8856C53.0264 26.3475 51.0808 28.8088 49.1344 31.2695C48.0974 32.4765 47.0642 33.7009 46.0341 34.937L45.2311 33.8644C50.9148 31.5195 56.6386 29.005 62.2749 26.6077C65.2568 25.3391 68.2341 24.0723 71.2071 22.8076C71.9003 22.5132 72.48 23.0871 72.1958 23.7846C70.7003 27.4607 69.2072 31.13 67.7154 34.7927L66.74 33.7721C73.7573 31.2538 80.7539 28.7477 87.7346 26.2569C88.3018 26.0529 88.7877 26.3972 88.789 27C88.7883 29.5022 88.7865 32.0022 88.7835 34.5L87.6295 33.8096C90.8022 32.112 93.9722 30.4187 97.1399 28.7299C100.52 26.9276 104.744 24.5964 108.137 22.8235C108.777 22.4787 109.386 22.9249 109.255 23.6398C109.227 23.7807 109.2 23.9202 109.172 24.0582C108.856 25.6511 108.586 26.2893 108.303 28.4065C108.26 28.4213 108.217 28.4361 108.173 28.4508C107.879 30.2898 107.749 31.4756 107.375 33.5291C107.23 34.3216 106.974 35.7115 106.709 37.1314L105.575 36.4173C106.954 35.4125 108.371 34.3848 109.056 33.8964C109.712 33.4285 109.512 33.6632 110.119 33.221C111.158 32.4634 113.321 30.7674 114.756 29.7239C116.056 28.7786 118.295 27.2502 119.288 26.5136C120.841 25.3611 122.447 24.1527 124.083 22.9282C124.71 22.47 125.448 23.0478 125.156 23.7671C124.183 26.2407 123.181 28.7642 122.149 31.239C121.644 32.4481 120.925 33.9746 120.772 34.3553C120.473 35.0989 120.461 35.3518 120.267 35.8541C120.097 36.2952 119.905 36.7768 119.699 37.2846L118.578 36.3748C120.75 34.9061 123.526 33.1216 125.367 31.8869C129.704 28.9788 134.185 25.9528 138.632 22.9552C139.124 22.6218 139.656 22.9058 139.657 23.5C139.655 27.1071 139.651 30.6941 139.64 34.1912C139.637 35.0486 139.634 35.9947 139.632 37L138.553 36.5531C142.406 32.7178 147.484 27.6546 150.548 24.6651C151.331 23.9012 151.182 24.1636 151.832 23.515C151.955 23.3921 152.067 23.2777 152.171 23.1709C152.5 22.8411 152.965 23.0344 152.965 23.5C152.977 24.2216 153.014 24.6682 153.017 25.0627C153.039 27.8403 153.072 33.4456 153.047 37L152.229 36.5255C152.805 36.2014 153.321 35.9143 153.749 35.6801C154.269 35.3957 154.672 35.2349 154.98 35.0591C155.136 34.9702 155.468 34.7341 155.956 34.4517C160.262 31.9572 163.427 30.1824 167.671 27.7806C168.361 27.3901 169.06 26.9937 169.767 26.5922C170.195 26.3468 170.619 26.7158 170.436 27.1744C169.142 30.3867 167.795 33.7572 166.431 37.1724L165.761 36.6019C170.583 33.7055 175.502 30.7512 180.172 27.982C182.01 26.8918 183.32 26.2263 183.578 26.0709C184.143 25.7304 184.47 25.4553 185.608 24.7552C186.442 24.2424 187.343 23.6966 188.28 23.1336C188.667 22.9006 189.063 23.2359 188.898 23.6566C187.482 27.2556 185.843 31.2983 184.655 34.3704C183.996 36.0758 183.161 38.3565 182.467 40.1839L181.708 39.5924C181.93 39.4284 182.146 39.2705 182.352 39.1206C183.679 38.1555 186.849 35.9279 187.421 35.4774C187.768 35.2034 187.896 35.0308 188.323 34.7163ZM166.673 33.9552C166.683 34.274 167.722 31.3812 167.231 32.4262C167.121 32.6616 166.671 33.8728 166.673 33.9552ZM107.102 28.7865C107.045 28.8046 106.988 28.8227 106.931 28.8407C106.88 29.2413 106.829 29.6418 106.777 30.0424C106.849 29.8253 106.921 29.6081 106.993 29.391C107.03 29.1895 107.066 28.988 107.102 28.7865Z" fill="#0059FF"/>
</svg>
