<svg width="40" height="40" viewBox="0 0 40 40" fill="none" xmlns="http://www.w3.org/2000/svg">
<path d="M6.773 19.8112C6.67402 19.8591 6.49967 19.809 6.37547 19.8402C5.85489 19.9701 5.6453 19.9615 5.16923 20.0618C4.46332 20.2104 2.452 20.9358 2.26108 20.2875C2.26107 20.2875 2.26107 20.2875 2.26106 20.2874C2.25919 20.2811 2.2575 20.2746 2.25598 20.268C2.22679 20.1423 2.36124 19.9562 2.34596 19.809C2.33062 19.6616 2.04569 18.7652 2.2781 18.6417C2.61705 18.4693 3.54543 18.4473 3.73368 18.3807C3.86236 18.3352 3.99921 18.2058 4.16213 18.142C4.68742 17.9363 4.98718 17.9133 5.40731 17.5475C5.63616 17.6077 5.865 17.6679 6.09385 17.7281C6.33131 17.599 6.76108 17.6407 6.91258 17.5869C7.03685 17.5427 7.08357 17.428 7.21397 17.3849C7.36008 17.3361 7.61639 17.3695 7.88059 17.2753C8.31385 17.1214 8.32092 16.8562 8.57612 16.7476C8.71568 16.6883 8.91094 16.662 9.11194 16.6227C9.96992 16.3908 10.5894 17.1123 10.1684 17.8951C10.0702 18.0501 9.97634 18.2156 9.93556 18.3882C9.93956 18.4415 9.94355 18.4949 9.94754 18.5482C10.0184 18.5475 10.0892 18.5468 10.16 18.5462C10.1027 18.723 9.95222 18.7349 9.87358 18.8842C9.78098 19.0598 9.84374 19.2054 9.78262 19.3241C9.73245 19.4214 9.57792 19.5091 9.51899 19.6383C9.43262 19.8264 9.57904 19.8503 9.55207 19.9614C9.54106 20.0057 9.23785 20.7726 9.21783 20.8144C9.06289 21.1308 8.87666 21.0704 8.73409 21.313C8.33936 21.9862 8.11556 22.7698 7.84106 23.4387C7.71853 23.7374 7.55611 24.0315 7.38291 24.3033C7.17133 23.6284 6.32046 24.4501 7.20036 24.4289C6.94015 24.697 7.01152 25.0174 6.82641 25.3029C6.7065 25.4875 6.54206 25.5737 6.40269 25.8535C6.156 26.3503 6.1526 27.0293 5.58863 26.921C5.37977 27.5453 4.9455 27.9569 5.27294 28.387C5.22325 28.5501 4.76948 28.8018 4.6489 28.9517C4.53499 29.0935 3.79807 30.2515 3.69009 30.4473C3.58212 30.6432 3.39742 30.9882 3.35004 31.1753C3.28979 31.4101 3.66481 31.7866 2.94748 31.8937C2.90136 32.0113 2.86087 32.1084 2.82162 32.1942L2.01977 30.9674C2.29146 30.9401 2.47571 30.9518 2.81654 30.983C2.89957 30.9906 2.91397 31.0776 2.96205 31.0749C3.06109 31.0691 3.22584 30.9946 3.40217 30.9764C3.69215 30.9466 3.86881 31.1211 3.82001 30.8417C4.00893 30.7833 4.19785 30.725 4.38678 30.6667C4.45719 30.717 4.52759 30.7674 4.598 30.8178C4.69703 30.7526 4.79606 30.6875 4.89509 30.6224C4.79845 31.0364 5.50572 30.7542 5.25791 30.5343C5.63438 30.5968 6.01085 30.6594 6.38732 30.7219C6.36243 31.1876 7.20626 30.7278 7.11855 30.4805C7.16109 30.4784 7.20363 30.4763 7.24616 30.4742C7.62554 30.5754 7.96149 30.4549 8.42 30.511C8.87846 30.5671 8.8385 30.6147 8.98885 30.8194C9.0949 30.801 9.20094 30.7826 9.30699 30.7642C9.83316 30.1482 9.79301 31.164 10.7262 30.6606C11.054 31.0094 11.7982 30.7727 12.2927 30.6324C12.3502 30.6161 12.3471 30.5449 12.4234 30.5184C12.6101 30.4546 13.0997 30.5178 13.0698 30.2892C13.2413 30.3459 13.4128 30.4025 13.5843 30.4592C13.7189 30.4094 13.8535 30.3597 13.9881 30.31C13.9832 30.2384 13.9784 30.1668 13.9735 30.0952C14.2637 30.3233 14.6917 30.2042 14.909 30.2501C14.9523 30.2595 14.9672 30.3578 15.1011 30.377C15.2576 30.4 15.544 30.354 15.7301 30.3741C15.7953 30.2604 15.8606 30.1468 15.9258 30.0331C16.2519 29.9545 16.3845 30.2368 16.5793 30.248C16.6144 30.2498 17.2487 30.192 17.2826 30.1839C17.4824 30.1369 17.4897 29.9986 17.7817 29.9268L16.8713 30.8918C16.85 30.7767 16.8413 30.6191 16.8561 30.3916C16.8657 30.2469 16.951 30.1299 16.9545 29.9992C16.9607 29.7683 16.7671 29.0724 16.5883 29.0177C16.8121 28.7376 16.7206 27.9882 16.7853 27.7675C16.8052 27.7008 16.9477 27.6858 16.9781 27.481C17.0028 27.315 16.8887 26.8875 16.9078 26.6769C16.9116 26.6359 16.9187 26.5998 16.9279 26.5675L18.0477 27.453C17.8982 27.4465 17.8131 27.3832 17.7319 27.3953C17.6381 27.4095 17.5755 27.5237 17.4499 27.5528C17.0575 27.6423 16.667 27.5749 16.3568 27.6454C15.9082 27.747 15.5787 28.1192 15.2335 28.3316C15.1362 28.3356 15.0307 28.2974 14.9331 28.32C13.7254 28.5968 12.3531 28.8676 11.1297 29.0943C10.5618 29.1999 9.07616 29.1524 9.5982 29.6951C9.4466 29.8357 8.2401 29.9159 7.79847 29.9742C6.83533 30.1796 6.19126 29.3495 6.69741 28.5047C6.72694 28.4632 6.74986 28.4292 6.76428 28.4047C6.90476 28.1657 6.91239 27.9172 7.01865 27.727C7.33944 27.1529 7.64124 26.7919 7.94907 26.0461C8.02829 25.8534 8.01812 25.5927 8.08005 25.4871C8.15493 25.3601 8.34919 25.288 8.45101 25.1262C8.69282 24.7398 9.07439 23.9806 9.31046 23.6123C9.35382 23.5452 9.46933 23.5787 9.55752 23.4976C9.90137 23.1821 10.1369 22.7432 9.7687 22.6351C10.2346 22.245 10.327 21.6916 10.5776 21.2271C11.1084 20.2453 12.1892 18.5219 12.5335 17.5995C12.7505 17.0179 12.5972 16.9487 13.169 16.2359C13.296 16.0776 13.4321 15.9257 13.5855 15.7334C13.9453 15.283 14.4726 14.9819 14.3632 14.4203C14.76 13.9184 14.9495 13.4467 15.4587 13.1965C15.4196 13.1106 15.3805 13.0247 15.3414 12.9388C15.3779 12.8709 15.4144 12.8029 15.4509 12.7349L16.6052 14.51C16.6048 14.51 16.6044 14.5101 16.604 14.5101C16.5726 14.4399 16.5413 14.3698 16.51 14.2996C15.9553 14.3353 15.2839 14.7037 14.8158 14.7484C14.031 14.8234 11.999 14.9096 11.2454 14.886C10.8453 14.8735 10.8396 15.0311 10.5816 14.7342C10.4955 14.7652 10.4094 14.7963 10.3233 14.8274C10.275 14.9029 10.2267 14.9783 10.1784 15.0538C9.67208 15.1073 9.06029 15.0587 8.57775 15.1081C7.69849 15.1983 6.39709 15.5229 5.50126 15.4848C5.27662 15.475 4.98537 15.3584 4.76868 15.3817C4.45328 15.4155 4.40051 15.6626 4.00044 15.7072C3.7533 15.7345 3.42604 15.7328 3.0779 15.7234L4.00911 14.8645C3.82065 15.4588 3.58983 16.1106 3.52785 16.527C3.49901 16.7197 3.57079 16.8251 3.55608 16.9591C3.49532 17.5213 3.40511 17.9754 3.44423 18.5322C3.11324 19.062 2.82943 18.9593 2.50169 19.0824C2.25424 19.1759 1.66245 19.493 1.4565 19.5158C1.31181 19.5318 1.16323 19.3465 1.00172 19.3764C1.00587 18.6701 1.19107 18.4068 1.50485 17.8899C1.68348 16.8622 1.86211 15.8345 2.04074 14.8068C2.14021 14.7284 2.23967 14.6501 2.33914 14.5718C2.33932 14.5718 2.3395 14.5718 2.33968 14.5719C2.3413 14.5682 2.34288 14.5646 2.34444 14.5609C2.38336 14.2988 2.64684 14.0747 2.90952 14.0397C3.3088 14.09 3.45543 13.8622 3.66348 13.7926C5.6748 13.1201 9.76192 13.0803 12.0328 12.9064C12.5222 12.8688 14.0991 12.5976 14.4476 12.6995C14.5379 12.7261 14.5749 12.8523 14.6677 12.8486C15.2469 12.736 15.8261 12.6233 16.4053 12.5106C17.1486 12.4163 17.5504 13.0677 17.1973 13.7286C17.0976 13.9491 16.9978 14.1696 16.8981 14.3902C15.881 15.7717 15.1541 17.3846 14.332 18.8921C12.3805 22.4706 10.4588 26.0251 8.4726 29.5147L7.32776 27.9868C7.87357 27.8576 8.4193 27.7302 8.96506 27.6049C9.82567 27.4074 10.8937 27.0549 11.7492 26.9165C12.1062 26.8585 12.3003 27.0258 12.7258 26.7661C12.7435 26.8193 12.7613 26.8726 12.779 26.9259C13.1659 26.7649 13.3938 26.5802 13.842 26.4607C14.2195 26.3603 15.2228 26.1142 15.5635 26.0554C15.7401 26.0246 15.6993 26.1416 15.8616 26.1026C16.1391 26.0352 16.6998 25.754 17.0833 25.6631C17.2265 25.6292 17.4147 25.6056 17.605 25.584C18.2876 25.3986 18.8257 25.8605 18.8487 26.5675C18.8161 26.839 18.7787 27.1137 18.789 27.2751C18.8509 28.2638 19.0293 29.3407 18.9814 30.3943C18.974 30.5553 18.9292 30.7418 18.8913 30.8918C18.9098 31.4529 18.4583 31.8922 17.8992 31.9433C17.7766 31.9198 17.678 31.8994 17.6374 31.9034C17.4601 31.9217 17.4148 32.0561 17.2964 32.0799C16.695 32.2006 15.7406 32.0996 15.1458 32.1281C13.2076 32.2207 11.159 32.3976 9.22891 32.4859C8.00956 32.5417 5.98605 32.6828 4.85534 32.6496C4.61151 32.6424 4.66779 32.4947 4.46409 32.5066C4.23824 32.5198 4.12159 32.6241 4.01651 32.6381C3.57687 32.6971 2.81589 32.7907 2.12904 32.8424C1.23415 32.9204 0.763461 32.1534 1.14807 31.3416C1.34587 30.9365 1.5431 30.5678 1.70226 30.3421C1.77903 30.2336 1.92301 30.1998 1.95842 30.1294C1.97652 30.0938 1.94874 29.9785 1.99855 29.8634C2.43824 28.8467 2.8442 28.1488 3.35948 27.1956C4.34584 25.3697 5.30927 23.1626 6.36775 21.2558C6.59834 20.8403 6.94523 20.6516 6.97354 20.591C7.03604 20.4584 6.94472 20.3066 7.04636 20.0253C7.38556 19.0907 8.13168 17.9794 8.49059 17.1089C8.49826 17.0903 8.50582 17.0713 8.51328 17.0519L9.63655 18.4047C9.21128 18.5796 8.68345 18.9188 8.27606 19.0809C7.93597 19.2161 7.08917 19.3874 6.95786 19.5134C6.87788 19.5897 6.88016 19.7584 6.773 19.8112ZM6.13979 26.0933C5.93774 25.9175 5.82042 26.6235 6.06089 26.4587C6.11505 26.4216 6.19227 26.1388 6.13979 26.0933ZM13.2147 28.2594C13.2379 28.3301 13.2611 28.4009 13.2843 28.4717C13.3643 28.421 13.4444 28.3703 13.5244 28.3196C13.4651 28.2878 13.4059 28.256 13.3466 28.2242C13.3026 28.2359 13.2587 28.2476 13.2147 28.2594Z" fill="#0059FF"/>
<path d="M21.8268 13.4715C21.7496 13.4895 21.6405 13.3922 21.5494 13.3871C21.1677 13.3646 21.0263 13.2972 20.6809 13.2589C20.1688 13.2021 18.649 13.33 18.6489 12.6541C18.6489 12.6541 18.6489 12.6541 18.6489 12.6541C18.6489 12.6475 18.6491 12.6408 18.6494 12.634C18.6547 12.5052 18.784 12.3647 18.8032 12.2191C18.8223 12.0734 18.8079 11.133 18.9915 11.0801C19.2578 11.0105 19.8964 11.2516 20.0383 11.2409C20.1354 11.2335 20.2549 11.148 20.379 11.1329C20.7792 11.0839 20.9886 11.1465 21.3492 10.9142C21.4934 11.0366 21.6376 11.159 21.7818 11.2814C21.97 11.2246 22.2552 11.386 22.3695 11.3771C22.4633 11.3698 22.5182 11.273 22.616 11.2685C22.7256 11.263 22.894 11.3674 23.0934 11.3517C23.2142 11.3423 23.2983 11.302 23.3662 11.2532C24.0463 11.2771 24.3721 11.9041 23.9305 12.4218C23.9236 12.5644 23.9652 12.6853 23.9042 12.7947C23.8036 12.9747 23.4995 13.1371 23.4076 13.3955C23.4091 13.4383 23.4106 13.4811 23.4121 13.5238C23.4758 13.5446 23.5395 13.5654 23.6032 13.5862C23.5448 13.7068 23.4091 13.6707 23.3325 13.7634C23.2424 13.8723 23.2931 14.0047 23.2336 14.0788C23.1847 14.1394 23.0424 14.1613 22.9843 14.2442C22.8993 14.3648 23.03 14.4275 23.0014 14.506C22.9898 14.5371 22.6873 15.0434 22.6677 15.0699C22.516 15.2698 22.351 15.1667 22.2134 15.3128C21.8323 15.7186 21.6005 16.2617 21.3276 16.7003C21.2058 16.8962 21.0483 17.0764 20.882 17.2361C20.7182 16.6465 19.9213 17.0307 20.713 17.279C20.4686 17.4096 20.5203 17.6807 20.3427 17.8475C20.2277 17.9552 20.0765 17.9729 19.9403 18.149C19.6992 18.4617 19.6696 18.9898 19.1669 18.7357C18.9548 19.1592 18.5484 19.3492 18.8258 19.7829C18.7748 19.8951 18.3571 19.9546 18.2429 20.0351C18.1349 20.1113 17.4273 20.7917 17.3226 20.9118C17.2179 21.0319 17.0384 21.2452 16.9885 21.3767C16.9398 21.5034 17.1191 21.7729 16.9096 21.8305L16.1205 20.0907C16.1713 20.1317 16.227 20.2125 16.2897 20.3521C16.6402 20.3211 16.7635 20.3439 17.084 20.4281C17.1421 20.4433 17.1445 20.5312 17.1787 20.5329C17.2493 20.5363 17.3725 20.4774 17.4988 20.4755C17.7066 20.4726 17.8159 20.6625 17.8064 20.38C17.9452 20.3394 18.084 20.2987 18.2229 20.2581C18.2682 20.3148 18.3135 20.3714 18.3587 20.428C18.4346 20.3723 18.5105 20.3166 18.5863 20.261C18.481 20.6641 19.0064 20.4485 18.8508 20.2068C19.1115 20.3038 19.3722 20.4008 19.6328 20.4978C19.5736 20.9589 20.2115 20.5792 20.1716 20.325C20.2019 20.3268 20.2321 20.3286 20.2624 20.3305C20.5217 20.4663 20.7701 20.3774 21.0893 20.4755C21.4086 20.5736 21.376 20.6172 21.4641 20.8349C21.5407 20.8263 21.6174 20.8178 21.694 20.8093C22.1212 20.2448 22.002 21.252 22.707 20.8372C22.9077 21.2145 23.4552 21.0477 23.8175 20.9537C23.8596 20.9427 23.8638 20.8716 23.9201 20.8523C24.0579 20.806 24.3985 20.9141 24.3978 20.6839C24.514 20.7561 24.6302 20.8283 24.7465 20.9005C24.8461 20.8634 24.9458 20.8264 25.0454 20.7893C25.0484 20.7176 25.0513 20.6459 25.0543 20.5742C25.2391 20.828 25.5525 20.7489 25.7021 20.8147C25.7318 20.828 25.7336 20.9272 25.8266 20.9587C25.9352 20.9961 26.1419 20.9767 26.2717 21.0139C26.328 20.9068 26.3843 20.7997 26.4406 20.6926C26.6782 20.6445 26.7468 20.9376 26.8836 20.9667C26.9036 20.9709 27.2064 20.9723 27.3329 20.97L26.5633 21.7034C26.5614 21.6742 26.5597 21.6543 26.5585 21.6497C26.5096 21.4498 26.2629 21.5064 26.3157 20.9281C26.3253 20.8251 26.4106 20.7418 26.4141 20.6487C26.4203 20.4843 26.2267 19.9887 26.0479 19.9498C26.2075 19.8076 26.2068 19.4954 26.2166 19.271L27.2976 20.3519C27.2073 20.348 27.1312 20.3423 27.0861 20.3237C27.0386 20.3038 27.0279 20.1612 26.8821 20.1309C26.7639 20.1062 26.4594 20.2203 26.3095 20.2012C26.1504 20.1804 26.0935 20.0606 26.0222 20.0522C25.9549 20.0443 25.8928 20.141 25.801 20.1404C25.5144 20.137 25.2549 19.9814 25.0284 19.9786C24.7008 19.9741 24.4114 20.2603 24.1373 20.3874C24.0693 20.3689 24.0025 20.3074 23.9311 20.3069C23.0488 20.2979 22.0535 20.2451 21.1686 20.1838C21.0126 20.1731 20.7686 20.1105 20.5408 20.0724C19.7719 20.0464 19.4125 19.3236 19.9291 18.7534C20.2171 18.5095 20.4272 18.2563 20.0108 18.1256C20.0164 17.9433 20.8865 17.3197 21.017 17.1715C21.1475 17.0233 21.1599 16.8287 21.2588 16.7092C21.5574 16.3485 21.8343 16.1509 22.1252 15.6504C22.2001 15.5209 22.1968 15.3115 22.2543 15.246C22.3239 15.1673 22.4986 15.1671 22.5929 15.0687C22.8169 14.8335 23.1738 14.3439 23.3924 14.1213C23.4325 14.0809 23.5347 14.1412 23.615 14.1028C23.9284 13.9536 24.148 13.6749 23.8224 13.4816C24.2462 13.309 24.3408 12.8977 24.5745 12.6032C25.0692 11.9811 26.0706 10.9326 26.3979 10.3029C26.6043 9.90576 26.4692 9.8061 26.9946 9.40895C27.1112 9.32077 27.2359 9.24029 27.3768 9.13293C27.7075 8.8815 28.1839 8.79738 28.099 8.32059C28.2655 8.1921 28.3935 8.05594 28.527 7.94124L29.5179 9.95092C29.3097 9.92764 29.1184 9.87781 28.9288 9.7134C28.8931 9.79167 28.8574 9.86993 28.8217 9.9482C28.7666 9.95271 28.7115 9.95723 28.6565 9.96175C28.6358 9.88971 28.6151 9.81768 28.5944 9.74564C28.1984 9.74484 27.7114 10.0681 27.3769 10.0819C26.816 10.1052 25.3662 10.0577 24.8298 9.98467C24.545 9.94591 24.5372 10.1027 24.3604 9.78961C24.2983 9.81493 24.2362 9.84025 24.1741 9.86557C24.138 9.93769 24.1018 10.0098 24.0656 10.0819C23.7036 10.102 23.2689 10.0133 22.9239 10.0309C22.2953 10.0631 21.3605 10.3013 20.7231 10.2044C20.5633 10.1799 20.3585 10.0445 20.2036 10.0535C19.9781 10.0665 19.9347 10.3095 19.6486 10.3276C19.2713 10.3512 18.6371 10.2189 18.1514 10.175L18.9958 9.09353C19.0047 9.24301 19.0198 9.37739 19.0462 9.48398C19.0795 9.61875 19.18 9.66464 19.2081 9.75667C19.3271 10.1424 19.3846 10.4671 19.5958 10.8175C19.4508 11.2681 19.1519 11.2915 18.8825 11.476C18.6793 11.6157 18.2226 12.0107 18.0362 12.091C17.9053 12.1475 17.7076 12.074 17.5652 12.1449C17.3479 11.6832 17.4394 11.4527 17.5723 11.016C17.4612 10.4923 17.3502 9.96856 17.2391 9.44487C17.0998 8.88418 17.491 8.43955 18.0662 8.38551C18.2733 8.37324 18.4805 8.36097 18.6876 8.3487C18.7591 8.42919 18.8305 8.50968 18.902 8.59018C18.902 8.59036 18.902 8.59054 18.9021 8.59073C19.1916 8.67376 19.3021 8.45244 19.4534 8.39619C20.9022 7.85761 23.8151 8.08643 25.4372 8.06212C25.7867 8.05673 26.9166 7.88988 27.1626 8.01442C27.2263 8.04687 27.2496 8.17513 27.3159 8.1776C27.9015 8.07278 28.4872 7.96796 29.0728 7.86315C29.1883 7.87665 29.3041 7.88687 29.4199 7.89422C30.2407 7.82908 30.6106 8.62619 30.0989 9.27125C29.2912 10.0352 28.6652 10.9896 27.9716 11.8527C25.8991 14.4317 23.8618 16.9971 21.7367 19.4607C21.6085 19.6093 21.4772 19.777 21.3438 19.9504L20.5408 18.2192C21.0223 18.1968 21.5319 18.1644 21.9553 18.2074C22.2121 18.2333 22.3192 18.4408 22.6567 18.2861C22.6602 18.342 22.6637 18.3979 22.6673 18.4538C22.9618 18.3863 23.15 18.2591 23.4802 18.2462C23.7582 18.2355 24.4939 18.2272 24.7396 18.2486C24.867 18.2593 24.8196 18.3637 24.9384 18.3632C25.1418 18.3615 25.5764 18.2171 25.8571 18.2171C26.1113 18.2171 26.54 18.3374 26.7355 18.32C26.9191 18.3038 27.1069 18.2798 27.2976 18.2539C27.8723 18.2273 28.2881 18.6963 28.3147 19.271C28.3881 19.8117 28.4764 20.3754 28.4411 20.9301C28.4275 21.1373 28.2921 21.4039 28.2959 21.4688C28.3032 21.5878 28.4198 21.6284 28.4479 21.7034C28.4795 22.3849 27.9245 22.8537 27.2423 22.8524C27.2373 22.854 27.2323 22.8552 27.227 22.856C26.7909 22.9206 26.1249 22.732 25.7017 22.7054C24.3226 22.6188 22.8579 22.6057 21.4849 22.5154C20.6175 22.4585 19.1738 22.4122 18.377 22.2747C18.2052 22.2451 18.2582 22.1033 18.1131 22.0963C17.9522 22.0886 17.8603 22.1817 17.7848 22.1859C17.3752 22.2094 16.5792 22.2408 16.0193 22.1943C15.0698 22.1839 14.6977 21.2857 15.2602 20.5207C15.3613 20.4021 15.4567 20.3018 15.5401 20.2316C15.6133 20.1701 15.744 20.1871 15.7786 20.1429C15.7963 20.1206 15.7758 20.0224 15.8251 19.9477C16.2601 19.2879 16.6522 18.8663 17.1526 18.2787C18.1106 17.1528 19.0628 15.7231 20.0887 14.556C20.3122 14.3017 20.6314 14.259 20.6592 14.2204C20.7206 14.1359 20.6444 13.9901 20.7468 13.8015C21.0882 13.1754 21.8023 12.5341 22.1589 11.9638C22.2753 11.7778 22.3728 11.508 22.4742 11.2653L23.3662 13.1128C23.236 13.1496 23.1108 13.181 23.0004 13.1954C22.7409 13.2291 22.128 13.1543 22.013 13.238C21.943 13.2886 21.9106 13.4511 21.8268 13.4715ZM19.6947 18.2566C19.5199 18.0588 19.3869 18.5736 19.6095 18.5176C19.6596 18.505 19.7401 18.3079 19.6947 18.2566ZM22.7504 19.8518C22.7548 19.9261 22.7593 20.0003 22.7637 20.0745C22.8275 20.0436 22.8913 20.0127 22.9551 19.9818C22.9192 19.9372 22.8834 19.8926 22.8475 19.848C22.8151 19.8493 22.7827 19.8506 22.7504 19.8518Z" fill="#0059FF"/>
<path d="M35.3185 11.6726C35.3444 11.6594 35.3569 11.7611 35.3824 11.7714C35.4887 11.8156 35.5165 11.8899 35.6091 11.9475C35.7465 12.0329 36.2124 11.9957 36.0799 12.6584C36.0799 12.6584 36.0799 12.6584 36.0799 12.6584C36.0786 12.6649 36.0772 12.6715 36.0758 12.6781C36.049 12.8041 35.9839 12.9344 35.9498 13.0761C35.9157 13.2178 35.7354 14.1408 35.6718 14.1819C35.5809 14.2348 35.443 13.9613 35.3997 13.9636C35.3701 13.9652 35.3187 14.0421 35.2797 14.0497C35.1541 14.0745 35.1056 14.0011 34.9555 14.2079C34.9376 14.0795 34.9198 13.9511 34.902 13.8228C34.8363 13.8675 34.7852 13.6927 34.7503 13.6948C34.7217 13.6965 34.6868 13.7882 34.6575 13.7869C34.6246 13.7861 34.5963 13.6739 34.5354 13.6777C34.4356 13.6836 34.3692 13.9278 34.306 13.9478C34.2405 13.9685 34.1757 13.8157 34.083 13.8877C34.0681 13.9131 34.0532 13.9384 34.0383 13.9637C34.0328 14.0267 34.0272 14.0896 34.0217 14.1526C33.978 14.1736 33.9869 14.0442 33.9526 14.0349C33.9121 14.024 33.8673 14.1394 33.8398 14.1334C33.8173 14.1283 33.8059 14.0262 33.7754 14.0264C33.731 14.0261 33.7126 14.1665 33.6845 14.1878C33.6733 14.1961 33.4884 14.2386 33.4786 14.2378C33.4048 14.2287 33.4364 14.0378 33.3817 14.0096C33.2298 13.9322 33.034 14.0524 32.8736 14.0805C32.8019 14.0932 32.7348 14.0683 32.6746 14.0247C32.876 13.5603 32.7206 13.1364 32.6551 13.913C32.603 13.7903 32.5097 13.9848 32.4467 13.9362C32.406 13.9045 32.3958 13.793 32.3307 13.7828C32.2151 13.7655 32.0299 14.0397 32.1052 13.4921C31.9516 13.5606 31.8744 13.3411 31.7304 13.809C31.6899 13.8312 31.658 13.529 31.6268 13.4826C31.5973 13.4388 31.3408 13.2539 31.2961 13.2375C31.2513 13.2211 31.1721 13.1972 31.1248 13.2313C31.0656 13.2734 30.9324 13.7618 30.9613 13.1653C30.8508 13.192 30.8181 13.1682 30.7375 13.0821C30.7229 13.0665 30.7382 12.9802 30.7282 12.9781C30.7077 12.974 30.6602 13.0306 30.622 13.031C30.5594 13.0317 30.5612 12.8439 30.5127 13.1215C30.4637 13.1599 30.4148 13.1983 30.3659 13.2367C30.3642 13.2066 30.3624 13.1764 30.3607 13.1462C29.4598 12.8777 29.2207 11.8632 30.0679 11.456C30.0865 11.4742 30.105 11.4923 30.1236 11.5105C30.1116 11.4486 30.0997 11.3867 30.0877 11.3247C30.2757 11.6874 30.2824 11.4028 30.1197 11.2276C30.2303 11.2596 30.3409 11.2916 30.4515 11.3236C30.6806 11.7266 30.6267 11.2809 30.4838 11.0728C30.4917 11.0685 30.4996 11.0642 30.5074 11.0599C30.6382 11.1251 30.6482 11.0016 30.7728 11.0232C30.8974 11.0449 30.9129 11.0882 31.0475 11.256C31.0605 11.2339 31.0736 11.2119 31.0866 11.1898C30.8873 10.6279 31.3899 11.5062 31.3328 11.0177C31.5772 11.2994 31.6147 11.052 31.648 10.9021C31.6519 10.8847 31.6154 10.8235 31.6181 10.7962C31.6253 10.7302 31.76 10.7563 31.6387 10.5609C31.7033 10.5997 31.7678 10.6386 31.8324 10.6774C31.8357 10.6267 31.839 10.576 31.8422 10.5253C31.8052 10.4638 31.7681 10.4023 31.7311 10.3408C31.9069 10.5207 31.9369 10.393 32.0057 10.4199C32.0195 10.4255 32.0721 10.5094 32.1099 10.5182C32.1544 10.5289 32.1915 10.4725 32.2407 10.479C32.1972 10.3772 32.1538 10.2753 32.1103 10.1735C32.1393 10.0867 32.3092 10.3224 32.3558 10.3207C32.3641 10.3203 32.4684 10.2334 32.4714 10.2244C32.4969 10.152 32.3556 9.94912 32.5295 9.90641C32.5605 9.89893 32.6256 9.95943 32.651 9.94821C32.6958 9.92849 32.7219 9.68711 32.6398 9.52782C32.8056 9.68941 32.8938 9.52974 32.967 9.56128C32.9892 9.57111 33.0653 9.69174 33.1179 9.69558C33.1606 9.69881 33.1791 9.55458 33.227 9.54815C33.278 9.54177 33.3541 9.63583 33.3765 9.63224C33.3977 9.62874 33.3637 9.53638 33.3872 9.52288C33.4617 9.48217 33.6075 9.57612 33.6665 9.54411C33.7519 9.49812 33.678 9.20861 33.6821 9.05791C33.7089 9.06347 33.7575 9.10599 33.7758 9.09561C34.0043 8.96906 34.2838 8.86282 34.5398 8.78072C34.6585 8.74234 35.1175 8.92008 34.7148 8.40561C34.6926 8.28651 35.0904 8.35269 35.1425 8.32602C35.1946 8.29932 35.1744 8.17581 35.2129 8.15073C35.3291 8.07513 35.4558 8.09679 35.5483 7.92325C35.572 7.87815 35.5411 7.73604 35.5641 7.72415C35.5919 7.7101 35.6891 7.80713 35.7279 7.79368C35.82 7.76073 35.9507 7.6312 36.0415 7.60362C36.0582 7.59884 36.1234 7.6961 36.1628 7.71508C36.3166 7.78943 36.4001 7.72484 36.1921 7.41418C36.404 7.53427 36.3996 7.31136 36.4889 7.24402C36.5363 7.20849 36.5977 7.17272 36.6647 7.13528L37.0675 9.39926C36.8439 9.34956 36.5737 9.27831 36.401 9.3651C36.2557 9.43818 36.2276 9.60333 36.068 9.42579C36.0325 9.38641 35.9994 9.33608 35.9562 9.28895C35.8553 9.17811 35.8051 8.85357 35.6455 9.20273C35.5327 9.08281 35.4157 9.13032 35.3783 8.7986C35.3525 8.87155 35.3267 8.94449 35.301 9.01744C35.2846 9.01624 35.2682 9.01504 35.2518 9.01385C35.2604 8.94124 35.2691 8.86864 35.2777 8.79604C35.1665 8.75485 34.9646 9.02157 34.8677 9.00089C34.7052 8.96651 34.3069 8.77208 34.1706 8.64593C34.0983 8.57895 34.0646 8.73156 34.0777 8.40717C34.0552 8.42561 34.0326 8.44406 34.0101 8.4625C33.9854 8.52939 33.9608 8.59627 33.9361 8.66315C33.8303 8.64584 33.7257 8.51476 33.6252 8.49674C33.4419 8.46412 33.1311 8.60191 32.9712 8.44207C32.9311 8.40181 32.9007 8.24841 32.8553 8.24143C32.7893 8.23114 32.7283 8.46448 32.6442 8.45303C32.4993 8.43288 32.2842 8.10736 32.1446 8.10251C32.1031 8.10092 32.0676 8.18529 32.038 8.18938C31.9136 8.20749 31.8192 8.18208 31.6814 8.29668C31.6044 8.04728 31.6705 7.75688 31.6895 7.45476C31.7037 7.22672 31.7154 6.69421 31.7403 6.49686C31.7578 6.3582 31.8236 6.18809 31.8402 6.03498C32.0071 5.94195 32.0423 6.08606 32.1187 6.32047C32.3362 6.35312 32.5536 6.38578 32.771 6.41843C32.775 6.50449 32.7789 6.59055 32.7829 6.67661C32.7828 6.67679 32.7828 6.67697 32.7828 6.67715C32.8476 6.78795 32.9231 6.58263 32.9769 6.54302C33.4926 6.16376 34.2662 6.68483 34.7274 6.82649C34.8268 6.85688 35.1782 6.80885 35.2224 6.95582C35.2338 6.99407 35.2146 7.12196 35.2328 7.13114C35.4186 7.08831 35.6044 7.04548 35.7902 7.00264C36.1051 7.26702 36.5006 7.17355 36.8616 7.21082C37.0656 7.23186 37.2693 7.25205 37.4726 7.27274C38.4269 7.36603 38.5525 8.42574 37.7784 8.99154C37.1519 9.44563 36.526 9.88959 35.8606 10.2603C35.698 10.3506 35.5454 10.5551 35.3572 10.5952C35.2787 10.6121 35.1448 10.4505 35.1388 10.6344C35.1091 10.587 35.0794 10.5396 35.0498 10.4922C35.0098 10.5949 35.0275 10.7327 34.9504 10.794C34.8854 10.8455 34.7031 10.9645 34.6298 10.9836C34.592 10.9938 34.5502 10.897 34.5204 10.9156C34.4697 10.948 34.4337 11.138 34.3625 11.1807C34.2981 11.2194 34.1274 11.1814 34.0868 11.2261C33.9401 11.3863 33.8374 11.656 33.6225 11.7291C33.5629 11.7491 33.4256 11.6735 33.4111 11.6866C33.383 11.7127 33.4411 11.8312 33.4282 11.8587C33.3625 11.9978 33.111 11.9664 33.0003 12.0256C32.6395 12.2185 32.2978 12.4905 31.9364 12.6791C31.7082 12.7983 31.3538 13.038 31.0993 13.0752C31.0633 13.0805 31.024 13.026 30.9908 12.9942L30.7125 11.3873C30.7141 11.4112 30.7187 11.4295 30.7332 11.4324C30.7799 11.4417 30.8243 11.3513 30.8477 11.3479C31.0097 11.3241 31.3626 11.2943 31.4858 11.4205C31.5092 11.4446 31.5068 11.5593 31.5232 11.5622C31.5314 11.5638 31.5651 11.492 31.5925 11.4894C31.8345 11.4667 31.9922 11.5441 32.2107 11.6148C32.6294 11.7495 33.154 11.7082 33.589 11.8743C33.6837 11.9105 33.7072 12.143 33.7214 12.1436C33.7525 12.1452 33.8014 12.0017 33.87 11.9776C34.0977 11.8987 34.3407 12.1109 34.5493 12.0757C34.6524 12.0585 34.8214 11.8978 34.9239 11.8752C35.0058 11.8572 35.1689 11.9661 35.2187 11.8907C35.2489 11.8451 35.2902 11.6876 35.3185 11.6726ZM32.2865 13.6461C32.3509 13.394 32.1676 13.5775 32.1931 13.7249C32.1989 13.758 32.2698 13.7115 32.2865 13.6461ZM34.3094 9.3061C34.2701 9.24313 34.2308 9.18017 34.1915 9.1172C34.1912 9.15339 34.1909 9.18958 34.1906 9.22577C34.2227 9.25857 34.2547 9.29138 34.2868 9.32418C34.2943 9.31815 34.3019 9.31212 34.3094 9.3061Z" fill="#0059FF"/>
</svg>
