<svg width="40" height="40" viewBox="0 0 40 40" fill="none" xmlns="http://www.w3.org/2000/svg">
<path d="M36.5951 29.1677C36.5996 29.1659 36.6043 29.1655 36.6091 29.1662C36.6501 29.1722 36.6963 29.2518 36.7403 29.2581C36.9421 29.2883 37.0143 29.3581 37.1918 29.4C37.4543 29.4721 38.1904 29.3025 38.2605 29.9748C38.2605 29.9748 38.2605 29.9748 38.2605 29.9749C38.2609 29.9815 38.2612 29.9882 38.2614 29.995C38.2648 30.1237 38.1999 30.268 38.1976 30.414C38.1951 30.5601 38.2567 31.4984 38.1577 31.5571C38.016 31.6367 37.6134 31.4106 37.5322 31.4198C37.4746 31.4278 37.4035 31.5134 37.3296 31.528C37.0916 31.5747 36.9748 31.5084 36.7585 31.7334C36.6795 31.6081 36.6031 31.4826 36.5263 31.3568C36.5227 31.3585 36.519 31.36 36.5153 31.3612C36.4075 31.3983 36.263 31.2405 36.2002 31.2461C36.1481 31.2509 36.1112 31.346 36.057 31.3478C35.9951 31.3503 35.906 31.2412 35.7943 31.2511C35.6107 31.2668 35.5643 31.517 35.4533 31.5431C35.3378 31.5701 35.1689 31.4233 35.0195 31.5039C34.9998 31.5306 34.9802 31.5573 34.9605 31.584C34.9699 31.6474 34.9794 31.7109 34.9888 31.7743C34.9145 31.7994 34.8902 31.6691 34.8236 31.663C34.745 31.6558 34.698 31.7753 34.6451 31.7717C34.6018 31.7687 34.5485 31.6677 34.4921 31.6706C34.4096 31.6743 34.4195 31.8164 34.374 31.8403C34.3557 31.8495 34.0267 31.9088 34.0084 31.9089C33.8689 31.9065 33.8677 31.7128 33.7581 31.6897C33.4535 31.6263 33.1298 31.7648 32.8474 31.8098C32.8316 31.8123 32.8159 31.8143 32.8005 31.8157C32.69 31.8254 32.5813 31.8084 32.4803 31.7777C32.687 31.2898 32.2806 30.8907 32.413 31.6698C32.2859 31.5558 32.1904 31.7633 32.0661 31.727C31.9859 31.7034 31.9283 31.5958 31.8095 31.599C31.5956 31.6055 31.3626 31.9139 31.2946 31.3631C31.039 31.4637 30.817 31.2674 30.7291 31.7559C30.6667 31.7867 30.4868 31.4997 30.4151 31.4615C30.3389 31.4257 29.802 31.3044 29.7123 31.2987C29.6256 31.293 29.466 31.2879 29.3953 31.332C29.3038 31.3865 29.2425 31.8928 29.069 31.3054C28.8721 31.3568 28.8088 31.341 28.6241 31.2758C28.5905 31.264 28.5851 31.1764 28.5654 31.1767C28.525 31.1774 28.463 31.2434 28.3928 31.2525C28.2781 31.2676 28.2062 31.0844 28.2247 31.3658C28.1469 31.4145 28.077 31.463 28.001 31.5117C27.9734 31.4578 27.9455 31.4039 27.9176 31.35C27.8775 31.41 27.837 31.47 27.796 31.53C27.8359 31.1215 27.559 31.3671 27.6546 31.5994C27.5073 31.5177 27.3525 31.4361 27.2079 31.3543C27.2182 30.9836 27.0044 31.1751 26.9322 31.3953C26.9154 31.4505 26.9074 31.5076 26.9139 31.558C26.8974 31.5579 26.8809 31.5578 26.8643 31.5578C26.7179 31.4371 26.5786 31.5403 26.3982 31.4606C26.2191 31.3809 26.2341 31.3356 26.176 31.1233C26.1336 31.1362 26.091 31.1492 26.0482 31.1621C25.8318 31.75 25.8628 30.7377 25.4836 31.192C25.3569 30.8267 25.0616 31.0242 24.8622 31.1386C24.8396 31.1519 24.8403 31.2232 24.8102 31.2456C24.7368 31.2996 24.543 31.2109 24.5528 31.4407C24.485 31.3752 24.4167 31.3097 24.3481 31.2441C24.2951 31.2868 24.242 31.3294 24.1885 31.372C24.1899 31.4437 24.1912 31.5155 24.1926 31.5873C24.0803 31.3443 23.9088 31.4408 23.8218 31.3836C23.8048 31.372 23.7986 31.2731 23.7465 31.2468C23.6854 31.2157 23.5723 31.2466 23.4987 31.2168C23.4719 31.3269 23.4451 31.4369 23.4182 31.547C23.2879 31.6084 23.2364 31.3196 23.1594 31.2983C23.1459 31.2946 22.8954 31.319 22.8816 31.3254C22.7713 31.376 22.8048 31.6221 22.4827 31.574C22.4256 31.5652 22.3782 31.4806 22.3265 31.4779C22.2356 31.473 21.9605 31.6705 21.9417 31.8497C21.8287 31.6274 21.5333 31.7232 21.4442 31.6598C21.4174 31.6403 21.4094 31.4978 21.3272 31.4686C21.2616 31.4448 21.0946 31.5614 21.0108 31.5435C20.922 31.524 20.8885 31.4047 20.8486 31.3968C20.8109 31.3895 20.7776 31.4867 20.7262 31.4868C20.5667 31.4858 20.4211 31.3322 20.2948 31.3312C20.112 31.3294 19.9551 31.618 19.805 31.7473C19.7669 31.7293 19.7289 31.6684 19.6892 31.6684C19.1973 31.6666 18.644 31.6221 18.1506 31.5683C17.9216 31.5436 17.3476 31.1638 17.5092 31.8098C17.4316 31.9245 16.8502 31.6722 16.7406 31.67C16.6306 31.6679 16.5454 31.7855 16.4591 31.7886C16.1989 31.7979 16.0143 31.7171 15.6989 31.8236C15.6176 31.8514 15.5324 31.9906 15.4841 31.9898C15.426 31.9885 15.3606 31.8564 15.2847 31.8492C15.103 31.8332 14.7707 31.8827 14.5956 31.8628C14.5639 31.8588 14.5507 31.7421 14.5049 31.7063C14.3262 31.5666 14.1304 31.5825 14.1718 31.9553C13.9426 31.7474 13.7363 31.9446 13.5293 31.9603C13.0854 31.9927 12.2857 31.9213 11.9009 32.0865C11.6616 32.1905 11.672 32.3578 11.3109 32.2211C11.2312 32.1908 11.1519 32.1494 11.0563 32.1133C10.8269 32.0285 10.6135 31.724 10.4532 32.1008C10.1961 32.0102 10.0057 32.0836 9.80949 31.7696C9.78933 31.8467 9.76924 31.9237 9.74922 32.0007C9.71843 32.0034 9.68774 32.0061 9.65716 32.0088C9.64569 31.9361 9.63423 31.8635 9.62277 31.7908C9.40657 31.7768 9.13036 32.0843 8.94891 32.0874C8.73026 32.0912 8.26236 32.0468 7.91082 31.9901C7.75498 31.9665 7.6228 31.9404 7.53588 31.9142C7.38271 31.8672 7.37307 32.0239 7.27245 31.7061C7.23784 31.7297 7.20349 31.7533 7.16939 31.7768C7.15005 31.8479 7.13081 31.9189 7.11168 31.9899C6.91327 31.9998 6.67009 31.8993 6.47679 31.9075C6.13337 31.9224 5.61134 32.1361 5.25701 32.0234C5.17277 31.9948 5.04988 31.8548 4.96632 31.8599C4.84646 31.8672 4.81851 32.1092 4.66386 32.1205C4.39067 32.1395 3.87178 31.884 3.61511 31.9192C3.54021 31.9293 3.50994 32.0206 3.45693 32.0331C3.23993 32.0863 3.06007 32.0896 2.86701 32.2421C2.63565 32.0281 2.63 31.731 2.53557 31.4379C2.46156 31.2179 2.26005 30.7068 2.10416 30.5431C2.02124 30.4193 2.15147 30.205 2.05745 30.0688C2.35733 29.9535 2.39607 29.9658 2.51642 29.9982C2.61879 30.0353 2.71715 30.116 2.83823 30.2161C3.26039 30.1794 3.67786 30.1501 4.09135 30.1219C4.1324 30.2039 4.1741 30.2858 4.21649 30.3678C4.2165 30.3679 4.21651 30.3681 4.21652 30.3683C4.38151 30.4575 4.4354 30.2392 4.52341 30.1862C5.3162 29.684 6.93158 29.9838 7.84349 30.01C7.84937 30.0102 7.85522 30.0103 7.86104 30.0105C8.05135 30.015 8.68482 29.8824 8.82583 30.0147C8.86082 30.0492 8.87401 30.1781 8.91048 30.1827C9.2365 30.0964 9.5616 30.0109 9.89231 29.9256C10.5753 30.1092 11.2668 29.9277 11.9476 29.8826C13.7896 29.7605 15.6109 29.6283 17.4222 29.631C17.7722 29.6317 18.2152 29.5282 18.5584 29.5854C18.7014 29.6092 18.7645 29.8158 18.9502 29.6583C18.953 29.7142 18.9558 29.7701 18.9586 29.826C19.1217 29.756 19.2238 29.6273 19.4076 29.6116C19.5633 29.5987 19.9706 29.5844 20.1086 29.6038C20.1799 29.6134 20.1549 29.7182 20.2212 29.7168C20.3349 29.7134 20.573 29.5655 20.7298 29.5632C20.8722 29.5612 21.1123 29.6781 21.22 29.6591C21.612 29.5916 22.0362 29.4071 22.4531 29.4489C22.5663 29.4608 22.72 29.594 22.7556 29.5897C22.8262 29.5808 22.8453 29.4489 22.8923 29.4313C23.1282 29.3424 23.5118 29.4932 23.7431 29.496C24.5112 29.505 25.3258 29.4353 26.0915 29.4469C26.3139 29.4503 26.6114 29.4441 26.8978 29.4456C27.2455 29.447 27.5842 29.4588 27.8237 29.5077C27.922 29.5273 27.8986 29.6719 27.9795 29.6704C28.0688 29.6688 28.1136 29.5706 28.1545 29.562C28.448 29.5015 29.0821 29.3914 29.3592 29.4859C29.4113 29.504 29.45 29.6163 29.4803 29.6153C29.4967 29.615 29.5322 29.5373 29.5821 29.5285C30.0206 29.4508 30.3346 29.4899 30.7697 29.5091C31.4146 29.54 32.1754 29.438 32.9148 29.4831C33.1038 29.493 33.2911 29.5097 33.472 29.5359C33.6601 29.5631 33.7766 29.7935 33.8031 29.7928C33.8619 29.7916 33.9071 29.6436 34.0269 29.6132C34.425 29.5136 34.9408 29.704 35.3151 29.6492C35.4999 29.6223 35.7613 29.4455 35.9419 29.4126C36.0863 29.3865 36.4183 29.4775 36.4843 29.3965C36.5238 29.3476 36.55 29.1861 36.5951 29.1677ZM31.6807 31.4743C31.7034 31.2142 31.4389 31.4326 31.5411 31.5711C31.5654 31.6022 31.6733 31.5418 31.6807 31.4743ZM19.0256 31.2231C19.0292 31.2973 19.0327 31.3715 19.0363 31.4456C19.0714 31.4142 19.1064 31.3828 19.1413 31.3514C19.1208 31.3071 19.1002 31.2628 19.0796 31.2185C19.0616 31.22 19.0436 31.2216 19.0256 31.2231Z" fill="#0059FF"/>
<path d="M32.818 26.5473C32.852 26.5824 32.7862 26.6787 32.8012 26.73C32.8626 26.9448 32.8282 27.046 32.8582 27.2341C32.9017 27.5354 33.2768 28.0722 32.6833 28.3815C32.6833 28.3815 32.6833 28.3815 32.6832 28.3815C32.6773 28.3844 32.6712 28.3873 32.6651 28.3901C32.5482 28.4443 32.3936 28.4475 32.2576 28.5007C32.1218 28.554 31.2773 28.9689 31.1833 28.8926C31.0509 28.7783 31.1296 28.3385 31.0937 28.2714C31.067 28.2233 30.9633 28.1916 30.9251 28.1334C30.8026 27.9475 30.824 27.8242 30.5423 27.7417C30.6302 27.6307 30.7171 27.5187 30.8027 27.405C30.7901 27.3957 30.7812 27.3837 30.775 27.3698L30.7834 27.3892C30.7416 27.3021 30.8003 27.1455 30.7719 27.1011C30.745 27.0592 30.6444 27.0715 30.6191 27.0262C30.5903 26.9758 30.6487 26.8509 30.5908 26.7606C30.4966 26.6126 30.2537 26.688 30.1815 26.6053C30.107 26.5202 30.1634 26.3104 30.0258 26.2202C29.9934 26.2157 29.9611 26.2114 29.9286 26.2069C29.8764 26.2438 29.824 26.2806 29.7717 26.3176C29.7168 26.2662 29.8217 26.1854 29.798 26.1267C29.7695 26.0558 29.643 26.0715 29.6225 26.0241C29.606 25.9857 29.6727 25.8947 29.6451 25.8476C29.6057 25.7796 29.4832 25.8519 29.4419 25.8238C29.4259 25.8132 29.2279 25.5577 29.2195 25.5411C29.1602 25.4198 29.3324 25.331 29.3051 25.2261C29.2277 24.9329 28.9628 24.7131 28.7976 24.4655C28.7772 24.4352 28.7587 24.4015 28.7433 24.3682L28.7777 24.4466C28.7335 24.3654 28.7052 24.2775 28.6883 24.1896C29.217 24.1495 29.3846 23.6045 28.7527 24.079C28.7953 23.912 28.567 23.9195 28.5457 23.7953C28.5322 23.7153 28.6045 23.6187 28.5522 23.521C28.4578 23.3457 28.0914 23.3086 28.5492 22.9962C28.3551 22.8428 28.4264 22.5711 27.9679 22.7542C27.9144 22.7226 28.0844 22.4464 28.082 22.3701C28.0835 22.298 27.9259 21.8371 27.8824 21.7721C27.8428 21.7061 27.7666 21.5945 27.6931 21.5713C27.5992 21.5389 27.1816 21.8249 27.5396 21.3351C27.4093 21.2503 27.3752 21.1996 27.3286 21.0742C27.3226 21.0593 27.3164 21.0434 27.3099 21.0263C27.2984 20.9963 27.3594 20.9333 27.3474 20.9207C27.3225 20.8947 27.2338 20.896 27.1838 20.8565C27.1022 20.7918 27.1899 20.6194 26.9996 20.8275C26.9186 20.8136 26.8381 20.8011 26.7581 20.7901C26.7791 20.7349 26.7998 20.6797 26.8201 20.6241C26.7536 20.643 26.688 20.6629 26.6225 20.6833C26.9284 20.4097 26.5826 20.4228 26.4875 20.6516C26.4524 20.5079 26.4139 20.3653 26.3701 20.2238C26.6698 19.8676 26.1837 20.0166 26.063 20.2422C26.0526 20.2344 26.0422 20.2266 26.0318 20.219C26.0073 20.0525 25.866 20.0809 25.7915 19.9439C25.7134 19.8064 25.7444 19.7737 25.8011 19.5632C25.7648 19.5587 25.7287 19.555 25.6928 19.5519C25.3082 20.0223 25.7119 19.0861 25.2695 19.4154C25.2777 19.1639 25.1387 19.1301 25.0009 19.1688C24.9231 19.1868 24.8417 19.2201 24.7744 19.2468C24.751 19.256 24.7388 19.3262 24.7068 19.3431C24.6303 19.3836 24.4695 19.2654 24.4404 19.4937C24.3899 19.4185 24.3413 19.344 24.2895 19.2693C24.2345 19.3036 24.1798 19.3382 24.1248 19.373C24.1155 19.4442 24.1062 19.5153 24.0968 19.5865C24.0325 19.3308 23.8649 19.4051 23.7961 19.3387C23.7823 19.3253 23.7901 19.2265 23.7454 19.1945C23.6925 19.1565 23.587 19.1755 23.5232 19.1388C23.4878 19.2457 23.453 19.3528 23.4187 19.46C23.2986 19.5098 23.28 19.2185 23.2115 19.1914C23.1996 19.1861 22.9717 19.1945 22.9595 19.2007C22.8573 19.2461 22.8769 19.4911 22.5979 19.4336C22.5478 19.4235 22.5082 19.338 22.4624 19.3347C22.3804 19.3278 22.1449 19.5272 22.135 19.7072C22.0327 19.486 21.7832 19.5929 21.7048 19.5355C21.6808 19.5176 21.6638 19.3758 21.5904 19.3521C21.5306 19.3326 21.3969 19.4619 21.3244 19.4522C21.2464 19.4411 21.2026 19.3265 21.1671 19.323C21.1335 19.3198 21.118 19.4198 21.0744 19.4261C20.939 19.4438 20.7877 19.3135 20.6777 19.333C20.5189 19.3608 20.4469 19.6722 20.3586 19.8268C20.3237 19.8167 20.2778 19.7654 20.2454 19.7737C20.1271 19.8036 20.0042 19.8339 19.8788 19.8656C19.5532 19.9503 19.2147 20.0284 18.9033 20.0999C18.6988 20.1447 18.0681 19.9826 18.4437 20.5298C18.4212 20.6596 17.8447 20.6244 17.7531 20.6649C17.662 20.7026 17.6415 20.841 17.5738 20.8756C17.3695 20.9803 17.1849 20.9794 16.9894 21.2011C16.9392 21.2587 16.9407 21.4159 16.904 21.435C16.8595 21.4576 16.7461 21.3693 16.6852 21.3953C16.54 21.4576 16.3185 21.6482 16.1837 21.7117C16.1588 21.723 16.0857 21.6312 16.0326 21.623C15.8253 21.5907 15.6908 21.704 15.9353 21.988C15.6553 21.929 15.6298 22.1933 15.5041 22.3118C15.4787 22.3356 15.4507 22.3605 15.4209 22.3865C15.0925 22.6699 14.5635 23.046 14.4266 23.362C14.3311 23.5819 14.4482 23.6997 14.1243 23.8071C14.0531 23.8308 13.9739 23.8472 13.8887 23.8777C13.6908 23.9467 13.3402 23.8666 13.5218 24.222C13.3127 24.3098 13.2715 24.4686 12.9291 24.3924C12.9795 24.4526 13.0305 24.5121 13.0822 24.5708C13.07 24.5905 13.0579 24.6103 13.0461 24.6301C12.9826 24.5935 12.919 24.5571 12.8551 24.5211C12.7355 24.6547 12.8877 24.9843 12.8349 25.0857C12.8158 25.1216 12.7882 25.1666 12.7567 25.2171C12.5844 25.5223 12.3016 25.966 12.1485 26.1393C12.0463 26.2547 12.1895 26.3181 11.8601 26.2788C11.8691 26.3173 11.8784 26.3552 11.8875 26.3936C11.9459 26.4378 12.0044 26.4817 12.0629 26.5255C12.0002 26.6976 11.8231 26.8638 11.7672 27.0283C11.6631 27.3303 11.7112 27.8271 11.5169 28.0838C11.4673 28.1484 11.3042 28.2071 11.2896 28.2803C11.2686 28.3864 11.4984 28.4611 11.4792 28.5876C11.4558 28.739 11.2902 28.9555 11.2054 29.1446C11.1662 29.2485 11.1393 29.3442 11.1422 29.4185C11.1449 29.4903 11.2329 29.528 11.2402 29.5774C11.2723 29.7846 11.2592 29.9539 11.3944 30.1449C11.1613 30.341 10.865 30.3239 10.565 30.3911C10.3417 30.4551 9.80638 30.5585 9.64207 30.762C9.58954 30.8424 9.48629 30.7556 9.40294 30.7372C9.31703 30.7119 9.23176 30.6944 9.15957 30.739C9.07194 30.4439 9.08599 30.4076 9.12877 30.2926C9.17435 30.1959 9.26326 30.1088 9.37372 29.9995C9.37458 29.6747 9.38265 29.3589 9.3937 29.042C9.39758 28.9407 9.40433 28.8398 9.41327 28.7408C9.50108 28.7087 9.5892 28.6775 9.67739 28.6489C9.67757 28.6489 9.67775 28.6489 9.67793 28.6489C9.79556 28.4967 9.59457 28.3955 9.56189 28.2966C9.238 27.3143 10.1465 25.8571 10.5357 25.0844C10.5982 24.9545 10.6923 24.5725 10.8129 24.3674C10.8582 24.2861 10.9067 24.2281 10.953 24.209C11.0026 24.1887 11.1229 24.2371 11.1464 24.2035C11.2452 23.8438 11.3862 23.4977 11.5467 23.1702C12.154 22.7263 12.5397 22.1367 13.0238 21.6618C13.3562 21.3372 13.6882 21.0267 14.0171 20.7215C15.0703 19.7507 16.3048 19.0308 17.5648 18.5343C17.8916 18.4048 18.2732 18.1558 18.6153 18.1004C18.7582 18.077 18.8815 18.2535 19.0061 18.0472C19.026 18.0995 19.046 18.1517 19.0659 18.204C19.1413 18.137 19.192 18.0578 19.2542 17.9893C19.3045 17.9377 19.3616 17.8921 19.4393 17.8625C19.5943 17.8008 20.0174 17.6816 20.1648 17.6735C20.2411 17.6676 20.2357 17.7757 20.3036 17.7608C20.4189 17.7342 20.6448 17.5453 20.8103 17.5207C20.9598 17.4971 21.2246 17.5857 21.3353 17.5575C21.7351 17.4539 22.1826 17.2554 22.6224 17.3085C22.744 17.3231 22.8944 17.4633 22.9312 17.4609C23.004 17.4557 23.0319 17.3253 23.082 17.3107C23.3389 17.2359 23.7167 17.4231 23.9546 17.4562C24.3921 17.5148 24.8412 17.5703 25.2755 17.6389C25.7028 17.7072 26.1225 17.8432 26.487 18.0312C27.0266 18.2891 27.7694 18.8408 28.0365 19.2375C28.0963 19.3224 27.9777 19.409 28.0381 19.4664C28.1051 19.5305 28.2082 19.4955 28.2449 19.5205C28.3489 19.591 28.4999 19.7012 28.6461 19.8258C28.8672 20.0156 29.074 20.2471 29.1346 20.4175C29.1543 20.4727 29.0902 20.5741 29.1105 20.5996C29.1206 20.6126 29.2044 20.5949 29.2426 20.6321C29.5771 20.9601 29.7265 21.2686 29.9313 21.6615C30.2316 22.236 30.615 22.8582 30.8902 23.4382C30.8965 23.449 30.9096 23.484 30.9152 23.4951C30.9844 23.6654 31.0534 23.8444 31.1105 24.0236C31.164 24.1912 31.0084 24.393 31.0201 24.4144C31.0463 24.4632 31.1979 24.4351 31.2764 24.5218C31.5362 24.8112 31.5926 25.3324 31.8061 25.6249C31.9113 25.7692 32.1838 25.9105 32.2928 26.05C32.3797 26.1612 32.4451 26.4884 32.5463 26.5091C32.5968 26.5199 32.711 26.4872 32.7703 26.4934C32.7747 26.5011 32.7838 26.5261 32.7879 26.5339C32.8009 26.5363 32.8113 26.5405 32.818 26.5473ZM28.6104 23.359C28.8523 23.2603 28.5482 23.1441 28.4669 23.2898C28.4485 23.3222 28.5476 23.3841 28.6104 23.359ZM19.5589 19.5129C19.585 19.5825 19.6111 19.652 19.6371 19.7215C19.6584 19.6817 19.6797 19.6419 19.7013 19.6021C19.6694 19.5657 19.6375 19.5294 19.6056 19.4931C19.59 19.4997 19.5745 19.5063 19.5589 19.5129Z" fill="#0059FF"/>
<path d="M4.5891 14.9472C4.5688 14.9469 4.64979 14.8914 4.64939 14.8792C4.64867 14.8276 4.70112 14.7817 4.71657 14.7271C4.73958 14.6462 4.54269 14.5371 5.14847 14.2373C5.14848 14.2373 5.1485 14.2373 5.14851 14.2373C5.15445 14.2344 5.16047 14.2314 5.16656 14.2284C5.28225 14.1719 5.41514 14.1236 5.54664 14.061C5.6782 13.9984 6.52017 13.5796 6.57714 13.5755C6.65348 13.5726 6.47085 13.7469 6.48802 13.7574C6.49973 13.7644 6.58253 13.7389 6.60262 13.7452C6.66732 13.7652 6.62257 13.8155 6.84914 13.7493C6.74731 13.8193 6.64551 13.8893 6.54376 13.9593C6.60438 13.9536 6.47542 14.0564 6.48943 14.0644C6.50095 14.071 6.59027 14.0333 6.59947 14.0415C6.61027 14.0505 6.52588 14.1151 6.55063 14.1292C6.59069 14.1523 6.81898 14.0443 6.85795 14.0503C6.89823 14.0564 6.79286 14.1519 6.88585 14.1388C6.91234 14.1296 6.93881 14.1204 6.96529 14.1112C7.02001 14.0802 7.07474 14.0493 7.12947 14.0184C7.16245 14.0187 7.05074 14.083 7.05503 14.0965C7.06 14.1124 7.17252 14.0645 7.1771 14.0747C7.18074 14.0831 7.09925 14.1386 7.1101 14.1464C7.12546 14.1578 7.2495 14.0901 7.27723 14.0863C7.28805 14.0849 7.38841 14.1097 7.39121 14.1127C7.40952 14.1361 7.23874 14.2269 7.23438 14.2553C7.22306 14.3341 7.39226 14.321 7.47228 14.3469C7.50804 14.3584 7.51075 14.3879 7.49567 14.4259C7.03734 14.6173 6.73935 14.8788 7.40951 14.4891C7.32563 14.5665 7.52058 14.4881 7.50219 14.5292C7.49017 14.5559 7.40101 14.6171 7.41557 14.6387C7.44202 14.6768 7.73526 14.5784 7.25382 14.8481C7.365 14.8503 7.21049 14.986 7.6495 14.7742C7.68226 14.7725 7.44288 14.9401 7.41563 14.9727C7.38987 15.0033 7.3281 15.1653 7.33062 15.1853C7.33303 15.2052 7.34138 15.2374 7.38652 15.2311C7.4425 15.2234 7.89295 14.9946 7.3905 15.3068C7.45188 15.3197 7.4441 15.3407 7.40197 15.4068C7.39436 15.4187 7.31778 15.4614 7.31963 15.465C7.32358 15.4722 7.38719 15.4535 7.40124 15.4627C7.42427 15.4779 7.2692 15.5787 7.51493 15.4408C7.56403 15.4321 7.61305 15.4232 7.66208 15.4143C7.61714 15.4454 7.5722 15.4766 7.52728 15.5077C7.58332 15.4867 7.63935 15.4655 7.69534 15.4443C7.33349 15.6325 7.57317 15.5688 7.7685 15.4386C7.70938 15.506 7.65079 15.5743 7.59201 15.6421C7.18486 15.8635 7.57843 15.7277 7.79539 15.5993C7.79678 15.6026 7.79818 15.6059 7.79958 15.6091C7.70711 15.6961 7.80873 15.6714 7.75515 15.7448C7.70153 15.8181 7.66048 15.8372 7.48045 15.9518C7.49543 15.9536 7.51048 15.9554 7.52552 15.9572C8.05715 15.7102 7.17259 16.2014 7.60223 16.0501C7.29578 16.2541 7.49511 16.2141 7.61236 16.1946C7.62599 16.1923 7.68782 16.1569 7.71008 16.1515C7.76374 16.1387 7.70463 16.2196 7.90299 16.1033C7.85232 16.1486 7.80169 16.1939 7.75108 16.2393C7.793 16.2282 7.8349 16.2171 7.87676 16.2059C7.93878 16.1698 8.00081 16.1337 8.06283 16.0976C7.86283 16.2403 7.962 16.2237 7.92054 16.2687C7.91209 16.2777 7.82701 16.3284 7.80928 16.3515C7.78813 16.3788 7.8255 16.3846 7.80654 16.4134C7.9041 16.3629 8.00167 16.3125 8.09917 16.2619C8.16419 16.2551 7.91973 16.4104 7.90854 16.4357C7.90656 16.44 7.95144 16.475 7.95819 16.4742C8.01223 16.4692 8.22046 16.3369 8.20938 16.4213C8.20726 16.4364 8.13899 16.4885 8.14156 16.4994C8.14238 16.503 8.14986 16.5042 8.1625 16.5031C8.21773 16.4987 8.37028 16.4512 8.49652 16.3789C8.31666 16.5141 8.42685 16.5192 8.38091 16.5681C8.36679 16.5831 8.24574 16.6584 8.22867 16.6887C8.21477 16.7134 8.33024 16.6833 8.32313 16.7082C8.31506 16.7348 8.21653 16.8032 8.21366 16.8147C8.21106 16.8255 8.29711 16.7808 8.30217 16.7901C8.31675 16.8201 8.20036 16.9277 8.21184 16.9516C8.22838 16.9867 8.48875 16.8631 8.61326 16.8224C8.60169 16.8389 8.55374 16.8781 8.55763 16.8853C8.60412 16.9763 8.62126 17.1015 8.6255 17.2216C8.62754 17.277 8.36617 17.5886 8.89343 17.2099C8.99783 17.1623 8.84432 17.4061 8.85392 17.428C8.86337 17.4497 8.97072 17.4015 8.98223 17.4161C9.01663 17.4596 8.96769 17.5379 9.0896 17.5395C9.12132 17.5397 9.24693 17.4802 9.25131 17.4898C9.25629 17.5016 9.1521 17.5857 9.15388 17.6039C9.1591 17.6469 9.2355 17.6839 9.23672 17.728C9.23671 17.7362 9.13999 17.802 9.1147 17.8302C9.01574 17.94 9.04954 17.9694 9.35871 17.7598C9.20768 17.9166 9.39492 17.85 9.43007 17.8827C9.50359 17.9519 9.52704 18.1513 9.70689 18.1435C9.75431 18.1414 9.80667 18.1246 9.8458 18.1166C9.84734 18.1248 9.86602 18.1441 9.86732 18.1524C9.92167 18.1419 9.94986 18.1473 9.89969 18.2285C9.88065 18.2596 9.85144 18.2954 9.82913 18.3332C9.77632 18.4216 9.5299 18.6135 9.87201 18.4604C9.81565 18.5562 9.89642 18.559 9.64038 18.7534C9.70904 18.7194 9.77771 18.6854 9.84637 18.6514C9.85133 18.6562 9.85628 18.661 9.86121 18.6658C9.799 18.7039 9.73679 18.7421 9.67457 18.7802C9.68143 18.8315 9.97129 18.7344 9.98988 18.7713C10.0205 18.8315 10.0065 19.0423 9.95257 19.1469C9.92398 19.2024 10.0608 19.127 9.79075 19.3019C9.81404 19.2976 9.83731 19.2934 9.86056 19.2892C9.92416 19.2588 9.98775 19.2284 10.0514 19.198C10.0752 19.2345 10.0062 19.3346 10.0272 19.3698C10.0667 19.4355 10.292 19.442 10.2185 19.5717C10.1997 19.6039 10.0847 19.6955 10.0953 19.7114C10.1105 19.7342 10.3245 19.6241 10.3456 19.6531C10.3816 19.7034 10.1905 19.937 10.2368 19.9782C10.2502 19.9901 10.3335 19.956 10.3475 19.9619C10.4081 19.9882 10.4209 20.028 10.569 20.0132C10.3915 20.1722 10.1238 20.3029 9.86237 20.4517C9.66404 20.5593 9.21657 20.8517 9.00184 20.8479C8.85963 20.866 8.72827 21.0253 8.57352 21.0508C8.50087 21.1902 8.5821 21.0432 8.76149 20.9224C8.71742 20.8564 8.66921 20.7851 8.62096 20.7144C8.69085 20.6676 8.76044 20.6201 8.83032 20.5732C8.83048 20.5732 8.83064 20.5731 8.8308 20.573C8.90023 20.4983 8.70323 20.5879 8.65218 20.5967C8.15982 20.6738 8.31545 20.2008 8.26628 20.0077C8.25519 19.9654 8.09136 19.9061 8.19539 19.8139C8.22251 19.7899 8.33365 19.7239 8.33461 19.7143C8.23331 19.692 8.13194 19.6698 8.03055 19.6476C8.11756 19.4575 7.97391 19.3956 7.86742 19.3142L7.88014 19.3354C7.86117 19.3222 7.84333 19.3084 7.82814 19.2929C7.55789 19.0189 7.25796 18.7526 7.06874 18.4026C7.03249 18.3351 6.89821 18.3052 6.91009 18.2078C6.91502 18.1674 7.08287 18.0447 6.9303 18.0929C6.97726 18.0626 7.02423 18.0322 7.0712 18.0019C6.99498 18.0078 6.87503 18.0562 6.84244 18.0287C6.81498 18.0053 6.75979 17.9329 6.76196 17.896C6.76269 17.877 6.85445 17.8267 6.84625 17.8145C6.83155 17.7941 6.68065 17.8249 6.66233 17.7952C6.64586 17.7686 6.72047 17.6601 6.69315 17.6489C6.61239 17.6143 6.4621 17.6162 6.40658 17.559C6.39463 17.5468 6.38717 17.5318 6.38592 17.5131C6.38419 17.4839 6.48358 17.3861 6.47629 17.3812C6.46153 17.3718 6.34604 17.435 6.32607 17.4345C6.2249 17.4317 6.31705 17.2801 6.29605 17.2319C6.22704 17.074 6.08771 16.9466 6.02532 16.7868C5.986 16.6864 5.87925 16.5424 5.91867 16.4087C5.92714 16.3798 6.05615 16.3152 6.04757 16.2996C6.03815 16.2826 5.94768 16.3201 5.93636 16.3159C5.85727 16.2865 5.7036 16.2101 5.76254 16.1097C5.77389 16.0905 5.86928 16.0294 5.86571 16.0237C5.86408 16.0207 5.79256 16.0505 5.78048 16.0447C5.67352 15.9932 5.67987 15.9098 5.65929 15.8149C5.61904 15.6327 5.39537 15.515 5.37757 15.3116C5.37363 15.2673 5.55927 15.1398 5.55469 15.1358C5.54493 15.1267 5.40766 15.1884 5.36292 15.1826C5.2152 15.1622 5.30586 14.9872 5.20199 14.9491C5.1507 14.9301 4.95581 14.9675 4.90014 14.9509C4.85575 14.9379 4.8891 14.8378 4.80793 14.8628C4.75889 14.8779 4.61187 14.9472 4.5891 14.9472ZM7.31745 14.7216C7.08505 14.8379 7.3025 14.7873 7.41594 14.7034C7.4415 14.6846 7.37778 14.6914 7.31745 14.7216ZM8.24623 17.2444C8.30862 17.2042 8.37102 17.164 8.43341 17.1238C8.40335 17.1341 8.37328 17.1443 8.34319 17.1545C8.30775 17.182 8.27231 17.2094 8.23688 17.2368C8.24 17.2394 8.24312 17.2419 8.24623 17.2444Z" fill="#0059FF"/>
<path d="M13.6829 10.4652C13.6643 10.46 13.76 10.4398 13.7642 10.4309C13.7829 10.3935 13.8486 10.3731 13.8833 10.3375C13.9349 10.2846 13.7933 10.1572 14.4657 10.0886C14.4657 10.0886 14.4657 10.0886 14.4657 10.0886C14.4723 10.0879 14.479 10.0872 14.4857 10.0866C14.6139 10.074 14.7549 10.0716 14.8999 10.0586C15.045 10.0455 15.9804 9.94868 16.0347 9.95986C16.1065 9.97682 15.8725 10.0587 15.8845 10.0707C15.8927 10.0787 15.9789 10.0807 15.9951 10.0903C16.0475 10.1212 15.9873 10.1467 16.2217 10.1551C16.1014 10.1808 15.981 10.2065 15.8607 10.2323C15.9189 10.2432 15.7611 10.2862 15.771 10.2955C15.7792 10.3033 15.876 10.2981 15.8814 10.3064C15.888 10.3158 15.7857 10.3418 15.8033 10.3583C15.8316 10.3853 16.0832 10.3639 16.1169 10.3782C16.1519 10.3929 16.0185 10.4361 16.1093 10.4502C16.1373 10.4502 16.1652 10.4502 16.1931 10.4501C16.2553 10.4413 16.3176 10.4326 16.3798 10.4238C16.4101 10.4325 16.2827 10.4512 16.2815 10.4623C16.2801 10.4753 16.4021 10.4688 16.4025 10.4774C16.4027 10.4845 16.3064 10.5046 16.3135 10.5131C16.3233 10.5255 16.4635 10.5075 16.4905 10.5118C16.501 10.5136 16.5842 10.5578 16.5857 10.5608C16.5937 10.583 16.4016 10.6057 16.3868 10.6256C16.3463 10.6805 16.5073 10.7156 16.571 10.7557C16.5996 10.7737 16.5908 10.7966 16.5623 10.8206C16.0667 10.8414 15.6916 10.9553 16.4586 10.8446C16.3516 10.8797 16.5612 10.8735 16.5284 10.8992C16.507 10.9159 16.4014 10.9372 16.4064 10.9572C16.4159 10.9927 16.7236 10.9989 16.1763 11.0689C16.2776 11.1008 16.0825 11.1587 16.5684 11.1218C16.5992 11.1296 16.3138 11.1887 16.2759 11.2052C16.2403 11.2207 16.1196 11.3237 16.1139 11.3391C16.1082 11.3544 16.103 11.3808 16.1468 11.3885C16.201 11.3983 16.7044 11.3558 16.1201 11.4457C16.171 11.4727 16.1554 11.4857 16.0903 11.5228C16.0785 11.5295 15.9914 11.5392 15.9917 11.5424C15.9923 11.5489 16.0579 11.5531 16.067 11.5639C16.0819 11.5816 15.8995 11.6116 16.1795 11.5802C16.2278 11.5878 16.2761 11.5956 16.3244 11.6033C16.2708 11.6133 16.2172 11.6234 16.1636 11.6334C16.2232 11.634 16.2828 11.6346 16.3425 11.6353C15.9361 11.6694 16.1803 11.6919 16.4115 11.6526C16.3301 11.6858 16.2487 11.7188 16.1673 11.7518C15.7059 11.7954 16.1195 11.8108 16.3697 11.7807C16.3696 11.7836 16.3696 11.7864 16.3695 11.7893C16.2494 11.8262 16.3519 11.8387 16.2726 11.8769C16.1934 11.9151 16.1482 11.9167 15.937 11.9468C15.9498 11.9526 15.9626 11.9584 15.9755 11.9642C16.5607 11.9441 15.5531 12.036 16.0054 12.0557C15.6417 12.1111 15.8385 12.1419 15.9525 12.1646C15.9657 12.1672 16.0367 12.1606 16.059 12.1637C16.1129 12.1713 16.0246 12.2118 16.2534 12.1895C16.1882 12.2068 16.123 12.224 16.0578 12.2412C16.1002 12.2464 16.1427 12.2517 16.1852 12.2569C16.2567 12.2504 16.3281 12.2438 16.3996 12.2373C16.1577 12.2778 16.2539 12.2981 16.1969 12.3176C16.1854 12.3214 16.0868 12.3309 16.0607 12.342C16.0296 12.3551 16.0605 12.3716 16.0308 12.3865C16.1405 12.3816 16.2501 12.3768 16.3598 12.372C16.421 12.3889 16.1333 12.4217 16.112 12.4364C16.1083 12.4391 16.1326 12.4795 16.139 12.4813C16.1894 12.4957 16.4347 12.4697 16.3866 12.5285C16.3779 12.5389 16.2935 12.5538 16.2908 12.5627C16.2859 12.5786 16.4825 12.6096 16.6611 12.5991C16.4395 12.6358 16.5347 12.6789 16.4713 12.6988C16.4519 12.7048 16.3098 12.7168 16.2806 12.7328C16.2568 12.7457 16.3728 12.7657 16.3548 12.7813C16.3505 12.785 16.3414 12.7885 16.3297 12.7918C16.2883 12.8038 16.2143 12.8137 16.2081 12.8194C16.2008 12.8262 16.2976 12.8249 16.2977 12.8336C16.2963 12.8608 16.1428 12.8963 16.1415 12.9175C16.1391 12.9483 16.4266 12.9554 16.5552 12.9727C16.5371 12.9804 16.4762 12.9908 16.4761 12.9976C16.4728 13.0812 16.4262 13.1781 16.37 13.2646C16.3443 13.3049 15.9619 13.4225 16.6077 13.3595C16.7218 13.3664 16.4664 13.4787 16.4634 13.4972C16.4605 13.5159 16.5774 13.5242 16.5799 13.5386C16.5873 13.5821 16.5053 13.6175 16.6091 13.6655C16.6363 13.678 16.7746 13.6858 16.7734 13.6941C16.7716 13.704 16.6391 13.7213 16.6313 13.7344C16.6137 13.7658 16.6602 13.8199 16.6386 13.8503C16.6343 13.8558 16.5176 13.8632 16.4814 13.8725C16.3401 13.9086 16.354 13.9409 16.7268 13.918C16.5167 13.9657 16.7115 13.9917 16.7249 14.0265C16.7523 14.0998 16.6708 14.2384 16.8301 14.2967C16.9306 14.3339 17.0979 14.3263 16.9558 14.392C16.9242 14.4066 16.8815 14.4215 16.8439 14.4389C16.7554 14.4804 16.4474 14.5254 16.821 14.5413C16.7259 14.5867 16.7955 14.6179 16.4779 14.6595C16.5545 14.6606 16.631 14.6617 16.7076 14.6627C16.7096 14.6677 16.7117 14.6728 16.7138 14.678C16.6409 14.682 16.5681 14.686 16.4952 14.6901C16.4768 14.7274 16.7779 14.7645 16.7767 14.7954C16.7751 14.8481 16.6627 14.9853 16.5657 15.0375C16.5142 15.0646 16.6704 15.0623 16.3498 15.0862C16.3723 15.0914 16.3948 15.0965 16.4173 15.1017C16.4877 15.1033 16.5581 15.1048 16.6284 15.1065C16.6321 15.1394 16.5307 15.1805 16.5262 15.2113C16.5261 15.2123 16.526 15.2134 16.5261 15.2144C16.5299 15.272 16.7257 15.3546 16.6001 15.4161C16.5685 15.4312 16.424 15.4538 16.426 15.4677C16.4288 15.4891 16.6694 15.4874 16.6746 15.5144C16.683 15.5598 16.4055 15.6528 16.4278 15.6964C16.4342 15.7094 16.5238 15.714 16.5336 15.723C16.5753 15.7609 16.5686 15.7931 16.7073 15.8318C16.4771 15.8774 16.1794 15.8748 15.8791 15.8883C15.6525 15.8988 15.1272 15.9254 14.9287 15.9293C14.7892 15.932 14.6098 15.922 14.4562 15.9258C14.3336 15.8832 14.4685 15.8716 14.6841 15.835C14.6747 15.7737 14.6647 15.7075 14.6546 15.6414C14.7383 15.6333 14.8219 15.6253 14.9055 15.6174C14.9057 15.6174 14.9059 15.6174 14.9061 15.6174C15.0022 15.589 14.7862 15.5838 14.7368 15.5707C14.4668 15.5012 14.469 15.3833 14.5294 15.2658C14.5746 15.1787 14.6524 15.0922 14.6731 15.0287C14.6834 14.9961 14.5675 14.8979 14.7028 14.8714C14.738 14.8645 14.8671 14.859 14.8726 14.8529C14.7941 14.8022 14.7155 14.7507 14.6369 14.7005C14.8339 14.5841 14.664 14.4763 14.6288 14.3678C14.5333 14.073 14.4178 13.7855 14.432 13.4944C14.4349 13.4381 14.334 13.3731 14.3929 13.3148C14.4173 13.2905 14.6238 13.2676 14.4675 13.2476C14.5233 13.2436 14.579 13.2397 14.6348 13.2358C14.5658 13.2139 14.4377 13.2055 14.4229 13.1772C14.4106 13.1533 14.3978 13.0888 14.4176 13.0656C14.4275 13.0536 14.532 13.0505 14.5307 13.04C14.5278 13.022 14.3809 12.994 14.3791 12.9693C14.3785 12.9604 14.3967 12.9477 14.4177 12.9345C14.4493 12.9146 14.4872 12.8938 14.476 12.8843C14.4095 12.8268 14.2264 12.7737 14.2685 12.704C14.2805 12.6847 14.4135 12.6499 14.4093 12.6444C14.4005 12.6339 14.2691 12.6417 14.2516 12.6356C14.1632 12.605 14.3138 12.5321 14.3166 12.494C14.3259 12.37 14.2564 12.2457 14.2684 12.1209C14.2759 12.0421 14.2397 11.9155 14.3307 11.8333C14.3504 11.8156 14.4942 11.8049 14.4928 11.7918C14.4913 11.7773 14.3936 11.7795 14.3851 11.7736C14.3254 11.7326 14.2165 11.6395 14.3108 11.5846C14.3289 11.5741 14.4406 11.556 14.4396 11.551C14.4393 11.5484 14.3621 11.5508 14.3534 11.5436C14.2764 11.48 14.3155 11.4234 14.3343 11.3506C14.3696 11.2114 14.2101 11.0715 14.2719 10.9215C14.2853 10.8886 14.5051 10.8437 14.5024 10.8395C14.4969 10.8305 14.3469 10.8406 14.3079 10.8253C14.1796 10.7741 14.3298 10.6707 14.2483 10.6173C14.2082 10.5911 14.0141 10.5698 13.9689 10.5442C13.9329 10.5241 14.0013 10.4598 13.9169 10.4579C13.8659 10.4567 13.704 10.4707 13.6829 10.4652ZM16.284 10.9924C16.0252 11.0162 16.2447 11.0371 16.3816 11.0055C16.4124 10.9984 16.3512 10.9862 16.284 10.9924ZM16.0294 13.138C16.1035 13.1328 16.1775 13.1276 16.2515 13.1224C16.2203 13.1184 16.1891 13.1145 16.1579 13.1106C16.1136 13.1168 16.0693 13.123 16.025 13.1293C16.0265 13.1322 16.0279 13.1351 16.0294 13.138Z" fill="#0059FF"/>
<path d="M22.6619 8.30306C22.6438 8.29663 22.7409 8.28553 22.7459 8.27751C22.7679 8.24387 22.8351 8.23036 22.8728 8.19961C22.9289 8.15418 22.7988 8.02391 23.4745 8.01195C23.4745 8.01195 23.4745 8.01195 23.4745 8.01195C23.4811 8.01183 23.4878 8.01173 23.4946 8.01164C23.6234 8.00984 23.7641 8.0187 23.9097 8.01783C24.0554 8.01696 24.9956 7.99923 25.0488 8.01449C25.1188 8.03675 24.8787 8.09705 24.8896 8.10931C24.8971 8.11771 24.9828 8.12675 24.9981 8.13739C25.0476 8.17163 24.9854 8.19119 25.2182 8.21908C25.096 8.23381 24.9739 8.24852 24.8517 8.26319C24.9087 8.2788 24.7477 8.30646 24.7568 8.31633C24.7642 8.32444 24.8611 8.32769 24.8657 8.33619C24.8715 8.3457 24.7673 8.36214 24.7833 8.37946C24.809 8.40783 25.0615 8.40895 25.0938 8.42571C25.1273 8.44309 24.9905 8.47302 25.0797 8.49442C25.1075 8.49684 25.1353 8.49927 25.1632 8.5017C25.2259 8.49868 25.2887 8.49567 25.3515 8.49265C25.3809 8.50368 25.2522 8.5106 25.2501 8.52117C25.2475 8.53358 25.3696 8.53813 25.3691 8.54652C25.3687 8.55341 25.271 8.56422 25.2772 8.57303C25.2859 8.58588 25.4271 8.58091 25.4536 8.58749C25.4639 8.59014 25.5427 8.64046 25.5438 8.64333C25.5497 8.66531 25.3564 8.67009 25.3398 8.68789C25.2944 8.73723 25.4513 8.78543 25.511 8.82965C25.5377 8.84943 25.5268 8.87057 25.4961 8.89105C25.0008 8.86634 24.6167 8.94177 25.3906 8.90478C25.2808 8.92875 25.4901 8.94176 25.455 8.96348C25.4321 8.97753 25.3249 8.98848 25.328 9.008C25.3341 9.0426 25.6398 9.07639 25.0883 9.09382C25.1861 9.13345 24.9865 9.1713 25.4736 9.17969C25.5035 9.18983 25.2138 9.22043 25.1745 9.23266C25.1376 9.24405 25.0077 9.33171 25.0005 9.34565C24.9934 9.35973 24.9857 9.38425 25.0286 9.39546C25.0816 9.40958 25.5868 9.41363 24.9966 9.4473C25.0448 9.47747 25.028 9.48862 24.9598 9.51791C24.9474 9.52321 24.8597 9.52482 24.8597 9.52783C24.8598 9.53403 24.9247 9.54381 24.9327 9.55476C24.9459 9.57278 24.7615 9.58525 25.0432 9.57997C25.0906 9.59136 25.138 9.60281 25.1854 9.61438C25.131 9.61924 25.0767 9.62409 25.0224 9.62894C25.0817 9.63471 25.1411 9.64049 25.2004 9.64626C24.7926 9.64333 25.0337 9.68587 25.2675 9.66854C25.1834 9.69281 25.0993 9.71701 25.0152 9.74112C24.5518 9.74297 24.9623 9.79267 25.2142 9.78546C25.2139 9.78814 25.2135 9.79082 25.2132 9.7935C25.0903 9.81828 25.1913 9.83867 25.1089 9.86796C25.0265 9.89722 24.9814 9.89502 24.7683 9.90587C24.7806 9.9124 24.7929 9.91892 24.8052 9.92544C25.3898 9.95425 24.3781 9.95888 24.8269 10.0144C24.4599 10.0374 24.6533 10.0824 24.7649 10.1126C24.7779 10.1161 24.8492 10.1155 24.8712 10.1202C24.9242 10.1316 24.8329 10.163 25.0628 10.1597C24.9964 10.1708 24.9299 10.182 24.8635 10.1931C24.9054 10.2013 24.9473 10.2095 24.9892 10.2176C25.0609 10.2169 25.1327 10.2162 25.2045 10.2154C24.96 10.2351 25.0543 10.261 24.9959 10.2751C24.9841 10.2779 24.8851 10.2794 24.8582 10.288C24.8262 10.298 24.8557 10.3159 24.8249 10.3277C24.9346 10.3312 25.0443 10.3347 25.154 10.3382C25.2137 10.3583 24.9243 10.3682 24.9019 10.3804C24.898 10.3827 24.9191 10.4221 24.9253 10.4241C24.9745 10.4411 25.2211 10.4342 25.1687 10.4856C25.1592 10.4948 25.0739 10.5029 25.0706 10.5111C25.0645 10.5256 25.2584 10.5672 25.4373 10.5691C25.2136 10.5882 25.3055 10.635 25.241 10.6492C25.2211 10.6536 25.0785 10.6557 25.0483 10.6688C25.0236 10.6794 25.138 10.7051 25.119 10.7183C25.0983 10.7324 24.9786 10.7382 24.9702 10.7445C24.9624 10.7506 25.0591 10.7553 25.0586 10.7634C25.0554 10.7888 24.9 10.8129 24.8973 10.8327C24.893 10.8616 25.1794 10.8842 25.3067 10.9076C25.2882 10.9138 25.2268 10.9202 25.2263 10.9265C25.2179 11.0042 25.1658 11.0923 25.105 11.17C25.0771 11.206 24.6891 11.2989 25.3373 11.2705C25.4509 11.2822 25.1901 11.3751 25.1863 11.3926C25.1825 11.41 25.2988 11.4229 25.3006 11.4365C25.306 11.4767 25.2224 11.5075 25.3239 11.5566C25.3504 11.5693 25.4882 11.5823 25.4867 11.5898C25.4845 11.5989 25.3513 11.6097 25.3429 11.6218C25.324 11.6508 25.3681 11.7036 25.3452 11.7305C25.3407 11.7354 25.2238 11.738 25.1873 11.7454C25.0446 11.7743 25.0571 11.8053 25.4305 11.7978C25.2187 11.8346 25.4123 11.8658 25.4243 11.8994C25.4488 11.9692 25.3623 12.0955 25.5195 12.1568C25.6186 12.1949 25.7861 12.1916 25.6418 12.2499C25.6098 12.2627 25.5666 12.2754 25.5285 12.2906C25.4386 12.3257 25.1294 12.3609 25.5023 12.3862C25.4058 12.4254 25.4745 12.4575 25.1558 12.488C25.2323 12.4911 25.3087 12.4942 25.3852 12.4973C25.3871 12.5021 25.3891 12.5069 25.391 12.5117C25.318 12.5135 25.2451 12.5152 25.1722 12.517C25.1527 12.5515 25.4526 12.5954 25.4506 12.6237C25.4492 12.6446 25.4286 12.6788 25.398 12.7135C25.3545 12.7658 25.2908 12.8197 25.2332 12.8476C25.181 12.8725 25.3372 12.8724 25.0162 12.8885C25.0385 12.894 25.0609 12.8996 25.0832 12.9051C25.1536 12.9083 25.2239 12.9115 25.2942 12.9147C25.2971 12.9456 25.1881 12.9852 25.1893 13.0144C25.1918 13.0703 25.3856 13.1519 25.2587 13.2075C25.2267 13.222 25.0818 13.2397 25.0835 13.2528C25.0858 13.2733 25.3265 13.277 25.331 13.3017C25.3385 13.3448 25.0593 13.427 25.0808 13.4678C25.0871 13.4798 25.1766 13.4849 25.1862 13.4936C25.2274 13.5285 25.2202 13.5578 25.3587 13.5906C25.1282 13.6284 24.8306 13.6255 24.5303 13.6381C24.3036 13.6473 23.7784 13.6753 23.5799 13.6773C23.4404 13.6794 23.261 13.6717 23.1075 13.6747C22.9848 13.6371 23.1196 13.6158 23.3355 13.5802C23.3267 13.5158 23.3178 13.4504 23.3089 13.3853C23.3927 13.3793 23.4765 13.3731 23.5603 13.3669C23.5605 13.3669 23.5606 13.3669 23.5608 13.3669C23.6574 13.3404 23.4416 13.3322 23.3926 13.3184C22.923 13.1905 23.2891 12.9367 23.3415 12.7936C23.3466 12.7798 23.3253 12.7515 23.3142 12.7216C23.3011 12.6888 23.3019 12.6541 23.3753 12.6422C23.4107 12.6365 23.5399 12.6342 23.5455 12.6286C23.4685 12.5785 23.3914 12.5259 23.3144 12.4751C23.5147 12.3685 23.3484 12.2579 23.317 12.1522C23.2319 11.8635 23.1285 11.5772 23.1575 11.2932C23.1634 11.2382 23.0661 11.1691 23.1281 11.115C23.1538 11.0923 23.3613 11.0813 23.2064 11.0528C23.2623 11.0521 23.3182 11.0514 23.3741 11.0507C23.3065 11.0257 23.1791 11.0102 23.166 10.9815C23.1551 10.9573 23.1463 10.8925 23.1675 10.8713C23.1781 10.8602 23.2826 10.8635 23.282 10.8531C23.2802 10.8355 23.1355 10.7985 23.1353 10.7738C23.1351 10.7512 23.2551 10.7135 23.2375 10.6965C23.1752 10.6353 22.9962 10.57 23.0435 10.5041C23.0568 10.4858 23.1921 10.4612 23.1882 10.4555C23.1803 10.4443 23.0487 10.4423 23.0317 10.4351C22.9459 10.3984 23.1017 10.3381 23.1075 10.3007C23.1267 10.1803 23.068 10.0529 23.0909 9.93235C23.1053 9.85657 23.0808 9.73063 23.1789 9.65935C23.2001 9.64394 23.3443 9.64634 23.3442 9.63359C23.344 9.61941 23.2465 9.61297 23.2386 9.60652C23.1829 9.56205 23.0833 9.46216 23.1823 9.4183C23.2013 9.40992 23.3142 9.40262 23.3137 9.39773C23.3137 9.39525 23.2365 9.39061 23.2286 9.38293C23.158 9.31511 23.2023 9.26416 23.2279 9.1967C23.2762 9.06654 23.1308 8.91959 23.2064 8.78293C23.2229 8.7531 23.446 8.72954 23.4437 8.72546C23.439 8.71644 23.2887 8.71283 23.2513 8.69497C23.1284 8.63561 23.2875 8.55024 23.2112 8.49328C23.1737 8.46506 22.9823 8.42846 22.9397 8.40074C22.9056 8.37857 22.9795 8.32414 22.8956 8.31545C22.8449 8.31018 22.6824 8.31002 22.6619 8.30306ZM25.2028 9.0305C24.943 9.02995 25.1595 9.06962 25.2987 9.05179C25.3301 9.04777 25.2703 9.03065 25.2028 9.0305ZM24.7721 11.0334C24.8463 11.0324 24.9205 11.0315 24.9947 11.0306C24.9638 11.0253 24.9328 11.0199 24.9019 11.0146C24.8573 11.018 24.8127 11.0215 24.7681 11.0249C24.7694 11.0278 24.7708 11.0306 24.7721 11.0334Z" fill="#0059FF"/>
<path d="M37.1775 10.4938C37.173 10.4739 37.2473 10.5382 37.2593 10.5345C37.3105 10.5197 37.3686 10.5586 37.427 10.5586C37.5136 10.5585 37.5812 10.3326 38.0183 10.8483C38.0183 10.8483 38.0183 10.8483 38.0183 10.8483C38.0226 10.8534 38.0269 10.8585 38.0313 10.8637C38.114 10.9624 38.1924 11.0802 38.2849 11.1926C38.3775 11.3052 38.9874 12.0209 39.0054 12.075C39.0265 12.1485 38.8124 12.0144 38.8062 12.0339C38.8023 12.0469 38.8472 12.1211 38.846 12.1423C38.8419 12.2105 38.7818 12.1798 38.9015 12.3835C38.8081 12.3025 38.7146 12.2217 38.6209 12.141C38.6409 12.1988 38.5084 12.1002 38.5037 12.1162C38.4999 12.1292 38.5583 12.2067 38.5522 12.2179C38.5458 12.231 38.4613 12.1661 38.4531 12.1941C38.4391 12.2399 38.5995 12.435 38.602 12.4753C38.6046 12.517 38.4846 12.4395 38.518 12.5281C38.5332 12.5517 38.5482 12.5754 38.5633 12.5991C38.6067 12.6446 38.65 12.6902 38.6933 12.7357C38.7 12.7686 38.6102 12.6761 38.5972 12.6843C38.582 12.6937 38.6547 12.7921 38.6451 12.7997C38.6369 12.806 38.5633 12.7403 38.5575 12.7533C38.5488 12.772 38.644 12.8764 38.6535 12.9031C38.6574 12.9133 38.6511 13.0215 38.6489 13.0248C38.6281 13.0499 38.5001 12.905 38.4701 12.9083C38.3865 12.919 38.4324 13.0849 38.421 13.1719C38.4154 13.2112 38.3856 13.2216 38.3433 13.2168C38.0595 12.8088 37.7345 12.5788 38.2616 13.1474C38.1666 13.0834 38.2836 13.2581 38.2372 13.2509C38.2076 13.2456 38.1284 13.1718 38.1085 13.1922C38.0744 13.2281 38.2272 13.498 37.8637 13.0828C37.8818 13.1944 37.7151 13.0727 38.0102 13.4606C38.0177 13.4931 37.8024 13.2948 37.7649 13.2747C37.7478 13.2657 37.6982 13.2555 37.6483 13.2487C37.5957 13.2403 37.5427 13.2357 37.5323 13.2394C37.5117 13.2469 37.4809 13.262 37.4951 13.3056C37.5128 13.3596 37.822 13.7592 37.4181 13.3269C37.4155 13.3909 37.3928 13.3877 37.3177 13.3606C37.3043 13.3556 37.248 13.2884 37.2447 13.291C37.2381 13.2965 37.2678 13.3559 37.2608 13.3719C37.2493 13.3981 37.1207 13.265 37.3018 13.4809C37.3186 13.5282 37.3354 13.5756 37.3525 13.6226C37.3134 13.5843 37.2744 13.5461 37.2353 13.5078C37.266 13.5593 37.2966 13.6108 37.3272 13.6624C37.0767 13.3404 37.1799 13.567 37.3444 13.7347C37.2652 13.6906 37.1871 13.6456 37.1081 13.6013C36.8177 13.2401 37.0183 13.6058 37.1832 13.7964C37.1801 13.7985 37.177 13.8005 37.1739 13.8026C37.0706 13.728 37.1109 13.8252 37.0276 13.7867C36.9445 13.7478 36.9187 13.7106 36.7743 13.5534C36.7747 13.5688 36.7752 13.5842 36.7757 13.5996C37.1076 14.0831 36.4734 13.2948 36.6922 13.695C36.4385 13.4281 36.5096 13.6192 36.546 13.7333C36.5502 13.7466 36.5953 13.8018 36.604 13.8231C36.6244 13.8747 36.5335 13.8308 36.6803 14.0077C36.6268 13.9655 36.5733 13.9234 36.5197 13.8812C36.5369 13.9212 36.5541 13.9612 36.5712 14.0012C36.6167 14.0567 36.6623 14.1122 36.7078 14.1677C36.5339 13.9939 36.5641 14.0906 36.5126 14.0573C36.5022 14.0505 36.4388 13.9744 36.4127 13.9609C36.3819 13.9447 36.3808 13.9834 36.3486 13.9698C36.4133 14.0586 36.4779 14.1475 36.5425 14.2363C36.5579 14.3006 36.3666 14.0831 36.3392 14.0765C36.3344 14.0754 36.3043 14.1269 36.3059 14.1336C36.3178 14.1871 36.4797 14.3734 36.3911 14.3776C36.3753 14.3783 36.3133 14.3188 36.3022 14.3234C36.2826 14.3315 36.3582 14.5197 36.4679 14.6611C36.3071 14.5035 36.3142 14.616 36.2583 14.5782C36.2412 14.5665 36.1498 14.4571 36.1167 14.445C36.0897 14.4351 36.1332 14.5471 36.1068 14.544C36.0785 14.5404 35.9971 14.4522 35.985 14.4512C35.9736 14.4504 36.029 14.53 36.0199 14.5367C35.9906 14.5564 35.8672 14.4564 35.8438 14.4719C35.8098 14.494 35.9641 14.7378 36.0189 14.8573C36.0006 14.8483 35.9553 14.806 35.9482 14.8111C35.8587 14.873 35.731 14.9098 35.6082 14.9317C35.5515 14.9419 35.2073 14.7223 35.6461 15.2008C35.705 15.2994 35.4404 15.179 35.4193 15.1913C35.3982 15.2037 35.4579 15.3053 35.4442 15.3189C35.403 15.3596 35.3192 15.3202 35.3299 15.443C35.333 15.4748 35.4063 15.593 35.3971 15.5985C35.3859 15.605 35.2904 15.5111 35.272 15.5154C35.2289 15.5264 35.2014 15.6064 35.157 15.6135C35.1487 15.6145 35.0719 15.5263 35.0409 15.5046C34.9196 15.4197 34.8948 15.4566 35.1402 15.7382C34.9657 15.6078 35.0558 15.7846 35.0282 15.8232C34.9705 15.9032 34.7801 15.95 34.8191 16.123C34.8346 16.1927 34.8851 16.2692 34.8805 16.2996L34.917 16.2674C34.9144 16.2853 34.8934 16.289 34.8373 16.2694C34.803 16.2573 34.7612 16.2369 34.7202 16.2226C34.6238 16.1889 34.3802 15.9925 34.6058 16.2915C34.5004 16.2571 34.5146 16.3373 34.2694 16.1297C34.3178 16.1892 34.3661 16.2487 34.4145 16.3081C34.4108 16.3141 34.4071 16.32 34.4035 16.326C34.3524 16.2739 34.3013 16.2218 34.2502 16.1697C34.2017 16.1878 34.3614 16.4486 34.3307 16.4743C34.279 16.5177 34.0745 16.5499 33.9599 16.523C33.8997 16.508 34.0061 16.6224 33.7706 16.4032C33.7804 16.4247 33.7903 16.4462 33.8002 16.4676C33.8452 16.5218 33.8903 16.576 33.9354 16.6301C33.907 16.661 33.7939 16.6181 33.7652 16.6473C33.7132 16.7003 33.7688 16.9162 33.6279 16.8767C33.5928 16.8664 33.4736 16.7804 33.4624 16.7939C33.4457 16.8136 33.6104 16.9892 33.5915 17.0145C33.5578 17.0586 33.2859 16.937 33.2665 16.9887C33.2611 17.0035 33.3212 17.0702 33.3215 17.0839C33.3235 17.1418 33.2952 17.162 33.3789 17.2762C33.1853 17.1474 32.9602 16.9529 32.7218 16.7698C32.5437 16.6292 32.1085 16.3319 31.9436 16.2208C31.8292 16.1408 31.7023 16.0117 31.5756 15.9245C31.5526 15.7562 31.6779 15.8201 31.8811 15.9161C31.9499 15.8264 32.0131 15.7479 32.0771 15.67C32.1432 15.7223 32.2092 15.7746 32.2753 15.827C32.2754 15.8271 32.2755 15.8272 32.2757 15.8273C32.3715 15.8677 32.2275 15.7065 32.2076 15.657C32.013 15.1862 32.5402 15.1884 32.7236 15.0889C32.763 15.0671 32.7911 14.8861 32.9055 14.9656C32.9353 14.9863 33.025 15.0794 33.0348 15.0779C33.037 14.9709 33.0383 14.8648 33.0405 14.7582C33.2395 14.7928 33.2789 14.6569 33.3361 14.5344C33.3387 14.5295 33.3542 14.521 33.3569 14.5161C33.3717 14.4863 33.3877 14.4573 33.4075 14.4323C33.6694 14.0998 33.9179 13.761 34.2485 13.5278C34.3127 13.4828 34.3272 13.3453 34.4258 13.345C34.4668 13.3448 34.6089 13.4965 34.5429 13.3505C34.5788 13.3934 34.6147 13.4363 34.6505 13.4792C34.6357 13.4039 34.5728 13.2909 34.5962 13.255C34.616 13.2248 34.6809 13.1607 34.718 13.1579C34.737 13.1561 34.7988 13.2406 34.8098 13.2308C34.8281 13.2136 34.778 13.0679 34.8048 13.0458C34.8291 13.0259 34.9464 13.0853 34.954 13.0565C34.9819 12.9536 34.942 12.7556 35.0441 12.7338C35.0724 12.728 35.1837 12.812 35.1874 12.804C35.1945 12.788 35.1148 12.6832 35.1122 12.6635C35.0994 12.5634 35.2627 12.6318 35.3072 12.6034C35.4519 12.511 35.555 12.3524 35.7013 12.2638C35.7935 12.2079 35.9159 12.0775 36.0551 12.0913C36.085 12.0944 36.1721 12.2093 36.1858 12.1981C36.2008 12.1857 36.1475 12.1035 36.1497 12.0915C36.1647 12.0079 36.2095 11.8436 36.3202 11.8813C36.3412 11.8888 36.4194 11.9707 36.4243 11.966C36.427 11.9638 36.3839 11.8994 36.3872 11.8866C36.3994 11.8411 36.4191 11.8122 36.4435 11.7918C36.4835 11.7584 36.5341 11.7464 36.5888 11.7218C36.7591 11.6455 36.8255 11.403 37.018 11.3413C37.0601 11.3277 37.2259 11.48 37.229 11.4743C37.2358 11.4626 37.144 11.3434 37.1394 11.2985C37.1243 11.151 37.3144 11.1988 37.326 11.0889C37.3318 11.0347 37.2476 10.8551 37.2498 10.7972C37.2514 10.751 37.3575 10.7577 37.3134 10.6851C37.2867 10.6412 37.1829 10.5161 37.1775 10.4938ZM38.0052 13.1151C37.8431 12.9119 37.9351 13.1164 38.0419 13.2089C38.066 13.2297 38.0473 13.1677 38.0052 13.1151ZM35.5471 14.5519C35.5947 14.6089 35.6423 14.6658 35.6899 14.7228C35.6763 14.6939 35.6627 14.6651 35.6491 14.6363C35.6173 14.6047 35.5856 14.573 35.5538 14.5414C35.5516 14.5449 35.5493 14.5484 35.5471 14.5519Z" fill="#0059FF"/>
</svg>
