<svg width="46" height="46" viewBox="0 0 46 46" fill="none" xmlns="http://www.w3.org/2000/svg">
<path d="M6.72431 37.9375C6.74281 37.9472 6.64655 37.967 6.64221 37.9776C6.63458 37.9946 6.61963 38.0034 6.60174 38.0082C6.57367 38.0128 6.54118 38.0123 6.50759 37.9732C6.48053 37.9318 6.36886 37.7043 6.33603 37.7744C6.29948 37.8248 6.27332 37.994 6.03116 38.2294C6.03115 38.2294 6.03114 38.2294 6.03113 38.2294C6.02642 38.2341 6.02163 38.2388 6.01677 38.2435C5.92442 38.3333 5.80392 38.4113 5.69632 38.5094C5.58845 38.6074 4.9206 39.2699 4.8415 39.2638C4.73588 39.2592 4.73979 38.8886 4.69429 38.8176C4.66157 38.7771 4.55117 38.7511 4.50699 38.6818C4.39102 38.4928 4.41826 38.384 4.28137 38.2903C4.25496 38.2721 4.2226 38.2537 4.18246 38.2346C4.29893 38.1676 4.4179 38.1123 4.53771 38.062C4.47775 38.0067 4.63679 37.9202 4.6274 37.8897C4.6196 37.864 4.52262 37.8503 4.51785 37.8232C4.51197 37.7928 4.61621 37.7469 4.60076 37.6941C4.57602 37.6078 4.32399 37.5892 4.29273 37.5369C4.26707 37.494 4.34941 37.4355 4.34047 37.382C4.34202 37.3745 4.34018 37.3512 4.34205 37.3438C4.34045 37.3278 4.33278 37.3118 4.31556 37.2957C4.28847 37.2847 4.2614 37.2736 4.23436 37.2625C4.17124 37.2646 4.10812 37.2669 4.045 37.2692C4.01849 37.2293 4.14805 37.2228 4.15308 37.1886C4.1591 37.1487 4.03937 37.1171 4.04243 37.0894C4.04508 37.0664 4.14537 37.0452 4.14225 37.0152C4.13825 36.9716 3.99682 36.9661 3.97309 36.9395C3.96326 36.9299 3.90767 36.7424 3.90867 36.7311C3.91409 36.652 4.10651 36.6737 4.13277 36.6157C4.20523 36.455 4.08804 36.2462 4.07992 36.0505C4.07599 35.964 4.1129 35.8803 4.17114 35.8058C4.5991 36.0833 5.05164 35.9551 4.28867 35.79C4.42504 35.7371 4.25774 35.5926 4.33538 35.5078C4.33743 35.5057 4.3396 35.5036 4.34187 35.5016C4.38 35.4871 4.47965 35.5063 4.49897 35.4574C4.53278 35.3687 4.31411 35.1159 4.8262 35.3249C4.7998 35.1555 5.03776 35.1382 4.65133 34.8356C4.65024 34.7778 4.96366 34.825 5.02742 34.8043C5.07293 34.7834 5.48182 34.5171 5.59374 34.4733C5.67479 34.4225 5.84549 34.3448 5.93184 34.2762C5.97143 34.2427 5.99256 34.1487 6.03401 34.0733C6.03077 33.9646 6.04169 33.9062 6.16483 34.2544C6.2473 34.1887 6.29338 34.1962 6.40977 34.2473C6.43121 34.2566 6.44601 34.3431 6.45709 34.3416C6.47995 34.3384 6.51182 34.2688 6.55607 34.2565C6.62987 34.2362 6.683 34.419 6.65936 34.138C6.70944 34.0879 6.76398 34.0394 6.82303 33.993C6.84278 34.0476 6.86114 34.1026 6.87827 34.1577C6.91007 34.0996 6.94452 34.0423 6.98126 33.9858C6.91349 34.3877 7.14025 34.1714 7.10536 33.9317C7.18576 34.0046 7.25942 34.0818 7.3247 34.1617C7.33722 34.188 7.34971 34.2144 7.36216 34.2407C7.2395 34.6875 7.49542 34.3299 7.54702 34.0832C7.55477 34.0856 7.56252 34.088 7.57027 34.0904C7.60735 34.2275 7.69656 34.1471 7.75866 34.2503C7.8202 34.3535 7.79987 34.3948 7.76579 34.6068C7.78842 34.6006 7.81116 34.5945 7.83397 34.5885C8.10517 34.0598 7.7912 35.0208 8.09851 34.6486C8.04029 35.0157 8.23178 34.8769 8.36274 34.8067C8.37781 34.7985 8.40272 34.7317 8.42472 34.7164C8.47844 34.6798 8.5349 34.8001 8.61628 34.5851C8.62365 34.6596 8.63037 34.734 8.63596 34.8083C8.67724 34.7801 8.71884 34.7522 8.76131 34.7249C8.78946 34.6589 8.81759 34.5929 8.84573 34.5268C8.80264 34.7743 8.9216 34.7248 8.93805 34.7973C8.94108 34.8118 8.90065 34.9022 8.91351 34.9382C8.92828 34.9807 8.9938 34.9802 9.01387 35.0253C9.07679 34.9342 9.14058 34.8437 9.20527 34.7537C9.29802 34.7352 9.18305 35.0026 9.20703 35.0416C9.21132 35.0479 9.33961 35.0985 9.34913 35.0976C9.42637 35.0883 9.54254 34.8664 9.67288 35.0176C9.69575 35.0449 9.66909 35.1306 9.69151 35.151C9.72981 35.1848 9.9804 35.1355 10.1079 35.0099C10.0218 35.2272 10.2235 35.2873 10.2196 35.3766C10.2178 35.403 10.12 35.5064 10.1331 35.5637C10.1431 35.6092 10.3004 35.6127 10.3212 35.6682C10.3426 35.7263 10.261 35.8167 10.2694 35.8412C10.2774 35.8643 10.3677 35.8231 10.3871 35.8504C10.4467 35.9373 10.3661 36.0999 10.4021 36.1667C10.4143 36.1894 10.4389 36.2041 10.4719 36.2144C10.5733 36.2308 10.7717 36.1922 10.887 36.2008C10.8798 36.2268 10.8342 36.2724 10.8432 36.291C10.9523 36.5223 11.0442 36.8406 11.0664 37.1849C11.0902 37.3528 10.7255 37.7864 11.3659 37.6536C11.4999 37.7252 11.171 38.2684 11.115 38.3464C11.0879 38.4176 11.121 38.5012 11.1241 38.5747C11.1307 38.5891 11.1341 38.6017 11.1302 38.6111C11.0855 38.7195 10.9747 38.7607 10.9975 38.9467C11.0036 38.9949 11.107 39.0967 11.0941 39.1191C11.0781 39.146 10.9442 39.1158 10.9182 39.1477C10.8583 39.2237 10.8046 39.412 10.7295 39.4894C10.7158 39.5033 10.6126 39.4478 10.5677 39.4507C10.3932 39.4614 10.3385 39.5604 10.6557 39.7584C10.4001 39.7541 10.472 39.976 10.3793 40.0978C10.1952 40.3614 9.65543 40.6573 9.45665 40.9087C9.33338 41.0739 9.3883 41.237 9.08303 41.1888C9.01558 41.1769 8.94942 41.1516 8.87243 41.1328C8.81556 41.1178 8.75524 41.0788 8.7 41.0455C8.60283 40.9722 8.52476 40.9273 8.50953 41.1869C8.35673 41.1178 8.2561 41.2029 8.11332 40.9009C8.11232 40.9782 8.1109 41.0556 8.10906 41.133C8.09259 41.1371 8.07612 41.1411 8.05959 41.1451C8.0453 41.0734 8.03118 41.0016 8.01724 40.9299C7.90136 40.9246 7.77613 41.2368 7.66715 41.2409C7.49074 41.2534 7.01319 41.1311 6.84073 41.005C6.75158 40.9415 6.7202 41.0941 6.71551 40.7684C6.6909 40.787 6.66613 40.8054 6.64003 40.8233C6.61362 40.89 6.58628 40.9563 6.55797 41.0224C6.42137 40.9986 6.28225 40.8484 6.14235 40.7948C6.06521 40.7657 5.96782 40.7426 5.85448 40.7032C5.72271 40.6865 5.54062 40.6653 5.47136 40.5194C5.44675 40.4673 5.4717 40.3125 5.4308 40.2883C5.37089 40.2523 5.2238 40.4442 5.13642 40.3887C4.98445 40.292 4.86895 39.8473 4.70234 39.599C4.65209 39.5272 4.55037 39.5232 4.5105 39.4542C4.39247 39.2506 4.34202 38.9715 4.34577 38.6901C4.33488 38.6368 4.31853 38.5792 4.29548 38.5083C4.58319 38.3431 4.86545 38.4718 5.15865 38.5458C5.26931 38.5758 5.45697 38.6256 5.61448 38.7233C5.77823 38.814 5.86918 38.9911 5.88108 39.103C5.91211 39.2577 6.20288 39.2496 6.24325 39.4169C6.44542 39.2609 6.44665 39.2365 6.47621 39.1955C6.49559 39.1605 6.49124 39.1374 6.47493 39.1165C6.44146 39.0761 6.35731 39.0455 6.24965 39.0329C6.24967 39.0351 6.24964 39.0377 6.2496 39.0406C6.28592 38.8859 6.23056 38.728 6.20774 38.6885C6.18297 38.6411 6.1885 38.6514 6.2143 38.6677C6.16281 38.7341 6.11411 38.8028 6.06814 38.8736C6.06802 38.8738 6.06791 38.8739 6.06779 38.874C6.04164 38.9779 6.19277 38.821 6.24019 38.7949C6.46019 38.6812 6.63335 38.7416 6.86292 38.9035C6.81845 38.9319 7.03159 39.107 7.18296 39.1368C7.24688 39.154 7.46405 39.0391 7.52014 39.1705C7.5346 39.2053 7.54567 39.3341 7.56022 39.3388C7.68164 39.2544 7.79787 39.1643 7.90822 39.0701C8.03139 39.1408 8.15096 39.1363 8.26148 39.1004C8.3748 39.0608 8.45292 38.9689 8.52361 38.9133C8.7941 38.7051 8.9134 38.3236 9.19484 37.6808C9.18272 37.7004 9.18099 37.7338 9.18721 37.7249C9.194 37.7141 9.09125 37.6715 9.12087 37.5716C9.13363 37.5306 9.31958 37.4353 9.15392 37.4406C9.20509 37.418 9.25624 37.3955 9.30738 37.3729C9.22326 37.3483 9.09345 37.3706 9.05372 37.3187C9.02148 37.2757 8.94089 37.141 8.93153 37.0804C8.93033 37.0724 8.93597 37.0638 8.94474 37.0549C8.97208 37.034 9.02212 37.0064 9.01618 36.9967C9.00082 36.9728 8.85143 37.0077 8.83318 36.9839C8.81741 36.962 8.87343 36.8418 8.84054 36.8324C8.72523 36.7997 8.53539 36.8725 8.47001 36.7698C8.45238 36.7411 8.48765 36.6029 8.47548 36.5999C8.45238 36.5948 8.37824 36.7037 8.35765 36.7111C8.25523 36.7487 8.22551 36.5559 8.15225 36.5148C7.92183 36.3825 7.60869 36.3332 7.3216 36.2247C7.19961 36.1782 7.01192 36.1351 6.85016 36.0702C6.83833 36.055 6.82685 36.0338 6.8114 36.0002C6.80129 35.9783 6.80922 35.8343 6.79428 35.8341C6.77684 35.834 6.77022 35.9317 6.76362 35.9399C6.72077 35.9892 6.62699 36.0905 6.43276 36.0772C6.45608 36.066 6.47496 36.0522 6.48881 36.0366C6.51498 36.0082 6.48805 35.8964 6.4983 35.8923C6.50323 35.89 6.55084 35.9529 6.57223 35.9497C6.74382 35.9163 6.64908 35.9062 6.57538 35.9944C6.49717 36.0806 6.45077 36.2393 6.37584 36.4495C6.35742 36.5357 6.33328 36.6761 6.26558 36.8139C6.23649 36.8725 6.00858 36.8823 6.00901 36.8931C6.00986 36.9157 6.15588 36.9534 6.18627 37.0015C6.27729 37.1457 6.13618 37.3109 6.16254 37.4582L6.16421 37.4178C6.16723 37.4334 6.17166 37.4486 6.17787 37.463C6.21326 37.5462 6.40223 37.6545 6.44435 37.724C6.47752 37.7814 6.40497 37.904 6.4898 37.9186C6.54083 37.9288 6.70341 37.9268 6.72431 37.9375ZM4.63822 35.4543C4.86888 35.5745 4.7279 35.3646 4.58055 35.351C4.54698 35.3486 4.57801 35.4238 4.63822 35.4543ZM10.5829 36.8003C10.6504 36.7695 10.7179 36.7386 10.7854 36.7076C10.7492 36.7018 10.7132 36.6969 10.6772 36.6923C10.641 36.7205 10.6046 36.7483 10.568 36.7759C10.573 36.7839 10.578 36.7921 10.5829 36.8003Z" fill="#0059FF"/>
<path d="M10.9404 29.0871C10.9623 29.0857 10.8985 29.1613 10.9044 29.176C10.926 29.2357 10.8904 29.2957 10.8921 29.3506C10.8904 29.3906 10.9464 29.4033 10.8494 29.4114C10.903 29.4649 11.1177 29.6567 11.1339 29.7903C11.1666 29.9301 11.1102 30.0483 10.9884 30.1694C10.9884 30.1694 10.9884 30.1694 10.9884 30.1694C10.9836 30.1741 10.9788 30.1787 10.9739 30.1834C10.8797 30.2709 10.7398 30.3308 10.6364 30.4339C10.5355 30.5387 9.88549 31.2198 9.87308 31.2785C9.85916 31.3105 9.94532 31.3219 9.90843 31.2531C9.79781 31.1367 9.75462 31.0154 9.7208 30.9983C9.67975 30.9772 9.5826 31.0093 9.52915 30.9835C9.35802 30.8988 9.34834 30.7969 9.07452 30.8401C9.12586 30.7136 9.18312 30.5916 9.2447 30.4733C9.2025 30.4644 9.19492 30.4181 9.19574 30.3696C9.17278 30.328 9.09854 30.2175 9.09075 30.1706C9.10898 30.1205 9.13773 30.0717 9.12715 30.0524C9.11056 30.0221 9.01189 30.0291 8.99781 29.9944C8.98145 29.9554 9.06701 29.8691 9.03606 29.7999C8.98649 29.6857 8.73454 29.7032 8.69041 29.6236C8.64485 29.5391 8.76839 29.3922 8.67772 29.2793C8.64964 29.2651 8.62167 29.2504 8.59382 29.2352C8.53107 29.2465 8.46839 29.2585 8.40579 29.2712C8.37569 29.2054 8.50477 29.1778 8.50898 29.1193C8.51442 29.0502 8.39558 29.0048 8.40064 28.9541C8.40501 28.9124 8.50842 28.8687 8.51003 28.8162C8.51342 28.739 8.37189 28.7316 8.35379 28.6829C8.34118 28.6661 8.3513 28.314 8.36269 28.293C8.40766 28.1465 8.59377 28.2058 8.65379 28.111C8.69171 28.0522 8.72286 27.991 8.75096 27.9273C8.81616 27.7203 9.12201 27.2088 9.4385 27.0254C9.5899 26.9242 9.73783 26.882 9.86132 26.8714C9.87399 26.8714 9.88674 26.8717 9.89953 26.8725C9.89705 26.9432 9.90363 27.0095 9.91512 27.0695C9.92291 27.119 9.93599 27.1638 9.95143 27.2031C10.0468 27.4688 10.2025 27.5049 9.98037 26.9608C10.1034 27.0435 10.1234 26.825 10.222 26.8408C10.2854 26.8515 10.3443 26.9493 10.4241 26.9324C10.562 26.902 10.6815 26.5781 10.7907 27.1205C10.9407 27.0033 11.0948 27.1911 11.1154 26.7009C11.1576 26.6676 11.2862 26.9496 11.3341 26.9867C11.3817 27.0194 11.72 27.1414 11.7733 27.151C11.8279 27.1583 11.9228 27.168 11.9703 27.1269C12.0274 27.0758 12.0983 26.5728 12.1709 27.1685C12.247 27.1435 12.2928 27.1423 12.3416 27.1634C12.3688 27.1762 12.3966 27.1973 12.4331 27.2268C12.4504 27.2408 12.4448 27.3283 12.4555 27.3293C12.4775 27.3314 12.5213 27.2703 12.5625 27.2664C12.6302 27.26 12.6492 27.4476 12.6711 27.1666C12.7207 27.1243 12.771 27.0823 12.8232 27.0409C12.8329 27.0968 12.8429 27.1528 12.8523 27.2088C12.8843 27.153 12.9168 27.0975 12.9507 27.0423C12.866 27.4418 13.077 27.2292 13.0542 26.9895C13.139 27.0875 13.2248 27.188 13.3098 27.293C13.194 27.74 13.5174 27.3996 13.5804 27.1576C13.5939 27.162 13.6075 27.1665 13.6213 27.1712C13.655 27.2336 13.697 27.2621 13.7449 27.2841C13.777 27.302 13.834 27.3054 13.8773 27.3746C13.951 27.491 13.9256 27.5301 13.8778 27.7403C13.9056 27.7382 13.9345 27.7366 13.9627 27.735C14.3193 27.2515 13.893 28.1664 14.2878 27.8574C14.1948 28.2199 14.4323 28.1252 14.5962 28.0919C14.6151 28.0878 14.651 28.0262 14.6786 28.0169C14.7467 27.995 14.8013 28.1362 14.9199 27.9395C14.9207 28.0185 14.9212 28.0978 14.9188 28.176C14.9703 28.1598 15.0222 28.1444 15.0745 28.1295C15.115 28.0702 15.1554 28.011 15.1959 27.9517C15.1172 28.1941 15.2588 28.1805 15.2683 28.2611C15.2699 28.2771 15.2123 28.3576 15.2217 28.3988C15.2326 28.4473 15.3065 28.4681 15.3225 28.5211C15.4055 28.4472 15.4888 28.3736 15.5732 28.301C15.6784 28.3112 15.5123 28.5506 15.5334 28.5989C15.5378 28.6072 15.6691 28.6982 15.6791 28.6999C15.7184 28.7055 15.773 28.6672 15.8321 28.6432C15.8972 28.6127 15.9649 28.5978 16.0146 28.685C16.0311 28.7142 15.9897 28.7929 16.0083 28.8158C16.0408 28.8557 16.2866 28.8251 16.4211 28.7067C16.3096 28.9107 16.4953 28.9662 16.4856 29.0487C16.4821 29.0734 16.3834 29.1764 16.3949 29.2313C16.4036 29.2754 16.5548 29.2674 16.5762 29.3177C16.5977 29.3706 16.5233 29.4665 16.5333 29.4897C16.543 29.5117 16.6275 29.4605 16.6487 29.4846C16.7123 29.559 16.6558 29.7307 16.7039 29.7924C16.7734 29.8822 17.064 29.7884 17.2378 29.813C17.2402 29.8484 17.2062 29.9071 17.223 29.933C17.3862 30.1871 17.5914 30.6308 17.5399 31.1532C17.5288 31.2049 17.5173 31.256 17.5055 31.307C17.4775 31.4317 17.0818 31.7554 17.7318 31.6841C17.8463 31.7323 17.5651 32.1027 17.5474 32.1847C17.5343 32.2631 17.6394 32.3475 17.6283 32.4193C17.5877 32.6414 17.4845 32.774 17.4073 33.1496C17.3863 33.2467 17.4375 33.4206 17.3947 33.4762C17.381 33.494 17.3588 33.5062 17.3325 33.5156C17.2844 33.5126 17.2086 33.493 17.1828 33.5157C17.0982 33.593 16.9919 33.7884 16.8961 33.8594C16.8785 33.8722 16.7868 33.7993 16.74 33.7963C16.5578 33.7844 16.4774 33.8825 16.7581 34.1298C16.4983 34.0908 16.526 34.3289 16.4103 34.4414C16.1792 34.6807 15.5654 34.9649 15.1941 35.2075C15.0033 35.3402 14.9841 35.4808 14.715 35.459C14.6726 35.4532 14.6224 35.4408 14.566 35.4192C14.4866 35.389 14.411 35.3452 14.3237 35.3025C14.1106 35.2004 14.0069 34.8697 13.7835 35.2024C13.5916 35.0609 13.3982 35.0661 13.3768 34.7143C13.3324 34.7789 13.2868 34.8428 13.24 34.9061C13.2153 34.8977 13.1912 34.8893 13.1667 34.8804C13.1891 34.8105 13.2122 34.7409 13.2357 34.6714C13.1257 34.6054 12.9117 34.6785 12.7493 34.6745C12.7122 34.6835 12.6815 34.6861 12.663 34.6742C12.5422 34.5944 12.2416 34.2923 12.1374 34.1214C12.0854 34.0321 12.0029 34.1648 12.1169 33.8601C12.0881 33.8693 12.0591 33.8784 12.0298 33.8872C11.9832 33.9415 11.9365 33.9956 11.8894 34.0496C11.7813 33.9898 11.7068 33.8163 11.5996 33.7459C11.409 33.6265 10.9685 33.5237 10.8715 33.2349C10.8474 33.1642 10.9004 33.0072 10.8592 32.9619C10.8302 32.9301 10.7696 32.9454 10.7047 32.9589C10.636 32.9745 10.5635 32.9898 10.5247 32.9437C10.3909 32.7891 10.4245 32.3271 10.3261 32.172C10.2955 32.1256 10.2031 32.14 10.177 32.1071C10.0674 31.9679 10.0225 31.8354 9.83647 31.6917C10.004 31.4285 10.3058 31.3866 10.5902 31.2817C10.8035 31.1941 11.32 31.0517 11.5212 31.0893C11.6609 31.0995 11.8394 31.059 11.9932 31.0664C12.1078 30.9603 11.9774 31.0487 11.7908 31.1653C11.8374 31.2823 11.9145 31.418 12.0098 31.5468C11.9479 31.6053 11.8867 31.6645 11.827 31.7256C11.8268 31.7257 11.8267 31.7258 11.8265 31.7259C11.7873 31.8393 11.981 31.7375 12.0408 31.7353C12.0917 31.7343 12.1386 31.7378 12.183 31.746C12.4032 31.7758 12.5159 31.8871 12.6825 32.0563C12.8448 32.2231 13.0615 32.443 13.2486 32.5758C13.3345 32.6358 13.7107 32.7218 13.7086 32.8812C13.7077 32.9221 13.6459 33.0357 13.6609 33.0514C13.689 33.056 13.7174 33.0608 13.7461 33.066C13.8746 33.0679 13.9948 33.0519 14.1027 33.0209C14.204 33.217 14.4184 33.1985 14.5509 33.1371C14.5788 33.1173 14.6065 33.0944 14.641 33.0752C14.877 32.9555 15.2258 32.5563 15.5242 32.1133C15.4585 32.2163 15.544 31.9722 15.552 31.6506C15.5618 31.5085 15.4924 31.3137 15.5122 31.1385C15.5153 31.1494 15.5215 31.1596 15.5314 31.1672C15.561 31.194 15.7631 31.1401 15.6129 31.1786C15.6656 31.1602 15.7184 31.1415 15.771 31.1228C15.6992 31.1237 15.5799 31.1679 15.5499 31.1414C15.5285 31.1214 15.4427 31.0147 15.4214 30.9563C15.4117 30.9273 15.4995 30.8697 15.4812 30.8483C15.4487 30.8113 15.2692 30.8254 15.2197 30.772C15.1761 30.7242 15.1824 30.5566 15.1307 30.5288C14.9491 30.431 14.6648 30.4025 14.5383 30.214C14.5058 30.1654 14.5344 30.0344 14.526 30.0032C14.5256 30.0007 14.5248 29.999 14.5236 29.9983C14.4958 29.9826 14.3992 30.0725 14.3734 30.0716C14.2445 30.0676 14.2284 29.8498 14.1509 29.7838C13.9027 29.5692 13.58 29.4536 13.2824 29.3089C13.2159 29.2765 13.1453 29.2497 13.0207 29.2007C12.9662 29.1714 12.7813 29.1238 12.6522 29.0419C12.6105 29.015 12.6398 28.8734 12.6008 28.8688C12.557 28.8636 12.5224 28.9579 12.5008 28.9635C12.4267 28.9832 12.3055 29.0101 12.1835 29.0189C12.0786 29.029 11.976 29.0241 11.9145 28.9725C11.8913 28.9526 11.8764 28.8393 11.8615 28.8394C11.854 28.8392 11.8358 28.916 11.8128 28.9236C11.6089 28.9916 11.461 28.9524 11.2574 28.9426C10.9934 28.9307 10.7016 29.0314 10.4693 29.1094C10.4498 29.1177 10.4584 29.1211 10.5011 29.093C10.543 29.0677 10.6066 28.9955 10.6107 28.9646C10.6147 28.9468 10.5758 28.9283 10.5292 28.916C10.463 28.8974 10.388 28.8761 10.3875 28.8803C10.3848 28.8964 10.5175 28.9672 10.5447 28.9998C10.6361 29.0932 10.4641 29.1749 10.5481 29.2924C10.5891 29.3452 10.7892 29.3875 10.8419 29.4276C10.8772 29.455 10.8514 29.5525 10.9007 29.5792L10.7058 29.2097C10.7149 29.2113 10.725 29.2101 10.7363 29.2054C10.7846 29.1851 10.9158 29.089 10.9404 29.0871ZM10.5294 27.0418C10.5547 27.3005 10.6893 27.0616 10.6057 26.9331C10.5865 26.9042 10.5224 26.9745 10.5294 27.0418ZM17.0765 30.6225C17.1452 30.5943 17.2138 30.5659 17.2823 30.5372C17.2414 30.5166 17.201 30.4999 17.1603 30.484C17.1264 30.5178 17.0919 30.5506 17.0567 30.5825C17.0633 30.5954 17.07 30.6088 17.0765 30.6225Z" fill="#0059FF"/>
<path d="M11.3245 23.5639C11.1727 23.5501 10.9949 23.4056 10.8385 23.3563C10.5099 23.252 10.3159 23.1627 10.1504 23.087C9.99268 23.0124 9.83141 22.9425 9.76968 22.9179C9.76074 22.9133 9.75718 22.9109 9.76647 22.9086C8.9134 22.9003 7.8733 22.6282 7.06333 21.9541C7.05116 21.9459 7.01684 21.9185 7.0052 21.9095C6.90946 21.8062 6.77179 21.6586 6.66304 21.4932C6.53032 21.2758 6.60862 21.2852 6.59831 21.1818C6.60469 21.0968 6.62166 21.0059 6.68346 20.9264C6.68347 20.9264 6.68348 20.9264 6.68349 20.9264C6.68754 20.9211 6.69178 20.9159 6.69621 20.9108C6.78018 20.8111 6.99142 20.8044 7.11203 20.7214C7.17186 20.6791 7.35809 20.487 7.56997 20.3349C7.77204 20.1708 8.06136 20.1227 8.13714 20.1588C8.13827 20.1591 8.13936 20.1595 8.1404 20.1599C8.17654 20.1761 8.21847 20.2167 8.31577 20.3081L8.27107 20.2738C8.46006 20.4619 8.96849 20.796 9.09783 20.812C9.22058 20.8369 9.3834 20.7831 9.5212 20.7818C9.60114 20.7812 9.66959 20.7785 9.72905 20.7736C10.4833 20.7838 10.7319 20.9567 11.2282 20.8934C11.3958 21.073 11.5539 21.2452 11.7238 21.4092C11.827 21.4104 11.9408 21.4437 12.0535 21.4823C12.2192 21.5429 12.397 21.6108 12.4968 21.6076C12.6291 21.6032 12.7072 21.5054 12.8578 21.499C13.0268 21.4928 13.3118 21.5833 13.6806 21.6058C14.2825 21.6604 14.4668 21.4793 14.8393 21.5811C15.1093 21.6624 15.4151 21.885 15.708 22.0735C15.8177 22.1439 15.9299 22.2049 16.0459 22.2456C16.1034 22.2483 16.1629 22.2524 16.2209 22.2555C16.2226 22.1828 16.224 22.1099 16.2252 22.0369C16.4174 22.1208 16.4241 22.2763 16.5842 22.3781C16.7712 22.4973 16.9328 22.4541 17.0581 22.5326C17.1627 22.5982 17.2495 22.7674 17.3875 22.8457C17.5871 22.9594 17.6174 22.8119 17.7365 22.8544C17.7863 22.8752 18.5837 23.2665 18.6157 23.2784C18.9116 23.4393 18.8814 23.6392 19.0026 23.7088C19.004 23.7213 19.0493 23.7031 18.7971 23.6917C19.3055 23.7 19.9494 23.6543 20.0497 23.5683C20.2428 23.4942 20.46 23.3943 20.7122 23.295C21.0529 23.1619 21.5138 23.027 22.048 23.007C21.6752 23.3021 21.9583 23.4818 22.191 23.5259C22.4231 23.5707 22.7147 23.4891 22.3774 23.0953C22.8303 23.1764 23.2075 23.1473 23.6024 23.2447C23.7667 23.2907 23.9029 23.351 24.0197 23.4235C24.325 23.62 24.4262 23.8247 24.7372 24.0522C25.2809 24.4598 25.9659 24.6333 25.7613 25.1691C26.3582 25.5232 26.7463 25.9891 27.0829 25.5984C27.1327 25.6058 27.1806 25.692 27.1771 25.7651C27.1784 25.8379 27.0973 25.9143 27.0377 25.9615C27.0306 25.9667 27.0202 25.9737 27.0075 25.9832C26.9917 26.1455 28.1376 25.1289 28.4973 24.9739C28.7457 24.8117 29.3183 24.609 29.7082 24.6063C29.7759 24.6035 29.8365 24.6047 29.889 24.6067C30.4256 24.6406 30.9198 24.3953 31.021 25.1314C31.438 25.3286 31.5833 25.4136 31.8745 25.5992C31.9247 25.6293 31.9772 25.6616 32.034 25.6969C32.1139 25.7467 32.0874 25.831 32.1364 25.8533C32.2379 25.8994 32.436 25.9192 32.6142 25.9903C32.906 26.107 32.9928 26.3396 33.0692 26.0667C33.2683 26.0974 33.4594 26.1179 33.6338 26.1208C33.6746 26.1898 33.7165 26.2577 33.7602 26.3242C33.8603 26.2874 33.9522 26.2444 34.0324 26.1951C33.8947 26.6019 34.4576 26.3788 34.2717 26.1414C34.3062 26.1537 34.3407 26.1644 34.3758 26.1736C34.6964 26.2054 35.0144 26.2222 35.3251 26.2155C35.4046 26.6904 36.0958 26.0196 35.8913 25.8128C35.9228 25.799 35.9535 25.7847 35.9832 25.7703C36.1352 25.7606 36.2505 25.6972 36.3424 25.6241C36.504 25.4947 36.6701 25.3486 36.8933 25.2154C37.3256 24.9558 37.3202 25.018 37.5753 25.0798C37.6571 24.993 37.739 24.9058 37.8212 24.8184C37.8868 24.2259 38.1811 24.4483 38.5549 24.2855C38.7323 24.2059 38.9152 24.0779 39.1036 23.7794C39.5919 23.8895 40.1599 23.2424 40.4229 22.8074C40.4546 22.757 40.4045 22.7066 40.4398 22.6374C40.5345 22.4737 40.8568 22.1754 40.6446 22.0683C40.6803 22.0469 40.7154 22.0243 40.7494 22.0015C40.853 21.9092 40.9558 21.8169 41.0576 21.7241C41.0888 21.5732 41.1178 21.4233 41.1435 21.275C41.0787 21.2443 41.0138 21.2135 40.949 21.1827C41.2979 21.0302 41.3889 20.582 41.511 20.4069C41.536 20.3718 41.6336 20.3963 41.7005 20.2798C41.7805 20.143 41.824 19.8665 41.8796 19.7051C41.7822 19.622 41.6813 19.5464 41.5772 19.4809C41.5371 19.2342 41.8135 19.148 41.8121 18.9891C41.812 18.9883 41.8119 18.9871 41.8117 18.9855C41.8139 18.9036 41.646 18.4808 41.6229 18.4929C41.5163 18.4029 41.387 18.5056 41.2704 18.4683C41.1805 18.4254 41.0713 18.3646 40.9356 18.2802C40.8065 18.1997 40.735 18.0661 40.6115 17.9989C40.3952 17.8783 39.6257 17.7208 39.4933 17.8568C39.3145 17.5228 38.5146 17.2468 38.3132 17.0753C38.2541 17.0242 38.3002 16.8889 38.1026 16.7565C37.9436 16.6507 37.4431 16.5198 37.2197 16.3603C36.9809 16.191 36.958 16.0254 36.8438 15.9274C36.7348 15.8229 36.5679 15.8459 36.3515 15.5392C36.3379 15.518 36.3245 15.4958 36.3116 15.4726C36.138 15.0931 36.2049 15.0791 36.1883 14.9861C36.1884 14.93 36.1927 14.8732 36.1971 14.8386C36.2065 14.7593 36.2189 14.7011 36.2329 14.6391C36.26 14.5279 36.2928 14.4228 36.3234 14.3306C36.3856 14.1398 36.4439 13.9672 36.4614 13.8015C36.5141 13.3129 36.2423 12.8785 36.0987 12.5273C36.1132 12.4368 36.1686 12.3451 36.1604 12.2522C36.109 11.6205 35.9357 11.0355 35.6175 10.6956C35.4596 10.5291 35.3029 10.367 35.1581 10.229C35.0353 10.0978 34.8071 9.95915 34.9387 10.01C35.044 10.0223 34.8626 9.99084 34.735 9.99564C34.2201 10.0224 32.4029 9.75424 32.8863 10.3688C32.7859 10.4086 32.457 10.4159 31.9811 10.3027C31.3975 10.1868 30.4634 9.68264 30.2884 9.52964C29.9526 9.313 29.6453 9.20088 29.427 8.99717C29.0784 8.66589 28.8549 8.35958 28.6148 8.03499C28.4246 7.77523 28.2167 7.50461 27.9345 7.19784C27.7769 7.02692 27.5226 6.91315 27.445 6.80602C27.3519 6.67689 27.3569 6.46107 27.2411 6.29783C26.9786 5.90099 26.3373 5.29918 26.2675 5.29117C26.2573 5.28135 26.2964 5.17136 26.2992 5.13405C26.2998 5.13131 26.3004 5.12865 26.3011 5.12607C25.8496 4.88463 25.4449 4.86869 25.4916 5.24202C25.3385 5.14896 25.2004 5.13217 25.1063 5.15381C25.0198 5.16802 24.8251 5.35429 24.5011 5.55305C23.4867 6.23952 21.3797 6.88793 20.2218 7.22534C20.0932 7.26618 19.9782 7.30523 19.8716 7.34424C19.1886 7.58536 19.2467 7.76388 18.1289 7.77822C17.879 7.77768 17.6277 7.76152 17.3174 7.74342C16.5779 7.70172 15.9391 7.35375 15.3298 7.63102C15.1763 7.58767 15.0311 7.54739 14.8931 7.50776C14.4496 7.37052 14.0667 7.31929 13.706 7.03702C13.6456 7.10977 13.5868 7.18316 13.5295 7.25714C13.454 7.25565 13.3782 7.25519 13.3029 7.25579C13.2806 7.18246 13.2578 7.10922 13.2343 7.03609C13.0135 7.02626 12.7697 7.07661 12.5357 7.14989C12.1316 7.26414 11.7521 7.40526 11.4807 7.44005C11.0192 7.4968 10.4492 7.56973 9.83919 7.93737C9.25334 8.28464 8.70036 8.60259 8.383 8.77111C7.99971 8.97493 8.07569 9.11412 7.69145 8.99703C7.63006 9.07001 7.56894 9.1438 7.50973 9.21771C7.50828 9.30764 7.50692 9.39814 7.50988 9.48598C7.35973 9.60757 7.19717 9.72979 7.10138 9.81021C6.9911 9.90732 7.04977 9.84504 7.02674 9.6905C7.02595 9.7761 7.03296 9.86878 7.04705 9.95877C7.16566 10.7452 7.77859 12.0171 7.98658 12.9872C7.99679 13.0327 8.006 13.0775 8.01438 13.1225C8.06667 13.3984 8.01709 13.7893 8.05991 14.0842C8.11216 14.5144 8.37779 14.6272 8.31443 15.2511C8.26791 15.6281 8.10139 16.0952 7.85858 16.5061C7.54795 16.957 7.40394 17.4277 7.49516 17.7667C7.52178 17.8742 7.58705 17.9306 7.63651 17.989C7.65893 18.02 7.67996 18.0554 7.6952 18.0944C7.92291 18.6744 8.07657 19.1697 8.39322 19.7018C8.37267 20.3905 8.07189 20.4287 7.84698 20.7114C7.67746 20.9249 7.31697 21.5294 7.14455 21.6464C7.02451 21.7304 6.80328 21.6218 6.67533 21.7278C6.33232 21.0408 6.35725 20.6853 6.37048 20.0212C6.20806 19.5297 6.04464 19.0398 5.88283 18.5402C5.61884 17.785 5.6396 16.8136 5.93089 16.0692C6.05497 15.975 6.18092 15.8917 6.30747 15.817C6.30764 15.8171 6.3078 15.8172 6.30797 15.8172C6.31433 15.8083 6.32055 15.7994 6.32662 15.7906C6.553 15.4895 6.38721 15.2751 6.37484 15.1022C6.34339 14.6838 6.24084 14.2657 5.99738 13.6257C5.62084 12.548 5.16173 11.3765 5.03349 9.83865C4.99942 9.39126 5.19141 8.96939 5.36087 8.73679C5.5342 8.49262 5.7011 8.33846 5.85806 8.19943C6.17289 7.92785 6.45765 7.73518 6.73603 7.54685C7.28591 7.18053 7.79018 6.87099 8.21593 6.59506C8.33181 6.52013 8.5018 6.39967 8.70525 6.25442C9.37379 5.7047 10.7197 5.31828 11.0158 5.40982C11.127 5.42907 11.1732 5.55317 11.2833 5.54474C11.6623 5.46697 12.0306 5.40813 12.3917 5.34856C12.9944 5.25367 13.6066 5.21667 14.2192 5.23241C14.5889 5.30679 14.9559 5.38859 15.3213 5.48137C16.6812 5.86464 18.1699 5.49495 19.6505 5.13726C19.6793 5.13023 19.7084 5.1231 19.7376 5.11589C20.5757 4.90811 21.3895 4.65873 22.1409 4.33163C22.5165 4.16826 22.8688 3.9862 23.2296 3.77314C23.5909 3.57836 23.9813 3.24502 24.7224 3.08374C25.5205 2.93675 26.1775 3.09332 26.7093 3.19287C28.1114 3.63591 28.4191 4.39048 28.9578 4.97602C29.4404 5.58953 29.865 6.18893 30.3014 6.75684C30.6039 7.15157 30.9267 7.4981 31.2497 7.72703C31.5802 7.9594 31.8551 8.05671 32.3802 8.153C32.4787 8.17227 32.6082 8.18451 32.7483 8.18832C33.0466 8.19745 33.4238 8.15338 33.8386 8.0969C34.0469 8.06917 34.2657 8.03807 34.509 8.01583C34.7714 8.00596 34.9662 7.9393 35.5233 8.0765C35.8833 8.19693 36.0152 8.31457 36.1585 8.41521C36.2932 8.5175 36.3975 8.61202 36.4919 8.70357C36.7283 8.93663 36.7751 9.137 36.9636 9.33251C37.0685 9.44099 37.1932 9.55643 37.3569 9.7022C37.3164 9.7415 37.2757 9.78051 37.2347 9.81924C37.6342 10.2748 37.9066 10.6013 38.0769 11.2219C38.249 11.7543 38.2906 13.0749 38.2226 13.4832C38.1974 13.6992 38.099 13.6122 38.083 13.8092C38.0703 13.9651 38.0764 14.203 38.0799 14.4497C38.0817 14.5739 38.0835 14.6975 38.086 14.8071C38.0875 14.8595 38.0894 14.9096 38.0931 14.9371C38.095 14.9486 38.0977 14.9566 38.0995 14.9385C38.0821 14.8945 38.1663 14.9358 37.9816 14.5252C37.9553 14.4757 37.9383 14.4554 37.9315 14.4472C37.8932 14.4161 38.0517 14.5866 38.2211 14.7149C38.3918 14.8493 38.5854 14.9797 38.7178 15.0381C39.6811 15.4622 40.8708 15.7783 41.9477 16.4113C42.0672 16.4819 42.1919 16.5796 42.3027 16.6755C42.5978 16.891 42.7774 17.1557 42.8462 17.2315C43.0699 17.4852 43.2244 17.5076 43.345 17.6983C43.5164 17.9825 43.6219 18.322 43.6733 18.6418C43.8256 19.5557 43.5161 20.3856 43.3416 20.8931C43.0834 21.631 42.7503 22.2777 42.4202 22.9021C41.6141 24.3163 40.353 24.9837 39.5846 25.5772C39.3475 25.7683 39.0637 26.0162 38.7933 26.2443C38.4669 26.5202 38.0733 26.8607 37.6293 27.2174C36.5981 28.0084 35.4867 28.1577 34.6323 28.2492C34.2053 28.2909 33.8293 28.2361 33.5377 28.162C33.1996 28.0683 33.3267 27.9477 33.0674 27.8731C32.787 27.7853 32.6137 27.819 32.4882 27.7786C32.1229 27.6605 31.6191 27.4573 31.1335 27.2624C30.3735 26.9561 29.4624 26.3785 29.6446 26.4369C29.6562 26.4346 29.671 26.4279 29.6856 26.4179C29.6641 26.3786 29.6314 26.3106 29.6079 26.3155C29.5917 26.3189 29.5822 26.3988 29.5368 26.4262C29.3948 26.5068 29.1758 26.7003 28.9322 26.936C28.6733 27.169 28.4325 27.4659 27.8588 27.7553C26.8833 28.1321 26.3347 27.7226 25.8997 27.5163C24.6858 26.8093 23.5593 25.6685 22.8541 25.3592C22.341 25.1523 21.6945 25.4701 20.5473 25.7522C20.2029 25.8218 19.9725 25.8162 19.7452 25.8173C19.2412 25.8092 18.9341 25.6313 18.8052 25.5904C18.7323 25.584 18.6836 25.5734 18.6596 25.5706C18.2858 25.5017 18.147 25.5781 17.7779 25.4353C16.716 24.9836 15.666 24.1239 14.7551 23.6342C14.7116 23.6108 14.6697 23.5898 14.6294 23.5711C14.2116 23.3674 13.7082 23.3966 13.3875 23.4307C13.2561 23.4355 12.9974 23.4326 12.6415 23.4306C12.291 23.4302 11.8999 23.3891 11.7484 23.3981C11.7388 23.399 11.7301 23.4002 11.7224 23.4017C11.5823 23.4296 11.4888 23.5779 11.3245 23.5639ZM24.9739 24.3936C24.7583 24.5528 25.4936 24.8652 25.356 24.5761C25.3268 24.5121 25.0319 24.353 24.9739 24.3936ZM36.1601 10.7231C36.1009 10.7682 36.0413 10.8128 35.9814 10.8569C36.0451 10.899 36.1081 10.9475 36.1697 11.0018C36.1906 10.9437 36.2094 10.8841 36.2259 10.8232C36.2047 10.789 36.1828 10.7556 36.1601 10.7231Z" fill="#0059FF"/>
</svg>
